<svg id="my-svg" width="100%" xmlns="http://www.w3.org/2000/svg" xmlns:xlink="http://www.w3.org/1999/xlink" class="flowchart" style="max-width: 2346px; background-color: white;" viewBox="0 0 2346 519.5" role="graphics-document document" aria-roledescription="flowchart-v2"><style>#my-svg{font-size:13px;fill:#333;}@keyframes edge-animation-frame{from{stroke-dashoffset:0;}}@keyframes dash{to{stroke-dashoffset:0;}}#my-svg .edge-animation-slow{stroke-dasharray:9,5!important;stroke-dashoffset:900;animation:dash 50s linear infinite;stroke-linecap:round;}#my-svg .edge-animation-fast{stroke-dasharray:9,5!important;stroke-dashoffset:900;animation:dash 20s linear infinite;stroke-linecap:round;}#my-svg .error-icon{fill:hsl(220.5882352941, 100%, 98.3333333333%);}#my-svg .error-text{fill:rgb(8.5000000002, 5.7500000001, 0);stroke:rgb(8.5000000002, 5.7500000001, 0);}#my-svg .edge-thickness-normal{stroke-width:1px;}#my-svg .edge-thickness-thick{stroke-width:3.5px;}#my-svg .edge-pattern-solid{stroke-dasharray:0;}#my-svg .edge-thickness-invisible{stroke-width:0;fill:none;}#my-svg .edge-pattern-dashed{stroke-dasharray:3;}#my-svg .edge-pattern-dotted{stroke-dasharray:2;}#my-svg .marker{fill:#5B6B7B;stroke:#5B6B7B;}#my-svg .marker.cross{stroke:#5B6B7B;}#my-svg svg{font-size:13px;}#my-svg p{margin:0;}#my-svg .label{color:#333;}#my-svg .cluster-label text{fill:rgb(8.5000000002, 5.7500000001, 0);}#my-svg .cluster-label span{color:rgb(8.5000000002, 5.7500000001, 0);}#my-svg .cluster-label span p{background-color:transparent;}#my-svg .label text,#my-svg span{fill:#333;color:#333;}#my-svg .node rect,#my-svg .node circle,#my-svg .node ellipse,#my-svg .node polygon,#my-svg .node path{fill:#fff4dd;stroke:hsl(40.5882352941, 60%, 83.3333333333%);stroke-width:1px;}#my-svg .rough-node .label text,#my-svg .node .label text,#my-svg .image-shape .label,#my-svg .icon-shape .label{text-anchor:middle;}#my-svg .node .katex path{fill:#000;stroke:#000;stroke-width:1px;}#my-svg .rough-node .label,#my-svg .node .label,#my-svg .image-shape .label,#my-svg .icon-shape .label{text-align:center;}#my-svg .node.clickable{cursor:pointer;}#my-svg .root .anchor path{fill:#5B6B7B!important;stroke-width:0;stroke:#5B6B7B;}#my-svg .arrowheadPath{fill:#0b0b0b;}#my-svg .edgePath .path{stroke:#5B6B7B;stroke-width:1px;}#my-svg .flowchart-link{stroke:#5B6B7B;fill:none;}#my-svg .edgeLabel{background-color:hsl(-79.4117647059, 100%, 93.3333333333%);text-align:center;}#my-svg .edgeLabel p{background-color:hsl(-79.4117647059, 100%, 93.3333333333%);}#my-svg .edgeLabel rect{opacity:0.5;background-color:hsl(-79.4117647059, 100%, 93.3333333333%);fill:hsl(-79.4117647059, 100%, 93.3333333333%);}#my-svg .labelBkg{background-color:rgba(243.9999999999, 220.9999999998, 255, 0.5);}#my-svg .cluster rect{fill:#F7F9FB;stroke:#AFC0CE;stroke-width:1px;}#my-svg .cluster text{fill:rgb(8.5000000002, 5.7500000001, 0);}#my-svg .cluster span{color:rgb(8.5000000002, 5.7500000001, 0);}#my-svg div.mermaidTooltip{position:absolute;text-align:center;max-width:200px;padding:2px;font-size:12px;background:hsl(220.5882352941, 100%, 98.3333333333%);border:1px solid hsl(220.5882352941, 60%, 88.3333333333%);border-radius:2px;pointer-events:none;z-index:100;}#my-svg .flowchartTitleText{text-anchor:middle;font-size:18px;fill:#333;}#my-svg rect.text{fill:none;stroke-width:0;}#my-svg .icon-shape,#my-svg .image-shape{background-color:hsl(-79.4117647059, 100%, 93.3333333333%);text-align:center;}#my-svg .icon-shape p,#my-svg .image-shape p{background-color:hsl(-79.4117647059, 100%, 93.3333333333%);padding:2px;}#my-svg .icon-shape .label rect,#my-svg .image-shape .label rect{opacity:0.5;background-color:hsl(-79.4117647059, 100%, 93.3333333333%);fill:hsl(-79.4117647059, 100%, 93.3333333333%);}#my-svg .label-icon{display:inline-block;height:1em;overflow:visible;vertical-align:-0.125em;}#my-svg .node .label-icon path{fill:currentColor;stroke:revert;stroke-width:revert;}#my-svg .node .neo-node{stroke:hsl(40.5882352941, 60%, 83.3333333333%);}#my-svg [data-look="neo"].node rect,#my-svg [data-look="neo"].cluster rect,#my-svg [data-look="neo"].node polygon{stroke:url(#my-svg-gradient);filter:drop-shadow( 1px 2px 2px rgba(185,185,185,1));}#my-svg [data-look="neo"].node path{stroke:url(#my-svg-gradient);stroke-width:1px;}#my-svg [data-look="neo"].node .outer-path{filter:drop-shadow( 1px 2px 2px rgba(185,185,185,1));}#my-svg [data-look="neo"].node .neo-line path{stroke:hsl(40.5882352941, 60%, 83.3333333333%);filter:none;}#my-svg [data-look="neo"].node circle{stroke:url(#my-svg-gradient);filter:drop-shadow( 1px 2px 2px rgba(185,185,185,1));}#my-svg [data-look="neo"].node circle .state-start{fill:#000000;}#my-svg [data-look="neo"].icon-shape .icon{fill:url(#my-svg-gradient);filter:drop-shadow( 1px 2px 2px rgba(185,185,185,1));}#my-svg [data-look="neo"].icon-shape .icon-neo path{stroke:url(#my-svg-gradient);filter:drop-shadow( 1px 2px 2px rgba(185,185,185,1));}#my-svg :root{--mermaid-font-family:"trebuchet ms",verdana,arial,sans-serif;}#my-svg .untrusted&gt;*{fill:rgb(255, 233, 214)!important;stroke:rgb(232, 131, 58)!important;stroke-width:2px!important;color:rgb(122, 62, 18)!important;}#my-svg .untrusted span{fill:rgb(255, 233, 214)!important;stroke:rgb(232, 131, 58)!important;stroke-width:2px!important;color:rgb(122, 62, 18)!important;}#my-svg .untrusted tspan{fill:rgb(122, 62, 18)!important;}#my-svg .kernel&gt;*{fill:rgb(220, 233, 251)!important;stroke:rgb(59, 111, 181)!important;stroke-width:2px!important;color:rgb(27, 58, 102)!important;}#my-svg .kernel span{fill:rgb(220, 233, 251)!important;stroke:rgb(59, 111, 181)!important;stroke-width:2px!important;color:rgb(27, 58, 102)!important;}#my-svg .kernel tspan{fill:rgb(27, 58, 102)!important;}#my-svg .gate&gt;*{fill:rgb(255, 243, 204)!important;stroke:rgb(201, 162, 39)!important;stroke-width:2px!important;color:rgb(107, 84, 16)!important;}#my-svg .gate span{fill:rgb(255, 243, 204)!important;stroke:rgb(201, 162, 39)!important;stroke-width:2px!important;color:rgb(107, 84, 16)!important;}#my-svg .gate tspan{fill:rgb(107, 84, 16)!important;}#my-svg .pass&gt;*{fill:rgb(219, 243, 225)!important;stroke:rgb(63, 164, 95)!important;stroke-width:2px!important;color:rgb(28, 82, 48)!important;}#my-svg .pass span{fill:rgb(219, 243, 225)!important;stroke:rgb(63, 164, 95)!important;stroke-width:2px!important;color:rgb(28, 82, 48)!important;}#my-svg .pass tspan{fill:rgb(28, 82, 48)!important;}#my-svg .mem&gt;*{fill:rgb(237, 231, 251)!important;stroke:rgb(123, 91, 192)!important;stroke-width:2px!important;color:rgb(58, 42, 102)!important;}#my-svg .mem span{fill:rgb(237, 231, 251)!important;stroke:rgb(123, 91, 192)!important;stroke-width:2px!important;color:rgb(58, 42, 102)!important;}#my-svg .mem tspan{fill:rgb(58, 42, 102)!important;}#my-svg .note&gt;*{fill:rgb(247, 249, 251)!important;stroke:rgb(175, 192, 206)!important;stroke-width:1px!important;color:rgb(70, 88, 106)!important;}#my-svg .note span{fill:rgb(247, 249, 251)!important;stroke:rgb(175, 192, 206)!important;stroke-width:1px!important;color:rgb(70, 88, 106)!important;}#my-svg .note tspan{fill:rgb(70, 88, 106)!important;}</style><g><marker id="my-svg_flowchart-v2-pointEnd" class="marker flowchart-v2" viewBox="0 0 10 10" refX="5" refY="5" markerUnits="userSpaceOnUse" markerWidth="8" markerHeight="8" orient="auto"><path d="M 0 0 L 10 5 L 0 10 z" class="arrowMarkerPath" style="stroke-width: 1; stroke-dasharray: 1, 0;"/></marker><marker id="my-svg_flowchart-v2-pointStart" class="marker flowchart-v2" viewBox="0 0 10 10" refX="4.5" refY="5" markerUnits="userSpaceOnUse" markerWidth="8" markerHeight="8" orient="auto"><path d="M 0 5 L 10 10 L 10 0 z" class="arrowMarkerPath" style="stroke-width: 1; stroke-dasharray: 1, 0;"/></marker><marker id="my-svg_flowchart-v2-pointEnd-margin" class="marker flowchart-v2" viewBox="0 0 11.5 14" refX="11.5" refY="7" markerUnits="userSpaceOnUse" markerWidth="10.5" markerHeight="14" orient="auto"><path d="M 0 0 L 11.5 7 L 0 14 z" class="arrowMarkerPath" style="stroke-width: 0; stroke-dasharray: 1, 0;"/></marker><marker id="my-svg_flowchart-v2-pointStart-margin" class="marker flowchart-v2" viewBox="0 0 11.5 14" refX="1" refY="7" markerUnits="userSpaceOnUse" markerWidth="11.5" markerHeight="14" orient="auto"><polygon points="0,7 11.5,14 11.5,0" class="arrowMarkerPath" style="stroke-width: 0; stroke-dasharray: 1, 0;"/></marker><marker id="my-svg_flowchart-v2-circleEnd" class="marker flowchart-v2" viewBox="0 0 10 10" refX="11" refY="5" markerUnits="userSpaceOnUse" markerWidth="11" markerHeight="11" orient="auto"><circle cx="5" cy="5" r="5" class="arrowMarkerPath" style="stroke-width: 1; stroke-dasharray: 1, 0;"/></marker><marker id="my-svg_flowchart-v2-circleStart" class="marker flowchart-v2" viewBox="0 0 10 10" refX="-1" refY="5" markerUnits="userSpaceOnUse" markerWidth="11" markerHeight="11" orient="auto"><circle cx="5" cy="5" r="5" class="arrowMarkerPath" style="stroke-width: 1; stroke-dasharray: 1, 0;"/></marker><marker id="my-svg_flowchart-v2-circleEnd-margin" class="marker flowchart-v2" viewBox="0 0 10 10" refY="5" refX="12.25" markerUnits="userSpaceOnUse" markerWidth="14" markerHeight="14" orient="auto"><circle cx="5" cy="5" r="5" class="arrowMarkerPath" style="stroke-width: 0; stroke-dasharray: 1, 0;"/></marker><marker id="my-svg_flowchart-v2-circleStart-margin" class="marker flowchart-v2" viewBox="0 0 10 10" refX="-2" refY="5" markerUnits="userSpaceOnUse" markerWidth="14" markerHeight="14" orient="auto"><circle cx="5" cy="5" r="5" class="arrowMarkerPath" style="stroke-width: 0; stroke-dasharray: 1, 0;"/></marker><marker id="my-svg_flowchart-v2-crossEnd" class="marker cross flowchart-v2" viewBox="0 0 11 11" refX="12" refY="5.2" markerUnits="userSpaceOnUse" markerWidth="11" markerHeight="11" orient="auto"><path d="M 1,1 l 9,9 M 10,1 l -9,9" class="arrowMarkerPath" style="stroke-width: 2; stroke-dasharray: 1, 0;"/></marker><marker id="my-svg_flowchart-v2-crossStart" class="marker cross flowchart-v2" viewBox="0 0 11 11" refX="-1" refY="5.2" markerUnits="userSpaceOnUse" markerWidth="11" markerHeight="11" orient="auto"><path d="M 1,1 l 9,9 M 10,1 l -9,9" class="arrowMarkerPath" style="stroke-width: 2; stroke-dasharray: 1, 0;"/></marker><marker id="my-svg_flowchart-v2-crossEnd-margin" class="marker cross flowchart-v2" viewBox="0 0 15 15" refX="17.7" refY="7.5" markerUnits="userSpaceOnUse" markerWidth="12" markerHeight="12" orient="auto"><path d="M 1,1 L 14,14 M 1,14 L 14,1" class="arrowMarkerPath" style="stroke-width: 2.5;"/></marker><marker id="my-svg_flowchart-v2-crossStart-margin" class="marker cross flowchart-v2" viewBox="0 0 15 15" refX="-3.5" refY="7.5" markerUnits="userSpaceOnUse" markerWidth="12" markerHeight="12" orient="auto"><path d="M 1,1 L 14,14 M 1,14 L 14,1" class="arrowMarkerPath" style="stroke-width: 2.5; stroke-dasharray: 1, 0;"/></marker><g class="root"><g class="clusters"/><g class="edgePaths"><path d="M1248.03,31.599L1376.358,42.457C1504.687,53.316,1761.343,75.033,1889.672,95.891C2018,116.75,2018,136.75,2018,146.75L2018,156.75" id="my-svg-L_fak_L1_0" class="edge-thickness-normal edge-pattern-solid edge-thickness-normal edge-pattern-solid flowchart-link" style=";" data-edge="true" data-et="edge" data-id="L_fak_L1_0" data-points="W3sieCI6MTI0OC4wMzAxOTcxNDM1NTQ3LCJ5IjozMS41OTg3MDg5ODkwNzAwMTJ9LHsieCI6MjAxOCwieSI6OTYuNzV9LHsieCI6MjAxOCwieSI6MTYwLjc1fV0=" data-look="classic" marker-end="url(#my-svg_flowchart-v2-pointEnd)"/><path d="M1173,42.5L1173,51.542C1173,60.583,1173,78.667,1173,96.083C1173,113.5,1173,130.25,1173,138.625L1173,147" id="my-svg-L_fak_L2_0" class="edge-thickness-normal edge-pattern-solid edge-thickness-normal edge-pattern-solid flowchart-link" style=";" data-edge="true" data-et="edge" data-id="L_fak_L2_0" data-points="W3sieCI6MTE3MywieSI6NDIuNX0seyJ4IjoxMTczLCJ5Ijo5Ni43NX0seyJ4IjoxMTczLCJ5IjoxNTF9XQ==" data-look="classic" marker-end="url(#my-svg_flowchart-v2-pointEnd)"/><path d="M1097.97,31.599L969.642,42.457C841.313,53.316,584.657,75.033,456.328,95.891C328,116.75,328,136.75,328,146.75L328,156.75" id="my-svg-L_fak_L3_0" class="edge-thickness-normal edge-pattern-solid edge-thickness-normal edge-pattern-solid flowchart-link" style=";" data-edge="true" data-et="edge" data-id="L_fak_L3_0" data-points="W3sieCI6MTA5Ny45Njk4MDI4NTY0NDUzLCJ5IjozMS41OTg3MDg5ODkwNzAwMTJ9LHsieCI6MzI4LCJ5Ijo5Ni43NX0seyJ4IjozMjgsInkiOjE2MC43NX1d" data-look="classic" marker-end="url(#my-svg_flowchart-v2-pointEnd)"/><path d="M1173,334L1173,338.167C1173,342.333,1173,350.667,1173,358.333C1173,366,1173,373,1173,376.5L1173,380" id="my-svg-L_L2_note_0" class="edge-thickness-normal edge-pattern-dotted edge-thickness-normal edge-pattern-solid flowchart-link" style=";" data-edge="true" data-et="edge" data-id="L_L2_note_0" data-points="W3sieCI6MTE3MywieSI6MzM0fSx7IngiOjExNzMsInkiOjM1OX0seyJ4IjoxMTczLCJ5IjozODR9XQ==" data-look="classic" marker-end="url(#my-svg_flowchart-v2-pointEnd)"/></g><g class="edgeLabels"><g class="edgeLabel" transform="translate(2018, 96.75)"><g class="label" data-id="L_fak_L1_0" transform="translate(-71.015625, -9.75)"><foreignObject width="142.03125" height="19.5"><div xmlns="http://www.w3.org/1999/xhtml" class="labelBkg" style="display: table-cell; white-space: nowrap; line-height: 1.5; max-width: 200px; text-align: center;"><span class="edgeLabel"><p>multiplies ON (x2 today)</p></span></div></foreignObject></g></g><g class="edgeLabel" transform="translate(1173, 96.75)"><g class="label" data-id="L_fak_L2_0" transform="translate(-100, -29.25)"><foreignObject width="200" height="58.5"><div xmlns="http://www.w3.org/1999/xhtml" class="labelBkg" style="display: table; white-space: break-spaces; line-height: 1.5; max-width: 200px; text-align: center; width: 200px;"><span class="edgeLabel"><p>OVERLAPS the prefix slice;<br />captures the residual (x2-2.5 vs tuned)</p></span></div></foreignObject></g></g><g class="edgeLabel" transform="translate(328, 96.75)"><g class="label" data-id="L_fak_L3_0" transform="translate(-89.5859375, -9.75)"><foreignObject width="179.171875" height="19.5"><div xmlns="http://www.w3.org/1999/xhtml" class="labelBkg" style="display: table-cell; white-space: nowrap; line-height: 1.5; max-width: 200px; text-align: center;"><span class="edgeLabel"><p>OWNS, orthogonal (no $ trade)</p></span></div></foreignObject></g></g><g class="edgeLabel"><g class="label" data-id="L_L2_note_0" transform="translate(0, 0)"><foreignObject width="0" height="0"><div xmlns="http://www.w3.org/1999/xhtml" class="labelBkg" style="display: table-cell; white-space: nowrap; line-height: 1.5; max-width: 200px; text-align: center;"><span class="edgeLabel"></span></div></foreignObject></g></g></g><g class="nodes"><g class="root" transform="translate(0, 152.75)"><g class="clusters"><g class="cluster" id="my-svg-L3" data-look="classic"><rect style="" x="8" y="8" width="640" height="163.5"/><g class="cluster-label" transform="translate(256.4609375, 8)"><foreignObject width="143.078125" height="19.5"><div xmlns="http://www.w3.org/1999/xhtml" style="display: table-cell; white-space: nowrap; line-height: 1.5;"><span class="nodeLabel"><p>trust  (adjudication lane)</p></span></div></foreignObject></g></g></g><g class="edgePaths"/><g class="edgeLabels"/><g class="nodes"><g class="node default pass" id="my-svg-flowchart-tr-6" data-look="classic" transform="translate(173, 89.75)"><rect class="basic label-container" style="fill:#DBF3E1 !important;stroke:#3FA45F !important;stroke-width:2px !important" x="-130" y="-44.25" width="260" height="88.5"/><g class="label" style="color:#1C5230 !important" transform="translate(-100, -29.25)"><rect/><foreignObject width="200" height="58.5"><div style="color: rgb(28, 82, 48) !important; display: table; white-space: break-spaces; line-height: 1.5; max-width: 200px; text-align: center; width: 200px;" xmlns="http://www.w3.org/1999/xhtml"><span style="color:#1C5230 !important" class="nodeLabel"><p>effect-verification · adjudicated-KV · ring-3 inversion<br />(no engine play has any of this)</p></span></div></foreignObject></g></g><g class="node default note" id="my-svg-flowchart-gr-7" data-look="classic" transform="translate(483, 89.75)"><rect class="basic label-container" style="fill:#F7F9FB !important;stroke:#AFC0CE !important;stroke-width:1px !important" x="-130" y="-44.25" width="260" height="88.5"/><g class="label" style="color:#46586A !important" transform="translate(-100, -29.25)"><rect/><foreignObject width="200" height="58.5"><div style="color: rgb(70, 88, 106) !important; display: table; white-space: break-spaces; line-height: 1.5; max-width: 200px; text-align: center; width: 200px;" xmlns="http://www.w3.org/1999/xhtml"><span style="color:#46586A !important" class="nodeLabel"><p>content guardrails / classifiers<br />sit ABOVE; fused is the bottom ring</p></span></div></foreignObject></g></g></g></g><g class="root" transform="translate(690, 143)"><g class="clusters"><g class="cluster" id="my-svg-L2" data-look="classic"><rect style="" x="8" y="8" width="950" height="183"/><g class="cluster-label" transform="translate(414.984375, 8)"><foreignObject width="136.03125" height="19.5"><div xmlns="http://www.w3.org/1999/xhtml" style="display: table-cell; white-space: nowrap; line-height: 1.5;"><span class="nodeLabel"><p>tokens/task  (loop lane)</p></span></div></foreignObject></g></g></g><g class="edgePaths"/><g class="edgeLabels"/><g class="nodes"><g class="node default gate" id="my-svg-flowchart-pc-3" data-look="classic" transform="translate(173, 99.5)"><rect class="basic label-container" style="fill:#FFF3CC !important;stroke:#C9A227 !important;stroke-width:2px !important" x="-130" y="-44.25" width="260" height="88.5"/><g class="label" style="color:#6B5410 !important" transform="translate(-100, -29.25)"><rect/><foreignObject width="200" height="58.5"><div style="color: rgb(107, 84, 16) !important; display: table; white-space: break-spaces; line-height: 1.5; max-width: 200px; text-align: center; width: 200px;" xmlns="http://www.w3.org/1999/xhtml"><span style="color:#6B5410 !important" class="nodeLabel"><p>prefix cache / RadixAttention / LMCache<br />(Modular SHIPS this by default)</p></span></div></foreignObject></g></g><g class="node default mem" id="my-svg-flowchart-hr-4" data-look="classic" transform="translate(483, 99.5)"><rect class="basic label-container" style="fill:#EDE7FB !important;stroke:#7B5BC0 !important;stroke-width:2px !important" x="-130" y="-44.25" width="260" height="88.5"/><g class="label" style="color:#3A2A66 !important" transform="translate(-100, -29.25)"><rect/><foreignObject width="200" height="58.5"><div style="color: rgb(58, 42, 102) !important; display: table; white-space: break-spaces; line-height: 1.5; max-width: 200px; text-align: center; width: 200px;" xmlns="http://www.w3.org/1999/xhtml"><span style="color:#3A2A66 !important" class="nodeLabel"><p>context compression (headroom)<br />= a component INSIDE the fused stack</p></span></div></foreignObject></g></g><g class="node default pass" id="my-svg-flowchart-res-5" data-look="classic" transform="translate(793, 99.5)"><rect class="basic label-container" style="fill:#DBF3E1 !important;stroke:#3FA45F !important;stroke-width:2px !important" x="-130" y="-54" width="260" height="108"/><g class="label" style="color:#1C5230 !important" transform="translate(-100, -39)"><rect/><foreignObject width="200" height="78"><div style="color: rgb(28, 82, 48) !important; display: table; white-space: break-spaces; line-height: 1.5; max-width: 200px; text-align: center; width: 200px;" xmlns="http://www.w3.org/1999/xhtml"><span style="color:#1C5230 !important" class="nodeLabel"><p>non-prefix / branching / eviction-proof reuse<br />= the fused kernel's MARGINAL claim</p></span></div></foreignObject></g></g></g></g><g class="root" transform="translate(1690, 152.75)"><g class="clusters"><g class="cluster" id="my-svg-L1" data-look="classic"><rect style="" x="8" y="8" width="640" height="163.5"/><g class="cluster-label" transform="translate(264.3125, 8)"><foreignObject width="127.375" height="19.5"><div xmlns="http://www.w3.org/1999/xhtml" style="display: table-cell; white-space: nowrap; line-height: 1.5;"><span class="nodeLabel"><p>$/token  (engine lane)</p></span></div></foreignObject></g></g></g><g class="edgePaths"/><g class="edgeLabels"/><g class="nodes"><g class="node default kernel" id="my-svg-flowchart-mod-1" data-look="classic" transform="translate(173, 89.75)"><rect class="basic label-container" style="fill:#DCE9FB !important;stroke:#3B6FB5 !important;stroke-width:2px !important" x="-130" y="-44.25" width="260" height="88.5"/><g class="label" style="color:#1B3A66 !important" transform="translate(-100, -29.25)"><rect/><foreignObject width="200" height="58.5"><div style="color: rgb(27, 58, 102) !important; display: table; white-space: break-spaces; line-height: 1.5; max-width: 200px; text-align: center; width: 200px;" xmlns="http://www.w3.org/1999/xhtml"><span style="color:#1B3A66 !important" class="nodeLabel"><p>Modular MAX / Mojo<br />SOTA kernels + NVIDIA/AMD/Apple portability</p></span></div></foreignObject></g></g><g class="node default kernel" id="my-svg-flowchart-other1-2" data-look="classic" transform="translate(483, 89.75)"><rect class="basic label-container" style="fill:#DCE9FB !important;stroke:#3B6FB5 !important;stroke-width:2px !important" x="-130" y="-44.25" width="260" height="88.5"/><g class="label" style="color:#1B3A66 !important" transform="translate(-100, -29.25)"><rect/><foreignObject width="200" height="58.5"><div style="color: rgb(27, 58, 102) !important; display: table; white-space: break-spaces; line-height: 1.5; max-width: 200px; text-align: center; width: 200px;" xmlns="http://www.w3.org/1999/xhtml"><span style="color:#1B3A66 !important" class="nodeLabel"><p>quantization · spec-decode<br />FlashAttn · disaggregated PD · MoE</p></span></div></foreignObject></g></g></g></g><g class="node default untrusted" id="my-svg-flowchart-fak-0" data-look="classic" transform="translate(1173, 25.25)"><g class="basic label-container outer-path"><path d="M-57.7890625 -17.25 C-31.88117285576161 -17.25, -5.973283211523217 -17.25, 57.7890625 -17.25 C57.7890625 -17.25, 57.7890625 -17.25, 57.7890625 -17.25 C58.21117538615605 -17.236463661333865, 58.63328827231209 -17.22292732266773, 58.8942737946673 -17.2145580249433 C59.14722907375794 -17.19015573339266, 59.40018435284858 -17.165753441842018, 59.99494353905773 -17.108377738450997 C60.33280069541938 -17.053755613531823, 60.67065785178103 -16.999133488612653, 61.08654884509867 -16.93189545809588 C61.450777331030665 -16.8487626829949, 61.81500581696265 -16.765629907893913, 62.164604072439 -16.685836387423258 C62.42366759797504 -16.608947692896358, 62.68273112351108 -16.532058998369454, 63.22467926090746 -16.371211635934035 C63.4704904751691 -16.280750836831793, 63.71630168943074 -16.190290037729554, 64.2624183341692 -15.989314064218876 C64.62594614856197 -15.82839108445667, 64.98947396295472 -15.667468104694466, 65.27355699977788 -15.54171297131673 C65.54441946583012 -15.400404196272966, 65.81528193188237 -15.259095421229201, 66.25394027206792 -15.030247646128469 C66.55481854398812 -14.84785346953346, 66.8556968159083 -14.66545929293845, 67.19953954588196 -14.457019809384253 C67.50317736145234 -14.24521521351154, 67.80681517702273 -14.033410617638829, 68.10646915097348 -13.824384977222252 C68.34080676818694 -13.637506963480407, 68.57514438540039 -13.450628949738563, 68.97100231905935 -13.13494278186757 C69.19753619298308 -12.929210711327901, 69.4240700669068 -12.723478640788231, 69.78958649791014 -12.391526289185801 C69.95581624326805 -12.219880429387857, 70.12204598862596 -12.048234569589912, 70.55885794954919 -11.597190357007719 C70.71660480464253 -11.411891924964744, 70.87435165973588 -11.226593492921769, 71.27565557257351 -10.755199082063154 C71.43405703640417 -10.542955551200302, 71.59245850023481 -10.330712020337453, 71.93703389179748 -9.86901238710743 C72.15264721414992 -9.53777242369023, 72.36826053650236 -9.206532460273028, 72.54027516184222 -8.94227180335656 C72.73149320483603 -8.60274480509456, 72.92271124782984 -8.26321780683256, 73.08290053493425 -7.978785506654408 C73.26261300986145 -7.605608707237107, 73.44232548478865 -7.232431907819806, 73.56268024702277 -6.982512668861298 C73.67696427239707 -6.700228916655432, 73.79124829777139 -6.417945164449566, 73.97764278035837 -5.957547188767565 C74.10585335246348 -5.571397373167488, 74.23406392456862 -5.185247557567411, 74.3260829648824 -4.908100869385314 C74.38832378680264 -4.670749640060553, 74.4505646087229 -4.433398410735791, 74.60656898513646 -3.838486110746425 C74.68248082490847 -3.448694857490197, 74.75839266468047 -3.058903604233969, 74.81794826389927 -2.753098189325798 C74.85326128829782 -2.4792173454360893, 74.88857431269635 -2.20533650154638, 74.95935219837367 -1.6563971969075135 C74.98539217043849 -1.2508036129108553, 75.01143214250331 -0.8452100289141973, 75.03019972946187 -0.5528897131110516 C75.03019972946187 -0.2805207319063745, 75.03019972946187 -0.00815175070169738, 75.03019972946187 0.5528897131110474 C75.00372604903012 0.9652386550056792, 74.97725236859837 1.377587596900311, 74.95935219837367 1.6563971969075018 C74.90652562608862 2.0661096597636983, 74.85369905380358 2.4758221226198946, 74.81794826389927 2.753098189325786 C74.74889003233667 3.107697612937277, 74.6798318007741 3.4622970365487675, 74.60656898513646 3.8384861107464214 C74.50034441997735 4.243566415715867, 74.39411985481824 4.648646720685313, 74.3260829648824 4.908100869385303 C74.22399356501069 5.215577876061959, 74.12190416513897 5.523054882738614, 73.97764278035837 5.9575471887675535 C73.87371154480444 6.214259349959491, 73.76978030925052 6.470971511151428, 73.56268024702277 6.982512668861292 C73.45376022788105 7.2086874191241375, 73.34484020873933 7.4348621693869825, 73.08290053493425 7.978785506654404 C72.96856965077613 8.181791568734564, 72.85423876661801 8.384797630814726, 72.54027516184222 8.942271803356554 C72.36555940271174 9.210682127131404, 72.19084364358126 9.479092450906252, 71.9370338917975 9.869012387107421 C71.77621730975046 10.084491956358423, 71.61540072770343 10.299971525609426, 71.27565557257351 10.75519908206315 C71.09411810506215 10.96844332117652, 70.9125806375508 11.181687560289893, 70.55885794954919 11.597190357007708 C70.30334760594232 11.86102576457114, 70.04783726233546 12.12486117213457, 69.78958649791014 12.391526289185798 C69.53039368568295 12.626918343384519, 69.27120087345577 12.862310397583242, 68.97100231905937 13.13494278186756 C68.77432125168306 13.291790699197152, 68.57764018430674 13.448638616526743, 68.10646915097348 13.82438497722225 C67.82398617235441 14.021432874615854, 67.54150319373535 14.218480772009459, 67.19953954588198 14.457019809384246 C66.91069291334851 14.632120335477255, 66.62184628081506 14.807220861570263, 66.25394027206792 15.030247646128467 C65.86252125819463 15.234450694950322, 65.47110224432133 15.438653743772178, 65.27355699977788 15.541712971316729 C65.07081579715557 15.631460487613529, 64.86807459453327 15.721208003910329, 64.26241833416921 15.989314064218874 C63.84848540167938 16.141645209729212, 63.43455246918955 16.293976355239554, 63.224679260907465 16.37121163593403 C62.998840291724804 16.438239456534507, 62.773001322542136 16.50526727713498, 62.16460407243902 16.685836387423254 C61.923994175910764 16.740754026179516, 61.68338427938251 16.79567166493578, 61.086548845098676 16.931895458095877 C60.826780474375774 16.973892793740553, 60.56701210365288 17.01589012938523, 59.994943539057736 17.108377738450994 C59.740159373490364 17.13295646048049, 59.48537520792299 17.15753518250998, 58.8942737946673 17.2145580249433 C58.67004211607724 17.2217486984352, 58.44581043748719 17.228939371927098, 57.7890625 17.25 C57.7890625 17.25, 57.7890625 17.25, 57.7890625 17.25 C18.742122384176007 17.25, -20.304817731647987 17.25, -57.7890625 17.25 C-58.14114463200483 17.2387094113129, -58.49322676400967 17.2274188226258, -58.89427379466729 17.2145580249433 C-59.295537387954184 17.17584860868899, -59.696800981241076 17.13713919243468, -59.99494353905773 17.108377738450994 C-60.4008471745335 17.042754386496977, -60.80675081000928 16.97713103454296, -61.08654884509867 16.931895458095877 C-61.50091943568093 16.837318074816285, -61.91529002626318 16.742740691536692, -62.164604072439 16.685836387423258 C-62.48904662581852 16.589543540613935, -62.81348917919803 16.493250693804608, -63.22467926090745 16.37121163593404 C-63.57785356210485 16.241240228385944, -63.93102786330225 16.11126882083785, -64.26241833416921 15.989314064218876 C-64.65120792990741 15.817208443219158, -65.03999752564563 15.645102822219442, -65.27355699977788 15.541712971316732 C-65.473977881518 15.437153525688615, -65.67439876325811 15.332594080060497, -66.25394027206792 15.03024764612847 C-66.50185681258657 14.879959182346756, -66.74977335310523 14.729670718565039, -67.19953954588195 14.457019809384258 C-67.38905344144861 14.324823119761273, -67.57856733701527 14.192626430138287, -68.10646915097348 13.824384977222254 C-68.44523584057019 13.554227557229092, -68.7840025301669 13.28407013723593, -68.97100231905935 13.134942781867572 C-69.21576368988644 12.912656980913402, -69.46052506071354 12.690371179959232, -69.78958649791014 12.391526289185808 C-70.02318870506043 12.150312831205238, -70.25679091221073 11.909099373224667, -70.55885794954919 11.597190357007715 C-70.83056360664271 11.278029431695796, -71.10226926373625 10.958868506383874, -71.27565557257351 10.755199082063156 C-71.46530958910536 10.501079977746826, -71.6549636056372 10.246960873430499, -71.93703389179748 9.869012387107432 C-72.09236082225266 9.630388510807357, -72.24768775270782 9.39176463450728, -72.54027516184222 8.942271803356567 C-72.66773713383053 8.715950165167087, -72.79519910581882 8.489628526977606, -73.08290053493425 7.97878550665441 C-73.25625899567125 7.618802953657216, -73.42961745640822 7.258820400660021, -73.56268024702277 6.9825126688612995 C-73.64624336821288 6.776110143938674, -73.729806489403 6.56970761901605, -73.97764278035837 5.957547188767567 C-74.05325296807396 5.72982135021562, -74.12886315578956 5.502095511663674, -74.3260829648824 4.90810086938531 C-74.4078933665872 4.596122350832526, -74.48970376829199 4.284143832279742, -74.60656898513645 3.8384861107464276 C-74.68452076416696 3.438220200539091, -74.76247254319748 3.0379542903317547, -74.81794826389927 2.7530981893258 C-74.86552590370408 2.3840954102673146, -74.9131035435089 2.0150926312088293, -74.95935219837367 1.6563971969075233 C-74.97430020636776 1.4235699065846674, -74.98924821436185 1.1907426162618115, -75.03019972946187 0.5528897131110537 C-75.03019972946187 0.3274517319323615, -75.03019972946187 0.10201375075366925, -75.03019972946187 -0.5528897131110454 C-75.0146418882331 -0.7952156483126186, -74.99908404700432 -1.0375415835141917, -74.95935219837367 -1.6563971969074995 C-74.91726590420954 -1.9828101835656335, -74.87517961004542 -2.3092231702237678, -74.81794826389927 -2.753098189325792 C-74.76857675914195 -3.006610431583388, -74.71920525438463 -3.2601226738409834, -74.60656898513646 -3.8384861107464197 C-74.5025462693394 -4.235169809810838, -74.39852355354233 -4.631853508875256, -74.3260829648824 -4.908100869385301 C-74.24782596251454 -5.143798491957245, -74.16956896014668 -5.379496114529189, -73.97764278035837 -5.957547188767545 C-73.84789654912028 -6.278022888398359, -73.71815031788219 -6.598498588029173, -73.56268024702277 -6.982512668861291 C-73.41584177508763 -7.28742589767459, -73.26900330315249 -7.592339126487889, -73.08290053493425 -7.978785506654402 C-72.90502858473337 -8.29461516572412, -72.72715663453249 -8.610444824793836, -72.54027516184222 -8.942271803356562 C-72.30511733931218 -9.303537367479704, -72.06995951678213 -9.664802931602846, -71.93703389179748 -9.869012387107427 C-71.78432506471806 -10.07362830333351, -71.63161623763864 -10.278244219559594, -71.27565557257351 -10.75519908206315 C-71.10890336010645 -10.951075719296654, -70.94215114763938 -11.146952356530159, -70.5588579495492 -11.597190357007708 C-70.28264171068308 -11.88240630141194, -70.00642547181695 -12.16762224581617, -69.78958649791015 -12.39152628918579 C-69.53420521626884 -12.623456812153986, -69.27882393462754 -12.85538733512218, -68.97100231905937 -13.134942781867558 C-68.74337661477847 -13.316468223657187, -68.51575091049757 -13.497993665446815, -68.10646915097348 -13.824384977222248 C-67.81754082583284 -14.025928869334756, -67.52861250069219 -14.227472761447261, -67.19953954588198 -14.457019809384244 C-66.8629830202718 -14.661042353034812, -66.52642649466162 -14.86506489668538, -66.25394027206792 -15.030247646128466 C-65.89033270113738 -15.219941482981165, -65.52672513020684 -15.409635319833862, -65.27355699977788 -15.541712971316729 C-64.9602965020249 -15.68038410112947, -64.64703600427192 -15.81905523094221, -64.26241833416921 -15.98931406421887 C-64.01665104274839 -16.07975869930967, -63.77088375132757 -16.170203334400473, -63.22467926090747 -16.37121163593403 C-62.86901497800054 -16.476770928180887, -62.51335069509362 -16.582330220427746, -62.16460407243902 -16.68583638742325 C-61.81162019306238 -16.76640265445589, -61.45863631368574 -16.84696892148853, -61.086548845098676 -16.931895458095877 C-60.66382798959286 -17.000237687764862, -60.24110713408705 -17.068579917433848, -59.99494353905774 -17.108377738450994 C-59.70926222181412 -17.135937071543434, -59.42358090457049 -17.163496404635875, -58.8942737946673 -17.2145580249433 C-58.50270714879979 -17.227114805138033, -58.11114050293228 -17.239671585332765, -57.78906250000001 -17.25 C-57.78906250000001 -17.25, -57.7890625 -17.25, -57.7890625 -17.25" stroke="none" stroke-width="0" fill="#FFE9D6" style="fill:#FFE9D6 !important;stroke:#E8833A !important;stroke-width:2px !important"/><path d="M-57.7890625 -17.25 C-27.512138996444524 -17.25, 2.764784507110953 -17.25, 57.7890625 -17.25 M-57.7890625 -17.25 C-29.261135220685738 -17.25, -0.7332079413714752 -17.25, 57.7890625 -17.25 M57.7890625 -17.25 C57.7890625 -17.25, 57.7890625 -17.25, 57.7890625 -17.25 M57.7890625 -17.25 C57.7890625 -17.25, 57.7890625 -17.25, 57.7890625 -17.25 M57.7890625 -17.25 C58.11643969715248 -17.23950165048838, 58.443816894304966 -17.229003300976753, 58.8942737946673 -17.2145580249433 M57.7890625 -17.25 C58.029236617892245 -17.242298083509755, 58.26941073578449 -17.234596167019514, 58.8942737946673 -17.2145580249433 M58.8942737946673 -17.2145580249433 C59.33143210858045 -17.172385888159894, 59.7685904224936 -17.130213751376488, 59.99494353905773 -17.108377738450997 M58.8942737946673 -17.2145580249433 C59.12664649358317 -17.192141310147946, 59.35901919249905 -17.16972459535259, 59.99494353905773 -17.108377738450997 M59.99494353905773 -17.108377738450997 C60.33297264318559 -17.05372781435046, 60.671001747313454 -16.999077890249918, 61.08654884509867 -16.93189545809588 M59.99494353905773 -17.108377738450997 C60.305853208481594 -17.058112274239043, 60.616762877905465 -17.00784681002709, 61.08654884509867 -16.93189545809588 M61.08654884509867 -16.93189545809588 C61.328156842962585 -16.876750009222974, 61.569764840826494 -16.821604560350064, 62.164604072439 -16.685836387423258 M61.08654884509867 -16.93189545809588 C61.46795086079068 -16.844842936894928, 61.8493528764827 -16.757790415693975, 62.164604072439 -16.685836387423258 M62.164604072439 -16.685836387423258 C62.380622229340986 -16.621723332357192, 62.59664038624298 -16.557610277291126, 63.22467926090746 -16.371211635934035 M62.164604072439 -16.685836387423258 C62.43953290867771 -16.604238951958518, 62.714461744916434 -16.522641516493778, 63.22467926090746 -16.371211635934035 M63.22467926090746 -16.371211635934035 C63.48465457807832 -16.27553831602967, 63.74462989524918 -16.179864996125303, 64.2624183341692 -15.989314064218876 M63.22467926090746 -16.371211635934035 C63.57041438144654 -16.24397791563523, 63.91614950198562 -16.11674419533643, 64.2624183341692 -15.989314064218876 M64.2624183341692 -15.989314064218876 C64.56696996907 -15.854498089651557, 64.87152160397079 -15.719682115084238, 65.27355699977788 -15.54171297131673 M64.2624183341692 -15.989314064218876 C64.63033724319044 -15.826447277121835, 64.9982561522117 -15.663580490024795, 65.27355699977788 -15.54171297131673 M65.27355699977788 -15.54171297131673 C65.55296000883763 -15.39594860045643, 65.83236301789736 -15.25018422959613, 66.25394027206792 -15.030247646128469 M65.27355699977788 -15.54171297131673 C65.60911495333883 -15.36665260187911, 65.94467290689978 -15.191592232441488, 66.25394027206792 -15.030247646128469 M66.25394027206792 -15.030247646128469 C66.49740346750647 -14.882658826305075, 66.74086666294501 -14.735070006481683, 67.19953954588196 -14.457019809384253 M66.25394027206792 -15.030247646128469 C66.619966376295 -14.80836047073787, 66.98599248052207 -14.58647329534727, 67.19953954588196 -14.457019809384253 M67.19953954588196 -14.457019809384253 C67.5535888503691 -14.210050341121406, 67.90763815485622 -13.963080872858558, 68.10646915097348 -13.824384977222252 M67.19953954588196 -14.457019809384253 C67.41881522914369 -14.304062585032211, 67.63809091240542 -14.151105360680171, 68.10646915097348 -13.824384977222252 M68.10646915097348 -13.824384977222252 C68.45010063042461 -13.550348016777681, 68.79373210987575 -13.27631105633311, 68.97100231905935 -13.13494278186757 M68.10646915097348 -13.824384977222252 C68.28433911822984 -13.682538411653928, 68.46220908548618 -13.540691846085604, 68.97100231905935 -13.13494278186757 M68.97100231905935 -13.13494278186757 C69.27278259004285 -12.86087392442878, 69.57456286102635 -12.586805066989989, 69.78958649791014 -12.391526289185801 M68.97100231905935 -13.13494278186757 C69.26627551847514 -12.866783474658888, 69.56154871789094 -12.598624167450206, 69.78958649791014 -12.391526289185801 M69.78958649791014 -12.391526289185801 C70.03316389550413 -12.140012628093753, 70.27674129309811 -11.888498967001706, 70.55885794954919 -11.597190357007719 M69.78958649791014 -12.391526289185801 C69.99932723643835 -12.174951756620542, 70.20906797496656 -11.958377224055281, 70.55885794954919 -11.597190357007719 M70.55885794954919 -11.597190357007719 C70.77836424400978 -11.33934577327233, 70.99787053847035 -11.081501189536942, 71.27565557257351 -10.755199082063154 M70.55885794954919 -11.597190357007719 C70.77216307640765 -11.346630017594215, 70.98546820326611 -11.09606967818071, 71.27565557257351 -10.755199082063154 M71.27565557257351 -10.755199082063154 C71.505483709197 -10.44725031676166, 71.73531184582048 -10.13930155146017, 71.93703389179748 -9.86901238710743 M71.27565557257351 -10.755199082063154 C71.47547007068276 -10.487465858072012, 71.67528456879202 -10.21973263408087, 71.93703389179748 -9.86901238710743 M71.93703389179748 -9.86901238710743 C72.06258207904457 -9.676136657087156, 72.18813026629167 -9.483260927066882, 72.54027516184222 -8.94227180335656 M71.93703389179748 -9.86901238710743 C72.0728267366725 -9.660398111894905, 72.20861958154752 -9.45178383668238, 72.54027516184222 -8.94227180335656 M72.54027516184222 -8.94227180335656 C72.71675661828354 -8.628911106759695, 72.89323807472486 -8.315550410162832, 73.08290053493425 -7.978785506654408 M72.54027516184222 -8.94227180335656 C72.70500116807071 -8.649784098980994, 72.8697271742992 -8.357296394605427, 73.08290053493425 -7.978785506654408 M73.08290053493425 -7.978785506654408 C73.18485982047761 -7.76706486864441, 73.28681910602096 -7.555344230634412, 73.56268024702277 -6.982512668861298 M73.08290053493425 -7.978785506654408 C73.25436080562206 -7.622744585909092, 73.42582107630987 -7.266703665163776, 73.56268024702277 -6.982512668861298 M73.56268024702277 -6.982512668861298 C73.71599194752592 -6.603829804538406, 73.86930364802909 -6.225146940215514, 73.97764278035837 -5.957547188767565 M73.56268024702277 -6.982512668861298 C73.65790676300107 -6.747301333315454, 73.75313327897938 -6.51208999776961, 73.97764278035837 -5.957547188767565 M73.97764278035837 -5.957547188767565 C74.05818303147801 -5.7149727847415726, 74.13872328259764 -5.472398380715581, 74.3260829648824 -4.908100869385314 M73.97764278035837 -5.957547188767565 C74.08506199642521 -5.634017624902066, 74.19248121249205 -5.310488061036566, 74.3260829648824 -4.908100869385314 M74.3260829648824 -4.908100869385314 C74.38256686229913 -4.692703288259357, 74.43905075971584 -4.477305707133398, 74.60656898513646 -3.838486110746425 M74.3260829648824 -4.908100869385314 C74.40890270868199 -4.59227329197345, 74.49172245248158 -4.276445714561587, 74.60656898513646 -3.838486110746425 M74.60656898513646 -3.838486110746425 C74.66127848105877 -3.55756441204145, 74.71598797698107 -3.276642713336475, 74.81794826389927 -2.753098189325798 M74.60656898513646 -3.838486110746425 C74.6623338938886 -3.5521450902218294, 74.71809880264074 -3.265804069697234, 74.81794826389927 -2.753098189325798 M74.81794826389927 -2.753098189325798 C74.85241164749547 -2.4858069917185075, 74.88687503109166 -2.2185157941112164, 74.95935219837367 -1.6563971969075135 M74.81794826389927 -2.753098189325798 C74.87278577826785 -2.3277892567750884, 74.92762329263643 -1.9024803242243786, 74.95935219837367 -1.6563971969075135 M74.95935219837367 -1.6563971969075135 C74.97735709721623 -1.3759563641419175, 74.99536199605879 -1.0955155313763212, 75.03019972946187 -0.5528897131110516 M74.95935219837367 -1.6563971969075135 C74.98208106083848 -1.302376817610498, 75.0048099233033 -0.9483564383134824, 75.03019972946187 -0.5528897131110516 M75.03019972946187 -0.5528897131110516 C75.03019972946187 -0.3080417072519368, 75.03019972946187 -0.06319370139282193, 75.03019972946187 0.5528897131110474 M75.03019972946187 -0.5528897131110516 C75.03019972946187 -0.18944418092640203, 75.03019972946187 0.17400135125824756, 75.03019972946187 0.5528897131110474 M75.03019972946187 0.5528897131110474 C75.008164255252 0.8961100106443334, 74.98612878104214 1.2393303081776195, 74.95935219837367 1.6563971969075018 M75.03019972946187 0.5528897131110474 C75.0070413059794 0.9136008519934582, 74.98388288249693 1.274311990875869, 74.95935219837367 1.6563971969075018 M74.95935219837367 1.6563971969075018 C74.90797701114003 2.0548530039133266, 74.85660182390642 2.453308810919151, 74.81794826389927 2.753098189325786 M74.95935219837367 1.6563971969075018 C74.92550218130359 1.9189312448611457, 74.8916521642335 2.1814652928147895, 74.81794826389927 2.753098189325786 M74.81794826389927 2.753098189325786 C74.77515262549954 2.9728447476470117, 74.73235698709982 3.192591305968237, 74.60656898513646 3.8384861107464214 M74.81794826389927 2.753098189325786 C74.77067444289727 2.9958392688454514, 74.72340062189527 3.2385803483651165, 74.60656898513646 3.8384861107464214 M74.60656898513646 3.8384861107464214 C74.53004437062012 4.13030763187497, 74.45351975610377 4.422129153003519, 74.3260829648824 4.908100869385303 M74.60656898513646 3.8384861107464214 C74.50170443185044 4.23838010101089, 74.39683987856444 4.638274091275358, 74.3260829648824 4.908100869385303 M74.3260829648824 4.908100869385303 C74.24636272537138 5.148205529097252, 74.16664248586036 5.388310188809201, 73.97764278035837 5.9575471887675535 M74.3260829648824 4.908100869385303 C74.19856005101293 5.2921795679430526, 74.07103713714346 5.676258266500801, 73.97764278035837 5.9575471887675535 M73.97764278035837 5.9575471887675535 C73.84299027453292 6.290141481485502, 73.70833776870748 6.622735774203451, 73.56268024702277 6.982512668861292 M73.97764278035837 5.9575471887675535 C73.82309699469148 6.339278267304252, 73.6685512090246 6.721009345840949, 73.56268024702277 6.982512668861292 M73.56268024702277 6.982512668861292 C73.43997064161734 7.237321790050614, 73.3172610362119 7.4921309112399355, 73.08290053493425 7.978785506654404 M73.56268024702277 6.982512668861292 C73.40894492446022 7.301747355571378, 73.25520960189766 7.620982042281463, 73.08290053493425 7.978785506654404 M73.08290053493425 7.978785506654404 C72.90587427158972 8.2931135630756, 72.72884800824518 8.607441619496795, 72.54027516184222 8.942271803356554 M73.08290053493425 7.978785506654404 C72.89822269874308 8.306699705470566, 72.71354486255191 8.634613904286725, 72.54027516184222 8.942271803356554 M72.54027516184222 8.942271803356554 C72.34920076398635 9.235813389123171, 72.15812636613047 9.52935497488979, 71.9370338917975 9.869012387107421 M72.54027516184222 8.942271803356554 C72.32513549397473 9.272784106290842, 72.10999582610724 9.603296409225129, 71.9370338917975 9.869012387107421 M71.9370338917975 9.869012387107421 C71.74529471143744 10.125925420991223, 71.55355553107738 10.382838454875024, 71.27565557257351 10.75519908206315 M71.9370338917975 9.869012387107421 C71.72048061499045 10.159174049619496, 71.5039273381834 10.449335712131573, 71.27565557257351 10.75519908206315 M71.27565557257351 10.75519908206315 C71.05160815552505 11.01837792678747, 70.82756073847656 11.281556771511791, 70.55885794954919 11.597190357007708 M71.27565557257351 10.75519908206315 C71.09443929635239 10.968066031610707, 70.91322302013127 11.180932981158266, 70.55885794954919 11.597190357007708 M70.55885794954919 11.597190357007708 C70.26107666189961 11.904673984804292, 69.96329537425004 12.212157612600876, 69.78958649791014 12.391526289185798 M70.55885794954919 11.597190357007708 C70.27157352842066 11.89383510831254, 69.98428910729213 12.190479859617373, 69.78958649791014 12.391526289185798 M69.78958649791014 12.391526289185798 C69.60987961100058 12.55473132909339, 69.43017272409102 12.717936369000979, 68.97100231905937 13.13494278186756 M69.78958649791014 12.391526289185798 C69.53692878055833 12.620983343127843, 69.2842710632065 12.850440397069889, 68.97100231905937 13.13494278186756 M68.97100231905937 13.13494278186756 C68.6814094284276 13.365885405755927, 68.39181653779583 13.596828029644294, 68.10646915097348 13.82438497722225 M68.97100231905937 13.13494278186756 C68.67200980762732 13.373381353209732, 68.37301729619529 13.611819924551902, 68.10646915097348 13.82438497722225 M68.10646915097348 13.82438497722225 C67.77454400706074 14.055921588807886, 67.442618863148 14.28745820039352, 67.19953954588198 14.457019809384246 M68.10646915097348 13.82438497722225 C67.89000929562216 13.975378001919216, 67.67354944027085 14.12637102661618, 67.19953954588198 14.457019809384246 M67.19953954588198 14.457019809384246 C66.95614145187865 14.604569164335025, 66.71274335787534 14.752118519285805, 66.25394027206792 15.030247646128467 M67.19953954588198 14.457019809384246 C66.92820543434524 14.621504142334041, 66.65687132280851 14.785988475283837, 66.25394027206792 15.030247646128467 M66.25394027206792 15.030247646128467 C65.94269311238102 15.192625089973808, 65.63144595269411 15.355002533819146, 65.27355699977788 15.541712971316729 M66.25394027206792 15.030247646128467 C66.01662241342405 15.154056220973635, 65.77930455478017 15.277864795818802, 65.27355699977788 15.541712971316729 M65.27355699977788 15.541712971316729 C64.97191063967203 15.675242866914243, 64.67026427956617 15.808772762511756, 64.26241833416921 15.989314064218874 M65.27355699977788 15.541712971316729 C65.04722890220735 15.641901706326731, 64.8209008046368 15.742090441336734, 64.26241833416921 15.989314064218874 M64.26241833416921 15.989314064218874 C63.85541559337192 16.13909483512437, 63.44841285257463 16.288875606029865, 63.224679260907465 16.37121163593403 M64.26241833416921 15.989314064218874 C63.90927980439011 16.11927230755437, 63.55614127461101 16.24923055088986, 63.224679260907465 16.37121163593403 M63.224679260907465 16.37121163593403 C62.99909477412343 16.4381639274944, 62.773510287339384 16.50511621905477, 62.16460407243902 16.685836387423254 M63.224679260907465 16.37121163593403 C62.99309047892719 16.439945970791452, 62.76150169694692 16.508680305648877, 62.16460407243902 16.685836387423254 M62.16460407243902 16.685836387423254 C61.75624631209997 16.77904138143722, 61.34788855176092 16.872246375451184, 61.086548845098676 16.931895458095877 M62.16460407243902 16.685836387423254 C61.83359686990684 16.761386621377362, 61.502589667374664 16.83693685533147, 61.086548845098676 16.931895458095877 M61.086548845098676 16.931895458095877 C60.82919087618332 16.973503098669255, 60.57183290726796 17.015110739242633, 59.994943539057736 17.108377738450994 M61.086548845098676 16.931895458095877 C60.77794933285759 16.981787434010055, 60.4693498206165 17.031679409924234, 59.994943539057736 17.108377738450994 M59.994943539057736 17.108377738450994 C59.60532701557596 17.145963575888857, 59.21571049209419 17.183549413326716, 58.8942737946673 17.2145580249433 M59.994943539057736 17.108377738450994 C59.66024659366295 17.14066555024126, 59.32554964826816 17.172953362031524, 58.8942737946673 17.2145580249433 M58.8942737946673 17.2145580249433 C58.65531236379295 17.22222105292123, 58.416350932918604 17.229884080899165, 57.7890625 17.25 M58.8942737946673 17.2145580249433 C58.634132732262344 17.22290024248077, 58.373991669857396 17.231242460018233, 57.7890625 17.25 M57.7890625 17.25 C57.7890625 17.25, 57.7890625 17.25, 57.7890625 17.25 M57.7890625 17.25 C57.7890625 17.25, 57.7890625 17.25, 57.7890625 17.25 M57.7890625 17.25 C32.95392207182334 17.25, 8.118781643646692 17.25, -57.7890625 17.25 M57.7890625 17.25 C14.658024966682106 17.25, -28.473012566635788 17.25, -57.7890625 17.25 M-57.7890625 17.25 C-58.19737117348708 17.236906335565887, -58.605679846974155 17.22381267113178, -58.89427379466729 17.2145580249433 M-57.7890625 17.25 C-58.060381203757416 17.24129933726032, -58.331699907514825 17.232598674520638, -58.89427379466729 17.2145580249433 M-58.89427379466729 17.2145580249433 C-59.25541597971515 17.179719072688755, -59.61655816476302 17.144880120434213, -59.99494353905773 17.108377738450994 M-58.89427379466729 17.2145580249433 C-59.30861324144358 17.174587196828885, -59.72295268821987 17.134616368714465, -59.99494353905773 17.108377738450994 M-59.99494353905773 17.108377738450994 C-60.35886032185295 17.049542495225463, -60.72277710464817 16.990707251999932, -61.08654884509867 16.931895458095877 M-59.99494353905773 17.108377738450994 C-60.219091874470735 17.072139173877723, -60.44324020988373 17.035900609304452, -61.08654884509867 16.931895458095877 M-61.08654884509867 16.931895458095877 C-61.32444410892869 16.87759741653835, -61.562339372758714 16.823299374980827, -62.164604072439 16.685836387423258 M-61.08654884509867 16.931895458095877 C-61.47949057242682 16.84220907301763, -61.87243229975497 16.75252268793939, -62.164604072439 16.685836387423258 M-62.164604072439 16.685836387423258 C-62.463054084298236 16.597257990499518, -62.76150409615748 16.508679593575778, -63.22467926090745 16.37121163593404 M-62.164604072439 16.685836387423258 C-62.43414217327886 16.60583889392835, -62.70368027411872 16.525841400433446, -63.22467926090745 16.37121163593404 M-63.22467926090745 16.37121163593404 C-63.44176158062491 16.29132333559105, -63.65884390034237 16.211435035248055, -64.26241833416921 15.989314064218876 M-63.22467926090745 16.37121163593404 C-63.44926961358511 16.288560310058198, -63.67385996626276 16.20590898418236, -64.26241833416921 15.989314064218876 M-64.26241833416921 15.989314064218876 C-64.63488155364865 15.824435645684174, -65.00734477312808 15.659557227149472, -65.27355699977788 15.541712971316732 M-64.26241833416921 15.989314064218876 C-64.52746204644767 15.871987075035582, -64.79250575872612 15.754660085852286, -65.27355699977788 15.541712971316732 M-65.27355699977788 15.541712971316732 C-65.64812323941798 15.346302004017618, -66.02268947905809 15.150891036718503, -66.25394027206792 15.03024764612847 M-65.27355699977788 15.541712971316732 C-65.49690278162083 15.425193619989066, -65.72024856346378 15.3086742686614, -66.25394027206792 15.03024764612847 M-66.25394027206792 15.03024764612847 C-66.5212027241355 14.868231577076596, -66.78846517620309 14.70621550802472, -67.19953954588195 14.457019809384258 M-66.25394027206792 15.03024764612847 C-66.5526844915316 14.849147144673687, -66.85142871099526 14.668046643218903, -67.19953954588195 14.457019809384258 M-67.19953954588195 14.457019809384258 C-67.54062530072652 14.219093152169041, -67.88171105557109 13.981166494953825, -68.10646915097348 13.824384977222254 M-67.19953954588195 14.457019809384258 C-67.46706630486507 14.27040472336438, -67.73459306384818 14.083789637344502, -68.10646915097348 13.824384977222254 M-68.10646915097348 13.824384977222254 C-68.44498668468798 13.554426252414842, -68.78350421840247 13.284467527607433, -68.97100231905935 13.134942781867572 M-68.10646915097348 13.824384977222254 C-68.34940048573512 13.630653702424162, -68.59233182049677 13.43692242762607, -68.97100231905935 13.134942781867572 M-68.97100231905935 13.134942781867572 C-69.23517031886047 12.895032393950455, -69.4993383186616 12.655122006033338, -69.78958649791014 12.391526289185808 M-68.97100231905935 13.134942781867572 C-69.28457786963757 12.850161763586845, -69.59815342021581 12.565380745306118, -69.78958649791014 12.391526289185808 M-69.78958649791014 12.391526289185808 C-70.06283792107182 12.109371760412303, -70.33608934423351 11.827217231638796, -70.55885794954919 11.597190357007715 M-69.78958649791014 12.391526289185808 C-70.04293438621177 12.129923794265915, -70.29628227451339 11.868321299346023, -70.55885794954919 11.597190357007715 M-70.55885794954919 11.597190357007715 C-70.70419006084212 11.426474989451638, -70.84952217213505 11.255759621895558, -71.27565557257351 10.755199082063156 M-70.55885794954919 11.597190357007715 C-70.80454587221898 11.308591343000938, -71.05023379488878 11.019992328994162, -71.27565557257351 10.755199082063156 M-71.27565557257351 10.755199082063156 C-71.45747699112374 10.511574945477836, -71.63929840967397 10.267950808892516, -71.93703389179748 9.869012387107432 M-71.27565557257351 10.755199082063156 C-71.43820409471536 10.537398870868085, -71.6007526168572 10.319598659673014, -71.93703389179748 9.869012387107432 M-71.93703389179748 9.869012387107432 C-72.10749913805084 9.607131992534365, -72.2779643843042 9.3452515979613, -72.54027516184222 8.942271803356567 M-71.93703389179748 9.869012387107432 C-72.12715189035515 9.576940087492037, -72.31726988891282 9.28486778787664, -72.54027516184222 8.942271803356567 M-72.54027516184222 8.942271803356567 C-72.74018727049797 8.587307611142165, -72.94009937915372 8.232343418927764, -73.08290053493425 7.97878550665441 M-72.54027516184222 8.942271803356567 C-72.73223724851172 8.601423680205762, -72.92419933518124 8.260575557054956, -73.08290053493425 7.97878550665441 M-73.08290053493425 7.97878550665441 C-73.21840946347075 7.69739831712178, -73.35391839200726 7.41601112758915, -73.56268024702277 6.9825126688612995 M-73.08290053493425 7.97878550665441 C-73.23264838606292 7.667830889695019, -73.38239623719157 7.356876272735629, -73.56268024702277 6.9825126688612995 M-73.56268024702277 6.9825126688612995 C-73.65094716903015 6.764491664978227, -73.73921409103752 6.546470661095154, -73.97764278035837 5.957547188767567 M-73.56268024702277 6.9825126688612995 C-73.65102040375413 6.764310773794103, -73.73936056048548 6.546108878726906, -73.97764278035837 5.957547188767567 M-73.97764278035837 5.957547188767567 C-74.08931334839252 5.621213230137475, -74.20098391642668 5.284879271507384, -74.3260829648824 4.90810086938531 M-73.97764278035837 5.957547188767567 C-74.0761530057958 5.660850085222967, -74.17466323123323 5.364152981678369, -74.3260829648824 4.90810086938531 M-74.3260829648824 4.90810086938531 C-74.4324035948875 4.502654227523328, -74.53872422489259 4.097207585661346, -74.60656898513645 3.8384861107464276 M-74.3260829648824 4.90810086938531 C-74.43399884110578 4.496570862308971, -74.54191471732913 4.0850408552326325, -74.60656898513645 3.8384861107464276 M-74.60656898513645 3.8384861107464276 C-74.67271671631492 3.4988314914729215, -74.7388644474934 3.159176872199415, -74.81794826389927 2.7530981893258 M-74.60656898513645 3.8384861107464276 C-74.6819254766118 3.4515464536206677, -74.75728196808714 3.0646067964949073, -74.81794826389927 2.7530981893258 M-74.81794826389927 2.7530981893258 C-74.85183264570453 2.4902976152721754, -74.8857170275098 2.227497041218551, -74.95935219837367 1.6563971969075233 M-74.81794826389927 2.7530981893258 C-74.8738940557038 2.3191936758360177, -74.92983984750833 1.8852891623462353, -74.95935219837367 1.6563971969075233 M-74.95935219837367 1.6563971969075233 C-74.9830635756689 1.2870733560551724, -75.00677495296411 0.9177495152028212, -75.03019972946187 0.5528897131110537 M-74.95935219837367 1.6563971969075233 C-74.98216016687387 1.301144677256156, -75.00496813537406 0.9458921576047883, -75.03019972946187 0.5528897131110537 M-75.03019972946187 0.5528897131110537 C-75.03019972946187 0.22669393403396204, -75.03019972946187 -0.09950184504312964, -75.03019972946187 -0.5528897131110454 M-75.03019972946187 0.5528897131110537 C-75.03019972946187 0.3003073709516739, -75.03019972946187 0.04772502879229412, -75.03019972946187 -0.5528897131110454 M-75.03019972946187 -0.5528897131110454 C-75.01260104973414 -0.8270033552688497, -74.99500237000643 -1.101116997426654, -74.95935219837367 -1.6563971969074995 M-75.03019972946187 -0.5528897131110454 C-75.00724995514756 -0.9103509727807356, -74.98430018083326 -1.2678122324504257, -74.95935219837367 -1.6563971969074995 M-74.95935219837367 -1.6563971969074995 C-74.9134583049642 -2.0123411714170234, -74.86756441155474 -2.3682851459265475, -74.81794826389927 -2.753098189325792 M-74.95935219837367 -1.6563971969074995 C-74.91437197899899 -2.0052548960285317, -74.8693917596243 -2.3541125951495636, -74.81794826389927 -2.753098189325792 M-74.81794826389927 -2.753098189325792 C-74.75260514678277 -3.0886212854462896, -74.68726202966629 -3.424144381566787, -74.60656898513646 -3.8384861107464197 M-74.81794826389927 -2.753098189325792 C-74.75278686181353 -3.087688217168815, -74.68762545972781 -3.422278245011838, -74.60656898513646 -3.8384861107464197 M-74.60656898513646 -3.8384861107464197 C-74.51583406396476 -4.184497689937736, -74.42509914279304 -4.530509269129052, -74.3260829648824 -4.908100869385301 M-74.60656898513646 -3.8384861107464197 C-74.5344892265114 -4.113357469948798, -74.46240946788633 -4.388228829151176, -74.3260829648824 -4.908100869385301 M-74.3260829648824 -4.908100869385301 C-74.21683560800528 -5.23713650209665, -74.10758825112818 -5.566172134808, -73.97764278035837 -5.957547188767545 M-74.3260829648824 -4.908100869385301 C-74.2408653903828 -5.164762626201512, -74.15564781588317 -5.421424383017722, -73.97764278035837 -5.957547188767545 M-73.97764278035837 -5.957547188767545 C-73.8664530018991 -6.232188091270062, -73.75526322343983 -6.506828993772579, -73.56268024702277 -6.982512668861291 M-73.97764278035837 -5.957547188767545 C-73.85230925062085 -6.267123430378178, -73.72697572088333 -6.576699671988813, -73.56268024702277 -6.982512668861291 M-73.56268024702277 -6.982512668861291 C-73.45996216859488 -7.195808956531593, -73.357244090167 -7.409105244201895, -73.08290053493425 -7.978785506654402 M-73.56268024702277 -6.982512668861291 C-73.4333911042247 -7.250984340225976, -73.30410196142662 -7.519456011590662, -73.08290053493425 -7.978785506654402 M-73.08290053493425 -7.978785506654402 C-72.89564984223881 -8.311268072723884, -72.70839914954337 -8.643750638793364, -72.54027516184222 -8.942271803356562 M-73.08290053493425 -7.978785506654402 C-72.94096569671441 -8.230805184374603, -72.79903085849456 -8.482824862094803, -72.54027516184222 -8.942271803356562 M-72.54027516184222 -8.942271803356562 C-72.31773490492607 -9.284153398405984, -72.09519464800994 -9.626034993455404, -71.93703389179748 -9.869012387107427 M-72.54027516184222 -8.942271803356562 C-72.33766917373985 -9.25352900840734, -72.13506318563749 -9.564786213458119, -71.93703389179748 -9.869012387107427 M-71.93703389179748 -9.869012387107427 C-71.70269021941967 -10.183011558945953, -71.46834654704185 -10.497010730784478, -71.27565557257351 -10.75519908206315 M-71.93703389179748 -9.869012387107427 C-71.70329751448054 -10.18219783889011, -71.46956113716358 -10.495383290672793, -71.27565557257351 -10.75519908206315 M-71.27565557257351 -10.75519908206315 C-71.06756584084428 -10.999633121593467, -70.85947610911506 -11.244067161123784, -70.5588579495492 -11.597190357007708 M-71.27565557257351 -10.75519908206315 C-71.09973287002248 -10.961847898764953, -70.92381016747144 -11.168496715466754, -70.5588579495492 -11.597190357007708 M-70.5588579495492 -11.597190357007708 C-70.31263377695299 -11.851437030593818, -70.06640960435679 -12.105683704179928, -69.78958649791015 -12.39152628918579 M-70.5588579495492 -11.597190357007708 C-70.39505796266465 -11.766327291695035, -70.2312579757801 -11.935464226382361, -69.78958649791015 -12.39152628918579 M-69.78958649791015 -12.39152628918579 C-69.53357833015235 -12.62402613353849, -69.27757016239455 -12.856525977891188, -68.97100231905937 -13.134942781867558 M-69.78958649791015 -12.39152628918579 C-69.53717759347265 -12.62075737782229, -69.28476868903513 -12.849988466458788, -68.97100231905937 -13.134942781867558 M-68.97100231905937 -13.134942781867558 C-68.67548270680106 -13.3706118085364, -68.37996309454276 -13.606280835205244, -68.10646915097348 -13.824384977222248 M-68.97100231905937 -13.134942781867558 C-68.70530407455931 -13.346830061329118, -68.43960583005926 -13.55871734079068, -68.10646915097348 -13.824384977222248 M-68.10646915097348 -13.824384977222248 C-67.90210736437322 -13.966938912875426, -67.69774557777298 -14.109492848528605, -67.19953954588198 -14.457019809384244 M-68.10646915097348 -13.824384977222248 C-67.7973427502983 -14.040018172467052, -67.4882163496231 -14.255651367711858, -67.19953954588198 -14.457019809384244 M-67.19953954588198 -14.457019809384244 C-66.96880207854439 -14.59689421804816, -66.7380646112068 -14.736768626712074, -66.25394027206792 -15.030247646128466 M-67.19953954588198 -14.457019809384244 C-66.82525890854865 -14.68391093125287, -66.45097827121533 -14.910802053121497, -66.25394027206792 -15.030247646128466 M-66.25394027206792 -15.030247646128466 C-66.0449405358511 -15.139282674642063, -65.83594079963429 -15.248317703155658, -65.27355699977788 -15.541712971316729 M-66.25394027206792 -15.030247646128466 C-65.93772794627536 -15.19521541395079, -65.62151562048278 -15.360183181773111, -65.27355699977788 -15.541712971316729 M-65.27355699977788 -15.541712971316729 C-64.88134297788022 -15.715334484195239, -64.48912895598257 -15.888955997073749, -64.26241833416921 -15.98931406421887 M-65.27355699977788 -15.541712971316729 C-65.01355483121495 -15.656808218649239, -64.75355266265203 -15.771903465981747, -64.26241833416921 -15.98931406421887 M-64.26241833416921 -15.98931406421887 C-63.87906437647402 -16.13039186433584, -63.495710418778835 -16.271469664452813, -63.22467926090747 -16.37121163593403 M-64.26241833416921 -15.98931406421887 C-63.96044680296212 -16.100442379097316, -63.65847527175502 -16.211570693975766, -63.22467926090747 -16.37121163593403 M-63.22467926090747 -16.37121163593403 C-62.92052772242634 -16.461482216031225, -62.61637618394522 -16.551752796128415, -62.16460407243902 -16.68583638742325 M-63.22467926090747 -16.37121163593403 C-62.85375657811972 -16.48129954117254, -62.48283389533198 -16.59138744641105, -62.16460407243902 -16.68583638742325 M-62.16460407243902 -16.68583638742325 C-61.88797126939605 -16.748976019520065, -61.61133846635308 -16.812115651616878, -61.086548845098676 -16.931895458095877 M-62.16460407243902 -16.68583638742325 C-61.78018556672358 -16.773577402787613, -61.39576706100815 -16.861318418151974, -61.086548845098676 -16.931895458095877 M-61.086548845098676 -16.931895458095877 C-60.695855132825834 -16.99505978762116, -60.30516142055299 -17.058224117146445, -59.99494353905774 -17.108377738450994 M-61.086548845098676 -16.931895458095877 C-60.67830900914341 -16.997896508825914, -60.270069173188155 -17.063897559555947, -59.99494353905774 -17.108377738450994 M-59.99494353905774 -17.108377738450994 C-59.67966831111284 -17.1387919605169, -59.36439308316794 -17.16920618258281, -58.8942737946673 -17.2145580249433 M-59.99494353905774 -17.108377738450994 C-59.68410218826191 -17.13836422972085, -59.37326083746608 -17.168350720990702, -58.8942737946673 -17.2145580249433 M-58.8942737946673 -17.2145580249433 C-58.53548568673524 -17.226063661225997, -58.17669757880318 -17.237569297508692, -57.78906250000001 -17.25 M-58.8942737946673 -17.2145580249433 C-58.65470857205538 -17.22224041534705, -58.41514334944345 -17.229922805750796, -57.78906250000001 -17.25 M-57.78906250000001 -17.25 C-57.78906250000001 -17.25, -57.7890625 -17.25, -57.7890625 -17.25 M-57.78906250000001 -17.25 C-57.78906250000001 -17.25, -57.7890625 -17.25, -57.7890625 -17.25" stroke="#E8833A" stroke-width="2" fill="none" stroke-dasharray="0 0" style="fill:#FFE9D6 !important;stroke:#E8833A !important;stroke-width:2px !important"/></g><g class="label" style="color:#7A3E12 !important" transform="translate(-63.2265625, -9.75)"><rect/><foreignObject width="126.453125" height="19.5"><div style="color: rgb(122, 62, 18) !important; display: table-cell; white-space: nowrap; line-height: 1.5; max-width: 200px; text-align: center;" xmlns="http://www.w3.org/1999/xhtml"><span style="color:#7A3E12 !important" class="nodeLabel"><p>FUSED AGENT KERNEL</p></span></div></foreignObject></g></g><g class="node default note" id="my-svg-flowchart-note-14" data-look="classic" transform="translate(1173, 447.75)"><rect class="basic label-container" style="fill:#F7F9FB !important;stroke:#AFC0CE !important;stroke-width:1px !important" x="-130" y="-63.75" width="260" height="127.5"/><g class="label" style="color:#46586A !important" transform="translate(-100, -48.75)"><rect/><foreignObject width="200" height="97.5"><div style="color: rgb(70, 88, 106) !important; display: table; white-space: break-spaces; line-height: 1.5; max-width: 200px; text-align: center; width: 200px;" xmlns="http://www.w3.org/1999/xhtml"><span style="color:#46586A !important" class="nodeLabel"><p>combined vs naive ~6x = engine x2 . prefix x1.3 . fused-residual x2.3<br />residual GROWS as the agent loop destroys the prefix</p></span></div></foreignObject></g></g></g></g></g><defs><filter id="my-svg-drop-shadow" height="130%" width="130%"><feDropShadow dx="4" dy="4" stdDeviation="0" flood-opacity="0.06" flood-color="#000000"/></filter></defs><defs><filter id="my-svg-drop-shadow-small" height="150%" width="150%"><feDropShadow dx="2" dy="2" stdDeviation="0" flood-opacity="0.06" flood-color="#000000"/></filter></defs><linearGradient id="my-svg-gradient" gradientUnits="objectBoundingBox" x1="0%" y1="0%" x2="100%" y2="0%"><stop offset="0%" stop-color="hsl(40.5882352941, 60%, 83.3333333333%)" stop-opacity="1"/><stop offset="100%" stop-color="hsl(-79.4117647059, 60%, 83.3333333333%)" stop-opacity="1"/></linearGradient></svg>