<svg xmlns="http://www.w3.org/2000/svg" width="920" height="425" viewBox="0 0 920 425" font-size="12" style="font-family:ui-monospace,SFMono-Regular,Menlo,Consolas,monospace;">
<rect width="920" height="425" fill="#ffffff"/>
<text x="20" y="34" fill="#57606a" font-size="13" font-weight="700" letter-spacing="0.06em">RSI LOOP — KEEP OR REVERT, CYCLE BY CYCLE</text>
<rect x="403" y="22" width="192" height="17" rx="4" fill="none" stroke="#d0d7de"/>
<text x="499" y="34" fill="#6e7781" font-size="10" text-anchor="middle" letter-spacing="0.04em">NON-FORGEABLE KEEP-BIT</text>
<rect x="20" y="50" width="11" height="11" rx="2" fill="#6e7781"/>
<text x="36" y="60" fill="#57606a" font-size="10">baseline (lru_hit_rate, the bar to beat)</text>
<rect x="313" y="50" width="11" height="11" rx="2" fill="#1a7f37"/>
<text x="329" y="60" fill="#57606a" font-size="10">KEEP — measured gain, suite green, truth clean</text>
<rect x="606" y="50" width="11" height="11" rx="2" fill="#bf8700"/>
<text x="622" y="60" fill="#57606a" font-size="10">REVERT — no non-forgeable gain</text>
<rect x="20" y="68" width="11" height="11" rx="2" fill="#bf3989"/>
<text x="36" y="78" fill="#57606a" font-size="10">ESCALATE — breaker tripped</text>
<text x="98" y="111" fill="#57606a" font-size="11" text-anchor="end">cycle 1: cache=4</text>
<clipPath id="clip0"><rect x="108" y="96" width="678" height="22" rx="6"/></clipPath>
<rect x="108" y="96" width="678" height="22" rx="6" fill="#f0f3f6" stroke="#d0d7de"/>
<g clip-path="url(#clip0)">
<rect x="108.00" y="96" width="343.29" height="22" fill="#6e7781" stroke="#0f1117" stroke-opacity="0.16" stroke-width="0.6"/>
<rect x="451.29" y="96" width="128.73" height="22" fill="#1a7f37" stroke="#0f1117" stroke-opacity="0.16" stroke-width="0.6"/>
</g>
<text x="900" y="111" fill="#6e7781" font-size="10" text-anchor="end">0.550 kept</text>
<text x="98" y="142" fill="#57606a" font-size="11" text-anchor="end">cycle 2: cache=8</text>
<clipPath id="clip1"><rect x="108" y="127" width="678" height="22" rx="6"/></clipPath>
<rect x="108" y="127" width="678" height="22" rx="6" fill="#f0f3f6" stroke="#d0d7de"/>
<g clip-path="url(#clip1)">
<rect x="108.00" y="127" width="472.03" height="22" fill="#6e7781" stroke="#0f1117" stroke-opacity="0.16" stroke-width="0.6"/>
<rect x="580.03" y="127" width="102.99" height="22" fill="#1a7f37" stroke="#0f1117" stroke-opacity="0.16" stroke-width="0.6"/>
</g>
<text x="900" y="142" fill="#6e7781" font-size="10" text-anchor="end">0.670 kept</text>
<text x="98" y="173" fill="#57606a" font-size="11" text-anchor="end">cycle 3: cache=12</text>
<clipPath id="clip2"><rect x="108" y="158" width="678" height="22" rx="6"/></clipPath>
<rect x="108" y="158" width="678" height="22" rx="6" fill="#f0f3f6" stroke="#d0d7de"/>
<g clip-path="url(#clip2)">
<rect x="108.00" y="158" width="575.01" height="22" fill="#6e7781" stroke="#0f1117" stroke-opacity="0.16" stroke-width="0.6"/>
<rect x="683.01" y="158" width="60.08" height="22" fill="#1a7f37" stroke="#0f1117" stroke-opacity="0.16" stroke-width="0.6"/>
</g>
<text x="900" y="173" fill="#6e7781" font-size="10" text-anchor="end">0.740 kept</text>
<text x="98" y="204" fill="#57606a" font-size="11" text-anchor="end">cycle 4: cache=16</text>
<clipPath id="clip3"><rect x="108" y="189" width="678" height="22" rx="6"/></clipPath>
<rect x="108" y="189" width="678" height="22" rx="6" fill="#f0f3f6" stroke="#d0d7de"/>
<g clip-path="url(#clip3)">
<rect x="108.00" y="189" width="617.92" height="22" fill="#6e7781" stroke="#0f1117" stroke-opacity="0.16" stroke-width="0.6"/>
<rect x="725.92" y="189" width="17.16" height="22" fill="#bf8700" stroke="#0f1117" stroke-opacity="0.16" stroke-width="0.6"/>
</g>
<text x="900" y="204" fill="#6e7781" font-size="10" text-anchor="end">0.720 reverted</text>
<text x="98" y="235" fill="#57606a" font-size="11" text-anchor="end">cycle 5: cache=20</text>
<clipPath id="clip4"><rect x="108" y="220" width="678" height="22" rx="6"/></clipPath>
<rect x="108" y="220" width="678" height="22" rx="6" fill="#f0f3f6" stroke="#d0d7de"/>
<g clip-path="url(#clip4)">
<rect x="108.00" y="220" width="635.09" height="22" fill="#6e7781" stroke="#0f1117" stroke-opacity="0.16" stroke-width="0.6"/>
<rect x="743.09" y="220" width="42.91" height="22" fill="#1a7f37" stroke="#0f1117" stroke-opacity="0.16" stroke-width="0.6"/>
</g>
<text x="900" y="235" fill="#6e7781" font-size="10" text-anchor="end">0.790 kept</text>
<text x="98" y="266" fill="#57606a" font-size="11" text-anchor="end">cycle 6: cache=24</text>
<clipPath id="clip5"><rect x="108" y="251" width="678" height="22" rx="6"/></clipPath>
<rect x="108" y="251" width="678" height="22" rx="6" fill="#f0f3f6" stroke="#d0d7de"/>
<g clip-path="url(#clip5)">
<rect x="108.00" y="251" width="678.00" height="22" fill="#6e7781" stroke="#0f1117" stroke-opacity="0.16" stroke-width="0.6"/>
</g>
<text x="900" y="266" fill="#6e7781" font-size="10" text-anchor="end">0.790 reverted</text>
<text x="98" y="297" fill="#57606a" font-size="11" text-anchor="end">cycle 7: cache=28</text>
<clipPath id="clip6"><rect x="108" y="282" width="678" height="22" rx="6"/></clipPath>
<rect x="108" y="282" width="678" height="22" rx="6" fill="#f0f3f6" stroke="#d0d7de"/>
<g clip-path="url(#clip6)">
<rect x="108.00" y="282" width="678.00" height="22" fill="#6e7781" stroke="#0f1117" stroke-opacity="0.16" stroke-width="0.6"/>
</g>
<text x="900" y="297" fill="#6e7781" font-size="10" text-anchor="end">0.790 reverted</text>
<text x="20" y="327" fill="#57606a" font-size="11">Each row is one recursive-self-improvement cycle: a candidate is measured in an isolated worktree, and KEPT only when a</text>
<text x="20" y="343" fill="#57606a" font-size="11">witness the author did not write confirms a strictly-measured gain (lru_hit_rate, higher is better) with the suite green and</text>
<text x="20" y="359" fill="#57606a" font-size="11">the truth syscall clean — else REVERTed; a streak of non-keeps trips the breaker to ESCALATE. The coloured band over the</text>
<text x="20" y="375" fill="#57606a" font-size="11">shared baseline floor is the contested delta, tinted by the verdict. Same renderer as the context tape — a different</text>
<text x="20" y="391" fill="#57606a" font-size="11">producer.</text>
</svg>