<svg id="my-svg" width="548" height="1419" xmlns="http://www.w3.org/2000/svg" xmlns:xlink="http://www.w3.org/1999/xlink" class="flowchart" style="max-width: 548.402px; background-color: white;" viewBox="0 0 548.40185546875 1419.426513671875" role="graphics-document document" aria-roledescription="flowchart-v2"><style>#my-svg{font-size:14px;fill:#1B3A66;}@keyframes edge-animation-frame{from{stroke-dashoffset:0;}}@keyframes dash{to{stroke-dashoffset:0;}}#my-svg .edge-animation-slow{stroke-dasharray:9,5!important;stroke-dashoffset:900;animation:dash 50s linear infinite;stroke-linecap:round;}#my-svg .edge-animation-fast{stroke-dasharray:9,5!important;stroke-dashoffset:900;animation:dash 20s linear infinite;stroke-linecap:round;}#my-svg .error-icon{fill:hsl(34.8387096774, 79.4871794872%, 97.3529411765%);}#my-svg .error-text{fill:rgb(1.3846153846, 5.8846153846, 12.1153846153);stroke:rgb(1.3846153846, 5.8846153846, 12.1153846153);}#my-svg .edge-thickness-normal{stroke-width:1px;}#my-svg .edge-thickness-thick{stroke-width:3.5px;}#my-svg .edge-pattern-solid{stroke-dasharray:0;}#my-svg .edge-thickness-invisible{stroke-width:0;fill:none;}#my-svg .edge-pattern-dashed{stroke-dasharray:3;}#my-svg .edge-pattern-dotted{stroke-dasharray:2;}#my-svg .marker{fill:#5B6B7B;stroke:#5B6B7B;}#my-svg .marker.cross{stroke:#5B6B7B;}#my-svg svg{font-size:14px;}#my-svg p{margin:0;}#my-svg .label{color:#1B3A66;}#my-svg .cluster-label text{fill:rgb(1.3846153846, 5.8846153846, 12.1153846153);}#my-svg .cluster-label span{color:rgb(1.3846153846, 5.8846153846, 12.1153846153);}#my-svg .cluster-label span p{background-color:transparent;}#my-svg .label text,#my-svg span{fill:#1B3A66;color:#1B3A66;}#my-svg .node rect,#my-svg .node circle,#my-svg .node ellipse,#my-svg .node polygon,#my-svg .node path{fill:#DCE9FB;stroke:#3B6FB5;stroke-width:1px;}#my-svg .rough-node .label text,#my-svg .node .label text,#my-svg .image-shape .label,#my-svg .icon-shape .label{text-anchor:middle;}#my-svg .node .katex path{fill:#000;stroke:#000;stroke-width:1px;}#my-svg .rough-node .label,#my-svg .node .label,#my-svg .image-shape .label,#my-svg .icon-shape .label{text-align:center;}#my-svg .node.clickable{cursor:pointer;}#my-svg .root .anchor path{fill:#5B6B7B!important;stroke-width:0;stroke:#5B6B7B;}#my-svg .arrowheadPath{fill:#0b0b0b;}#my-svg .edgePath .path{stroke:#5B6B7B;stroke-width:1px;}#my-svg .flowchart-link{stroke:#5B6B7B;fill:none;}#my-svg .edgeLabel{background-color:hsl(94.8387096774, 79.4871794872%, 92.3529411765%);text-align:center;}#my-svg .edgeLabel p{background-color:hsl(94.8387096774, 79.4871794872%, 92.3529411765%);}#my-svg .edgeLabel rect{opacity:0.5;background-color:hsl(94.8387096774, 79.4871794872%, 92.3529411765%);fill:hsl(94.8387096774, 79.4871794872%, 92.3529411765%);}#my-svg .labelBkg{background-color:rgba(233.0000000001, 251, 220.0000000001, 0.5);}#my-svg .cluster rect{fill:#F7F9FB;stroke:#AFC0CE;stroke-width:1px;}#my-svg .cluster text{fill:rgb(1.3846153846, 5.8846153846, 12.1153846153);}#my-svg .cluster span{color:rgb(1.3846153846, 5.8846153846, 12.1153846153);}#my-svg div.mermaidTooltip{position:absolute;text-align:center;max-width:200px;padding:2px;font-size:12px;background:hsl(34.8387096774, 79.4871794872%, 97.3529411765%);border:1px solid hsl(34.8387096774, 39.4871794872%, 87.3529411765%);border-radius:2px;pointer-events:none;z-index:100;}#my-svg .flowchartTitleText{text-anchor:middle;font-size:18px;fill:#1B3A66;}#my-svg rect.text{fill:none;stroke-width:0;}#my-svg .icon-shape,#my-svg .image-shape{background-color:hsl(94.8387096774, 79.4871794872%, 92.3529411765%);text-align:center;}#my-svg .icon-shape p,#my-svg .image-shape p{background-color:hsl(94.8387096774, 79.4871794872%, 92.3529411765%);padding:2px;}#my-svg .icon-shape .label rect,#my-svg .image-shape .label rect{opacity:0.5;background-color:hsl(94.8387096774, 79.4871794872%, 92.3529411765%);fill:hsl(94.8387096774, 79.4871794872%, 92.3529411765%);}#my-svg .label-icon{display:inline-block;height:1em;overflow:visible;vertical-align:-0.125em;}#my-svg .node .label-icon path{fill:currentColor;stroke:revert;stroke-width:revert;}#my-svg .node .neo-node{stroke:#3B6FB5;}#my-svg [data-look="neo"].node rect,#my-svg [data-look="neo"].cluster rect,#my-svg [data-look="neo"].node polygon{stroke:url(#my-svg-gradient);filter:drop-shadow( 1px 2px 2px rgba(185,185,185,1));}#my-svg [data-look="neo"].node path{stroke:url(#my-svg-gradient);stroke-width:1px;}#my-svg [data-look="neo"].node .outer-path{filter:drop-shadow( 1px 2px 2px rgba(185,185,185,1));}#my-svg [data-look="neo"].node .neo-line path{stroke:#3B6FB5;filter:none;}#my-svg [data-look="neo"].node circle{stroke:url(#my-svg-gradient);filter:drop-shadow( 1px 2px 2px rgba(185,185,185,1));}#my-svg [data-look="neo"].node circle .state-start{fill:#000000;}#my-svg [data-look="neo"].icon-shape .icon{fill:url(#my-svg-gradient);filter:drop-shadow( 1px 2px 2px rgba(185,185,185,1));}#my-svg [data-look="neo"].icon-shape .icon-neo path{stroke:url(#my-svg-gradient);filter:drop-shadow( 1px 2px 2px rgba(185,185,185,1));}#my-svg :root{--mermaid-font-family:"trebuchet ms",verdana,arial,sans-serif;}#my-svg .untrusted rect{fill:rgb(255, 233, 214)!important;stroke:rgb(232, 131, 58)!important;stroke-width:2px!important;color:rgb(122, 62, 18)!important;}#my-svg .untrusted polygon{fill:rgb(255, 233, 214)!important;stroke:rgb(232, 131, 58)!important;stroke-width:2px!important;color:rgb(122, 62, 18)!important;}#my-svg .untrusted ellipse{fill:rgb(255, 233, 214)!important;stroke:rgb(232, 131, 58)!important;stroke-width:2px!important;color:rgb(122, 62, 18)!important;}#my-svg .untrusted circle{fill:rgb(255, 233, 214)!important;stroke:rgb(232, 131, 58)!important;stroke-width:2px!important;color:rgb(122, 62, 18)!important;}#my-svg .untrusted path{fill:rgb(255, 233, 214)!important;stroke:rgb(232, 131, 58)!important;stroke-width:2px!important;color:rgb(122, 62, 18)!important;}#my-svg .untrusted tspan{fill:rgb(122, 62, 18)!important;}#my-svg .kernel rect{fill:rgb(220, 233, 251)!important;stroke:rgb(59, 111, 181)!important;stroke-width:2px!important;color:rgb(27, 58, 102)!important;}#my-svg .kernel polygon{fill:rgb(220, 233, 251)!important;stroke:rgb(59, 111, 181)!important;stroke-width:2px!important;color:rgb(27, 58, 102)!important;}#my-svg .kernel ellipse{fill:rgb(220, 233, 251)!important;stroke:rgb(59, 111, 181)!important;stroke-width:2px!important;color:rgb(27, 58, 102)!important;}#my-svg .kernel circle{fill:rgb(220, 233, 251)!important;stroke:rgb(59, 111, 181)!important;stroke-width:2px!important;color:rgb(27, 58, 102)!important;}#my-svg .kernel path{fill:rgb(220, 233, 251)!important;stroke:rgb(59, 111, 181)!important;stroke-width:2px!important;color:rgb(27, 58, 102)!important;}#my-svg .kernel tspan{fill:rgb(27, 58, 102)!important;}#my-svg .gate rect{fill:rgb(255, 243, 204)!important;stroke:rgb(201, 162, 39)!important;stroke-width:2px!important;color:rgb(107, 84, 16)!important;}#my-svg .gate polygon{fill:rgb(255, 243, 204)!important;stroke:rgb(201, 162, 39)!important;stroke-width:2px!important;color:rgb(107, 84, 16)!important;}#my-svg .gate ellipse{fill:rgb(255, 243, 204)!important;stroke:rgb(201, 162, 39)!important;stroke-width:2px!important;color:rgb(107, 84, 16)!important;}#my-svg .gate circle{fill:rgb(255, 243, 204)!important;stroke:rgb(201, 162, 39)!important;stroke-width:2px!important;color:rgb(107, 84, 16)!important;}#my-svg .gate path{fill:rgb(255, 243, 204)!important;stroke:rgb(201, 162, 39)!important;stroke-width:2px!important;color:rgb(107, 84, 16)!important;}#my-svg .gate tspan{fill:rgb(107, 84, 16)!important;}#my-svg .pass rect{fill:rgb(219, 243, 225)!important;stroke:rgb(63, 164, 95)!important;stroke-width:2px!important;color:rgb(28, 82, 48)!important;}#my-svg .pass polygon{fill:rgb(219, 243, 225)!important;stroke:rgb(63, 164, 95)!important;stroke-width:2px!important;color:rgb(28, 82, 48)!important;}#my-svg .pass ellipse{fill:rgb(219, 243, 225)!important;stroke:rgb(63, 164, 95)!important;stroke-width:2px!important;color:rgb(28, 82, 48)!important;}#my-svg .pass circle{fill:rgb(219, 243, 225)!important;stroke:rgb(63, 164, 95)!important;stroke-width:2px!important;color:rgb(28, 82, 48)!important;}#my-svg .pass path{fill:rgb(219, 243, 225)!important;stroke:rgb(63, 164, 95)!important;stroke-width:2px!important;color:rgb(28, 82, 48)!important;}#my-svg .pass tspan{fill:rgb(28, 82, 48)!important;}#my-svg .deny rect{fill:rgb(251, 221, 221)!important;stroke:rgb(201, 69, 63)!important;stroke-width:2px!important;color:rgb(110, 31, 27)!important;}#my-svg .deny polygon{fill:rgb(251, 221, 221)!important;stroke:rgb(201, 69, 63)!important;stroke-width:2px!important;color:rgb(110, 31, 27)!important;}#my-svg .deny ellipse{fill:rgb(251, 221, 221)!important;stroke:rgb(201, 69, 63)!important;stroke-width:2px!important;color:rgb(110, 31, 27)!important;}#my-svg .deny circle{fill:rgb(251, 221, 221)!important;stroke:rgb(201, 69, 63)!important;stroke-width:2px!important;color:rgb(110, 31, 27)!important;}#my-svg .deny path{fill:rgb(251, 221, 221)!important;stroke:rgb(201, 69, 63)!important;stroke-width:2px!important;color:rgb(110, 31, 27)!important;}#my-svg .deny tspan{fill:rgb(110, 31, 27)!important;}#my-svg .world rect{fill:rgb(252, 238, 219)!important;stroke:rgb(181, 121, 43)!important;stroke-width:2px!important;color:rgb(94, 61, 18)!important;}#my-svg .world polygon{fill:rgb(252, 238, 219)!important;stroke:rgb(181, 121, 43)!important;stroke-width:2px!important;color:rgb(94, 61, 18)!important;}#my-svg .world ellipse{fill:rgb(252, 238, 219)!important;stroke:rgb(181, 121, 43)!important;stroke-width:2px!important;color:rgb(94, 61, 18)!important;}#my-svg .world circle{fill:rgb(252, 238, 219)!important;stroke:rgb(181, 121, 43)!important;stroke-width:2px!important;color:rgb(94, 61, 18)!important;}#my-svg .world path{fill:rgb(252, 238, 219)!important;stroke:rgb(181, 121, 43)!important;stroke-width:2px!important;color:rgb(94, 61, 18)!important;}#my-svg .world tspan{fill:rgb(94, 61, 18)!important;}</style><g><marker id="my-svg_flowchart-v2-pointEnd" class="marker flowchart-v2" viewBox="0 0 10 10" refX="5" refY="5" markerUnits="userSpaceOnUse" markerWidth="8" markerHeight="8" orient="auto"><path d="M 0 0 L 10 5 L 0 10 z" class="arrowMarkerPath" style="stroke-width: 1; stroke-dasharray: 1, 0;"/></marker><marker id="my-svg_flowchart-v2-pointStart" class="marker flowchart-v2" viewBox="0 0 10 10" refX="4.5" refY="5" markerUnits="userSpaceOnUse" markerWidth="8" markerHeight="8" orient="auto"><path d="M 0 5 L 10 10 L 10 0 z" class="arrowMarkerPath" style="stroke-width: 1; stroke-dasharray: 1, 0;"/></marker><marker id="my-svg_flowchart-v2-pointEnd-margin" class="marker flowchart-v2" viewBox="0 0 11.5 14" refX="11.5" refY="7" markerUnits="userSpaceOnUse" markerWidth="10.5" markerHeight="14" orient="auto"><path d="M 0 0 L 11.5 7 L 0 14 z" class="arrowMarkerPath" style="stroke-width: 0; stroke-dasharray: 1, 0;"/></marker><marker id="my-svg_flowchart-v2-pointStart-margin" class="marker flowchart-v2" viewBox="0 0 11.5 14" refX="1" refY="7" markerUnits="userSpaceOnUse" markerWidth="11.5" markerHeight="14" orient="auto"><polygon points="0,7 11.5,14 11.5,0" class="arrowMarkerPath" style="stroke-width: 0; stroke-dasharray: 1, 0;"/></marker><marker id="my-svg_flowchart-v2-circleEnd" class="marker flowchart-v2" viewBox="0 0 10 10" refX="11" refY="5" markerUnits="userSpaceOnUse" markerWidth="11" markerHeight="11" orient="auto"><circle cx="5" cy="5" r="5" class="arrowMarkerPath" style="stroke-width: 1; stroke-dasharray: 1, 0;"/></marker><marker id="my-svg_flowchart-v2-circleStart" class="marker flowchart-v2" viewBox="0 0 10 10" refX="-1" refY="5" markerUnits="userSpaceOnUse" markerWidth="11" markerHeight="11" orient="auto"><circle cx="5" cy="5" r="5" class="arrowMarkerPath" style="stroke-width: 1; stroke-dasharray: 1, 0;"/></marker><marker id="my-svg_flowchart-v2-circleEnd-margin" class="marker flowchart-v2" viewBox="0 0 10 10" refY="5" refX="12.25" markerUnits="userSpaceOnUse" markerWidth="14" markerHeight="14" orient="auto"><circle cx="5" cy="5" r="5" class="arrowMarkerPath" style="stroke-width: 0; stroke-dasharray: 1, 0;"/></marker><marker id="my-svg_flowchart-v2-circleStart-margin" class="marker flowchart-v2" viewBox="0 0 10 10" refX="-2" refY="5" markerUnits="userSpaceOnUse" markerWidth="14" markerHeight="14" orient="auto"><circle cx="5" cy="5" r="5" class="arrowMarkerPath" style="stroke-width: 0; stroke-dasharray: 1, 0;"/></marker><marker id="my-svg_flowchart-v2-crossEnd" class="marker cross flowchart-v2" viewBox="0 0 11 11" refX="12" refY="5.2" markerUnits="userSpaceOnUse" markerWidth="11" markerHeight="11" orient="auto"><path d="M 1,1 l 9,9 M 10,1 l -9,9" class="arrowMarkerPath" style="stroke-width: 2; stroke-dasharray: 1, 0;"/></marker><marker id="my-svg_flowchart-v2-crossStart" class="marker cross flowchart-v2" viewBox="0 0 11 11" refX="-1" refY="5.2" markerUnits="userSpaceOnUse" markerWidth="11" markerHeight="11" orient="auto"><path d="M 1,1 l 9,9 M 10,1 l -9,9" class="arrowMarkerPath" style="stroke-width: 2; stroke-dasharray: 1, 0;"/></marker><marker id="my-svg_flowchart-v2-crossEnd-margin" class="marker cross flowchart-v2" viewBox="0 0 15 15" refX="17.7" refY="7.5" markerUnits="userSpaceOnUse" markerWidth="12" markerHeight="12" orient="auto"><path d="M 1,1 L 14,14 M 1,14 L 14,1" class="arrowMarkerPath" style="stroke-width: 2.5;"/></marker><marker id="my-svg_flowchart-v2-crossStart-margin" class="marker cross flowchart-v2" viewBox="0 0 15 15" refX="-3.5" refY="7.5" markerUnits="userSpaceOnUse" markerWidth="12" markerHeight="12" orient="auto"><path d="M 1,1 L 14,14 M 1,14 L 14,1" class="arrowMarkerPath" style="stroke-width: 2.5; stroke-dasharray: 1, 0;"/></marker><g class="root"><g class="clusters"/><g class="edgePaths"><path d="M410.902,104.5L410.819,111.583C410.735,118.667,410.569,132.833,410.485,143.417C410.402,154,410.402,161,410.402,164.5L410.402,168" id="my-svg-L_write_rule_0" class=" edge-thickness-normal edge-pattern-solid edge-thickness-normal edge-pattern-solid flowchart-link" style=";" data-edge="true" data-et="edge" data-id="L_write_rule_0" data-points="W3sieCI6NDEwLjkwMTg0MDIwOTk2MDk0LCJ5IjoxMDQuNX0seyJ4Ijo0MTAuNDAxODQwMjA5OTYwOTQsInkiOjE0N30seyJ4Ijo0MTAuNDAxODQwMjA5OTYwOTQsInkiOjE3Mn1d" data-look="classic" marker-end="url(#my-svg_flowchart-v2-pointEnd)"/><path d="M410.402,307L410.402,311.167C410.402,315.333,410.402,323.667,410.402,331.333C410.402,339,410.402,346,410.402,349.5L410.402,353" id="my-svg-L_rule_wipe_0" class=" edge-thickness-normal edge-pattern-solid edge-thickness-normal edge-pattern-solid flowchart-link" style=";" data-edge="true" data-et="edge" data-id="L_rule_wipe_0" data-points="W3sieCI6NDEwLjQwMTg0MDIwOTk2MDk0LCJ5IjozMDd9LHsieCI6NDEwLjQwMTg0MDIwOTk2MDk0LCJ5IjozMzJ9LHsieCI6NDEwLjQwMTg0MDIwOTk2MDk0LCJ5IjozNTd9XQ==" data-look="classic" marker-end="url(#my-svg_flowchart-v2-pointEnd)"/><path d="M410.402,503.426L410.402,507.593C410.402,511.76,410.402,520.093,410.402,527.76C410.402,535.426,410.402,542.426,410.402,545.926L410.402,549.426" id="my-svg-L_wipe_cost_0" class=" edge-thickness-normal edge-pattern-solid edge-thickness-normal edge-pattern-solid flowchart-link" style=";" data-edge="true" data-et="edge" data-id="L_wipe_cost_0" data-points="W3sieCI6NDEwLjQwMTg0MDIwOTk2MDk0LCJ5Ijo1MDMuNDI2NDgzMTU0Mjk2OX0seyJ4Ijo0MTAuNDAxODQwMjA5OTYwOTQsInkiOjUyOC40MjY0ODMxNTQyOTY5fSx7IngiOjQxMC40MDE4NDAyMDk5NjA5NCwieSI6NTUzLjQyNjQ4MzE1NDI5Njl9XQ==" data-look="classic" marker-end="url(#my-svg_flowchart-v2-pointEnd)"/><path d="M410.402,709.426L410.402,713.593C410.402,717.76,410.402,726.093,410.402,733.76C410.402,741.426,410.402,748.426,410.402,751.926L410.402,755.426" id="my-svg-L_cost_cross_0" class=" edge-thickness-normal edge-pattern-solid edge-thickness-normal edge-pattern-solid flowchart-link" style=";" data-edge="true" data-et="edge" data-id="L_cost_cross_0" data-points="W3sieCI6NDEwLjQwMTg0MDIwOTk2MDk0LCJ5Ijo3MDkuNDI2NDgzMTU0Mjk2OX0seyJ4Ijo0MTAuNDAxODQwMjA5OTYwOTQsInkiOjczNC40MjY0ODMxNTQyOTY5fSx7IngiOjQxMC40MDE4NDAyMDk5NjA5NCwieSI6NzU5LjQyNjQ4MzE1NDI5Njl9XQ==" data-look="classic" marker-end="url(#my-svg_flowchart-v2-pointEnd)"/><path d="M410.402,915.426L410.402,919.593C410.402,923.76,410.402,932.093,410.402,939.76C410.402,947.426,410.402,954.426,410.402,957.926L410.402,961.426" id="my-svg-L_cross_verdict_0" class=" edge-thickness-normal edge-pattern-solid edge-thickness-normal edge-pattern-solid flowchart-link" style=";" data-edge="true" data-et="edge" data-id="L_cross_verdict_0" data-points="W3sieCI6NDEwLjQwMTg0MDIwOTk2MDk0LCJ5Ijo5MTUuNDI2NDgzMTU0Mjk2OX0seyJ4Ijo0MTAuNDAxODQwMjA5OTYwOTQsInkiOjk0MC40MjY0ODMxNTQyOTY5fSx7IngiOjQxMC40MDE4NDAyMDk5NjA5NCwieSI6OTY1LjQyNjQ4MzE1NDI5Njl9XQ==" data-look="classic" marker-end="url(#my-svg_flowchart-v2-pointEnd)"/><path d="M410.402,1184.426L410.402,1188.593C410.402,1192.76,410.402,1201.093,410.402,1208.76C410.402,1216.426,410.402,1223.426,410.402,1226.926L410.402,1230.426" id="my-svg-L_verdict_fix_0" class=" edge-thickness-normal edge-pattern-solid edge-thickness-normal edge-pattern-solid flowchart-link" style=";" data-edge="true" data-et="edge" data-id="L_verdict_fix_0" data-points="W3sieCI6NDEwLjQwMTg0MDIwOTk2MDk0LCJ5IjoxMTg0LjQyNjQ4MzE1NDI5Njl9LHsieCI6NDEwLjQwMTg0MDIwOTk2MDk0LCJ5IjoxMjA5LjQyNjQ4MzE1NDI5Njl9LHsieCI6NDEwLjQwMTg0MDIwOTk2MDk0LCJ5IjoxMjM0LjQyNjQ4MzE1NDI5Njl9XQ==" data-look="classic" marker-end="url(#my-svg_flowchart-v2-pointEnd)"/></g><g class="edgeLabels"><g class="edgeLabel"><g class="label" data-id="L_write_rule_0" transform="translate(0, 0)"><text y="-10.1" text-anchor="middle"><tspan class="text-outer-tspan row" x="0" y="-0.1em" dy="1.1em" text-anchor="middle"/></text></g></g><g><rect class="background" style="stroke: none"/></g><g class="edgeLabel"><g class="label" data-id="L_rule_wipe_0" transform="translate(0, 0)"><text y="-10.1" text-anchor="middle"><tspan class="text-outer-tspan row" x="0" y="-0.1em" dy="1.1em" text-anchor="middle"/></text></g></g><g><rect class="background" style="stroke: none"/></g><g class="edgeLabel"><g class="label" data-id="L_wipe_cost_0" transform="translate(0, 0)"><text y="-10.1" text-anchor="middle"><tspan class="text-outer-tspan row" x="0" y="-0.1em" dy="1.1em" text-anchor="middle"/></text></g></g><g><rect class="background" style="stroke: none"/></g><g class="edgeLabel"><g class="label" data-id="L_cost_cross_0" transform="translate(0, 0)"><text y="-10.1" text-anchor="middle"><tspan class="text-outer-tspan row" x="0" y="-0.1em" dy="1.1em" text-anchor="middle"/></text></g></g><g><rect class="background" style="stroke: none"/></g><g class="edgeLabel"><g class="label" data-id="L_cross_verdict_0" transform="translate(0, 0)"><text y="-10.1" text-anchor="middle"><tspan class="text-outer-tspan row" x="0" y="-0.1em" dy="1.1em" text-anchor="middle"/></text></g></g><g><rect class="background" style="stroke: none"/></g><g class="edgeLabel"><g class="label" data-id="L_verdict_fix_0" transform="translate(0, 0)"><text y="-10.1" text-anchor="middle"><tspan class="text-outer-tspan row" x="0" y="-0.1em" dy="1.1em" text-anchor="middle"/></text></g></g><g><rect class="background" style="stroke: none"/></g></g><g class="nodes"><g class="node default  " id="my-svg-flowchart-title-0" data-look="classic" transform="translate(138, 65)"><rect class="basic label-container" style="" x="-130" y="-57" width="260" height="114"/><g class="label" style="" transform="translate(-100, -42)"><rect/><foreignObject width="200" height="84"><div xmlns="http://www.w3.org/1999/xhtml" style="display: table; white-space: break-spaces; line-height: 1.5; max-width: 200px; text-align: center; width: 200px;"><span class="nodeLabel "><p>THE CATCH — why this only works for LOOKERS, not BOOKERS<br />(the most important finding)</p></span></div></foreignObject></g></g><g class="node default untrusted " id="my-svg-flowchart-write-1" data-look="classic" transform="translate(410.40184020996094, 65)"><g class="basic label-container outer-path"><path d="M-53.421875 -39 C-29.856810925933768 -39, -6.291746851867536 -39, 53.421875 -39 C53.421875 -39, 53.421875 -39, 53.421875 -39 C54.05639973808084 -38.97965202667723, 54.69092447616168 -38.95930405335445, 55.9206135792478 -38.91987031726312 C56.7109602133877 -38.84362652799854, 57.5013068475276 -38.76738273873396, 58.40908430569573 -38.6798105391066 C59.16746772306216 -38.55720098953803, 59.92585114042859 -38.43459143996947, 60.87706151935352 -38.28080712265155 C61.62938185877557 -38.10909491452749, 62.381702198197615 -37.93738270640342, 63.31440377247078 -37.72449965852215 C64.04521048823523 -37.50760006136599, 64.77601720399969 -37.290700464209834, 65.71109550292121 -37.01317413341608 C66.32008622774529 -36.789059917232265, 66.92907695256937 -36.56494570104845, 68.0572881902956 -36.14975353649485 C68.74591904703797 -35.84491708372357, 69.43454990378035 -35.540080630952296, 70.34334082558476 -35.13778584819435 C70.94977633165749 -34.821408833116685, 71.55621183773022 -34.50503181803902, 72.55985952815357 -33.981429460812194 C73.27787595406211 -33.54616368389355, 73.99589237997066 -33.11089790697491, 74.6977361472114 -32.685436090781785 C75.4702328238129 -32.14657585002673, 76.24272950041443 -31.607715609271672, 76.74818568915742 -31.25513125285031 C77.24749900628917 -30.856942169723137, 77.74681232342091 -30.45875308659597, 78.70278241700373 -29.696392376396247 C79.39537685856507 -29.067396429614988, 80.0879713001264 -28.438400482833732, 80.55349447353598 -28.015624653811376 C80.96389462170352 -27.591852806349593, 81.37429476987106 -27.168080958887806, 82.2927168859373 -26.21973472019136 C82.83037780354032 -25.588167612601968, 83.36803872114332 -24.956600505012574, 83.91330281625316 -24.31610227249061 C84.2148509702698 -23.912055217710293, 84.51639912428644 -23.508008162929976, 85.40859292928127 -22.312549744764624 C85.74222234201915 -21.800005374757845, 86.07585175475704 -21.287461004751066, 86.7724427572085 -20.217310164110483 C87.11167835606213 -19.614963007016556, 87.45091395491575 -19.01261584992263, 87.99924794854701 -18.038993319392574 C88.25498067756823 -17.50795883577616, 88.51071340658946 -16.976924352159745, 89.08396729761668 -15.786550381773369 C89.33761916619738 -15.160025362353768, 89.59127103477809 -14.533500342934165, 90.02214345994065 -13.469237122431016 C90.20603779151455 -12.915376695313235, 90.38993212308843 -12.361516268195453, 90.80992126842976 -11.096575878610276 C91.0197467022812 -10.296420560416475, 91.22957213613263 -9.496265242222677, 91.44406357509112 -8.678316424296266 C91.5801739891477 -7.979418215061974, 91.71628440320426 -7.280520005827682, 91.92196455316355 -6.224395906301805 C91.98683983182534 -5.72123605607381, 92.05171511048712 -5.218076205845814, 92.24166040501873 -3.744898010399596 C92.30009656964127 -2.8347075775806156, 92.35853273426379 -1.9245171447616352, 92.40183743182683 -1.2500115252945514 C92.40183743182683 -0.5822395143339777, 92.40183743182683 0.08553249662659601, 92.40183743182683 1.250011525294542 C92.35987222275797 1.9036535302490432, 92.31790701368912 2.5572955352035445, 92.24166040501873 3.7448980103995693 C92.1771495328568 4.245231595774893, 92.11263866069487 4.745565181150217, 91.92196455316355 6.224395906301777 C91.74244916188006 7.146169499951132, 91.56293377059657 8.067943093600487, 91.44406357509112 8.678316424296257 C91.20752732893666 9.580331646340802, 90.97099108278219 10.482346868385347, 90.80992126842978 11.09657587861025 C90.63907872485557 11.611126399792981, 90.46823618128137 12.125676920975712, 90.02214345994065 13.46923712243099 C89.6722683200843 14.333435482251838, 89.32239318022795 15.197633842072687, 89.08396729761668 15.786550381773358 C88.73684789310043 16.50735125241681, 88.38972848858417 17.228152123060266, 87.99924794854701 18.038993319392567 C87.5258234489035 18.879606457938575, 87.05239894926 19.720219596484583, 86.7724427572085 20.217310164110472 C86.35040148763377 20.86567888812638, 85.92836021805905 21.51404761214228, 85.40859292928128 22.312549744764603 C85.01512055129085 22.83976688520074, 84.6216481733004 23.36698402563687, 83.91330281625316 24.316102272490603 C83.28886527640478 25.049602138299097, 82.6644277365564 25.783102004107594, 82.29271688593732 26.21973472019134 C81.62809618136046 26.906010164041582, 80.96347547678361 27.592285607891828, 80.55349447353598 28.01562465381137 C79.84342773113508 28.660488481923373, 79.1333609887342 29.305352310035374, 78.70278241700377 29.696392376396222 C78.01956089402404 30.24124335968427, 77.3363393710443 30.786094342972316, 76.74818568915742 31.255131252850305 C76.33023688723617 31.54667424435854, 75.91228808531491 31.83821723586678, 74.69773614721142 32.68543609078178 C74.21791514007772 32.97630640504745, 73.73809413294401 33.26717671931312, 72.55985952815357 33.98142946081219 C72.03156187410104 34.257042008540594, 71.50326422004851 34.532654556269, 70.34334082558478 35.13778584819434 C69.81703833875977 35.3707643469032, 69.29073585193477 35.60374284561206, 68.05728819029561 36.14975353649484 C67.44541784433392 36.37492747987622, 66.83354749837223 36.6001014232576, 65.71109550292124 37.013174133416065 C65.2113330570184 37.16150100405342, 64.71157061111555 37.309827874690775, 63.314403772470826 37.72449965852214 C62.726236306217146 37.858745044543134, 62.138068839963466 37.99299043056412, 60.87706151935353 38.280807122651545 C60.11608468697318 38.40383595544733, 59.35510785459283 38.52686478824311, 58.40908430569576 38.6798105391066 C57.64151770886298 38.75385676556916, 56.8739511120302 38.82790299203173, 55.9206135792478 38.91987031726312 C55.12614251628634 38.94534745790818, 54.33167145332489 38.97082459855324, 53.42187500000001 39 C53.42187500000001 39, 53.421875 39, 53.421875 39 C30.119949867068005 39, 6.81802473413601 39, -53.42187499999999 39 C-54.14703957525073 38.976745383518924, -54.87220415050147 38.953490767037856, -55.920613579247785 38.91987031726312 C-56.64349110121744 38.85013519210612, -57.3663686231871 38.78040006694913, -58.40908430569574 38.6798105391066 C-59.198173586319186 38.55223670369416, -59.987262866942636 38.42466286828173, -60.87706151935352 38.280807122651545 C-61.44699184984319 38.15072424386025, -62.01692218033286 38.02064136506897, -63.314403772470776 37.72449965852215 C-64.26305060570178 37.44294625796803, -65.21169743893279 37.16139285741391, -65.71109550292118 37.013174133416086 C-66.25564606177205 36.81277449398878, -66.80019662062293 36.61237485456147, -68.0572881902956 36.14975353649485 C-68.56938455799046 35.92306366531535, -69.08148092568534 35.696373794135845, -70.34334082558476 35.13778584819435 C-70.96289660511731 34.814563994856634, -71.58245238464986 34.49134214151893, -72.55985952815357 33.981429460812194 C-73.01060918542458 33.70818236967549, -73.4613588426956 33.43493527853879, -74.69773614721137 32.6854360907818 C-75.14152232058527 32.37587006742999, -75.58530849395915 32.06630404407819, -76.74818568915742 31.255131252850312 C-77.32406934641602 30.795879361094304, -77.89995300367463 30.336627469338293, -78.70278241700373 29.69639237639625 C-79.22456345048154 29.222524647361336, -79.74634448395933 28.748656918326418, -80.55349447353595 28.015624653811393 C-81.1021360599324 27.449107171545094, -81.65077764632888 26.882589689278795, -82.29271688593731 26.219734720191354 C-82.63305391280005 25.819955482712942, -82.97339093966279 25.42017624523453, -83.91330281625315 24.316102272490614 C-84.41325015930789 23.646218378937185, -84.91319750236264 22.976334485383756, -85.40859292928127 22.31254974476463 C-85.83009407579665 21.665010794811238, -86.25159522231202 21.017471844857845, -86.7724427572085 20.217310164110497 C-87.26165827269914 19.348658477914164, -87.75087378818976 18.480006791717827, -87.99924794854701 18.038993319392578 C-88.38000979654704 17.24833319502207, -88.76077164454708 16.457673070651563, -89.08396729761668 15.786550381773372 C-89.45550896769514 14.868835273410063, -89.8270506377736 13.951120165046756, -90.02214345994065 13.46923712243102 C-90.32757632316921 12.549322002504649, -90.63300918639776 11.629406882578278, -90.80992126842976 11.096575878610265 C-91.00243182451159 10.3624496936675, -91.1949423805934 9.628323508724735, -91.44406357509112 8.678316424296272 C-91.55625816546383 8.102220915067505, -91.66845275583653 7.526125405838738, -91.92196455316355 6.224395906301808 C-92.02451858197402 5.429007110431386, -92.1270726107845 4.633618314560964, -92.24166040501873 3.744898010399618 C-92.29218626371262 2.957916977503199, -92.34271212240651 2.1709359446067795, -92.40183743182683 1.2500115252945563 C-92.40183743182683 0.6443033338601086, -92.40183743182683 0.03859514242566098, -92.40183743182683 -1.2500115252945374 C-92.33993840586311 -2.214138818673984, -92.27803937989938 -3.1782661120534303, -92.24166040501873 -3.7448980103995644 C-92.14250497866287 -4.513927916762016, -92.043349552307 -5.282957823124468, -91.92196455316355 -6.22439590630179 C-91.80254449815988 -6.8375926493081245, -91.68312444315619 -7.450789392314458, -91.44406357509112 -8.678316424296252 C-91.29654628055573 -9.240863802759561, -91.14902898602035 -9.80341118122287, -90.80992126842978 -11.096575878610246 C-90.64543828649535 -11.591972413392526, -90.48095530456092 -12.087368948174804, -90.02214345994066 -13.46923712243097 C-89.6931685656355 -14.281811471661609, -89.36419367133034 -15.094385820892247, -89.08396729761668 -15.786550381773353 C-88.85610491725781 -16.25971149006245, -88.62824253689895 -16.73287259835155, -87.99924794854701 -18.038993319392564 C-87.70729822528718 -18.557379616155583, -87.41534850202736 -19.0757659129186, -86.7724427572085 -20.217310164110486 C-86.2788995841713 -20.975525012794225, -85.78535641113409 -21.733739861477968, -85.40859292928128 -22.312549744764617 C-85.04309564687158 -22.802282805706195, -84.67759836446189 -23.292015866647773, -83.91330281625318 -24.316102272490603 C-83.43163298276446 -24.881899066696413, -82.94996314927573 -25.447695860902225, -82.29271688593732 -26.21973472019134 C-81.65244447450212 -26.880868552340786, -81.01217206306691 -27.542002384490228, -80.55349447353599 -28.015624653811354 C-80.02778879904166 -28.49305663797717, -79.50208312454734 -28.970488622142984, -78.70278241700377 -29.696392376396215 C-78.17971415477294 -30.113525396094275, -77.65664589254209 -30.530658415792338, -76.74818568915744 -31.255131252850298 C-76.20130991222187 -31.63660812096972, -75.65443413528632 -32.01808498908914, -74.69773614721143 -32.68543609078177 C-73.9076720998527 -33.164377559222324, -73.11760805249398 -33.64331902766288, -72.55985952815358 -33.98142946081218 C-71.86940957656635 -34.341636758300936, -71.17895962497914 -34.701844055789685, -70.34334082558478 -35.13778584819434 C-69.79620540450733 -35.37998646890972, -69.24906998342989 -35.62218708962509, -68.05728819029561 -36.14975353649484 C-67.4064332520635 -36.389274170201354, -66.75557831383139 -36.628794803907866, -65.71109550292124 -37.013174133416065 C-65.14419152631619 -37.18142825793275, -64.57728754971113 -37.34968238244943, -63.314403772470826 -37.724499658522134 C-62.713841823086135 -37.86157400443622, -62.113279873701444 -37.9986483503503, -60.87706151935353 -38.280807122651545 C-60.167404328822194 -38.395538993742946, -59.457747138290856 -38.51027086483435, -58.409084305695764 -38.6798105391066 C-57.45344347326334 -38.7720000608851, -56.49780264083091 -38.864189582663606, -55.92061357924781 -38.91987031726312 C-54.922726782149695 -38.95187060457723, -53.92483998505159 -38.98387089189135, -53.421875000000014 -39 C-53.42187500000001 -39, -53.421875 -39, -53.421875 -39" stroke="none" stroke-width="0" fill="#FFE9D6" style="fill:#FFE9D6 !important;stroke:#E8833A !important;stroke-width:2px !important"/><path d="M-53.421875 -39 C-25.451704073292348 -39, 2.5184668534153047 -39, 53.421875 -39 M-53.421875 -39 C-16.71236571837352 -39, 19.997143563252962 -39, 53.421875 -39 M53.421875 -39 C53.421875 -39, 53.421875 -39, 53.421875 -39 M53.421875 -39 C53.421875 -39, 53.421875 -39, 53.421875 -39 M53.421875 -39 C54.269454672145734 -38.97281976962804, 55.11703434429147 -38.94563953925607, 55.9206135792478 -38.91987031726312 M53.421875 -39 C54.30411692890124 -38.97170821851988, 55.186358857802475 -38.94341643703976, 55.9206135792478 -38.91987031726312 M55.9206135792478 -38.91987031726312 C56.811056451160745 -38.83397036432391, 57.70149932307368 -38.7480704113847, 58.40908430569573 -38.6798105391066 M55.9206135792478 -38.91987031726312 C56.7156986545545 -38.84316941627798, 57.51078372986121 -38.76646851529285, 58.40908430569573 -38.6798105391066 M58.40908430569573 -38.6798105391066 C59.395070388563326 -38.52040395566484, 60.381056471430924 -38.36099737222308, 60.87706151935352 -38.28080712265155 M58.40908430569573 -38.6798105391066 C59.13492689884434 -38.56246193763971, 59.860769491992954 -38.445113336172824, 60.87706151935352 -38.28080712265155 M60.87706151935352 -38.28080712265155 C61.82547603976924 -38.0643376973498, 62.77389056018497 -37.847868272048046, 63.31440377247078 -37.72449965852215 M60.87706151935352 -38.28080712265155 C61.78793569226072 -38.07290603669496, 62.69880986516791 -37.86500495073837, 63.31440377247078 -37.72449965852215 M63.31440377247078 -37.72449965852215 C64.25172287772817 -37.44630826817014, 65.18904198298557 -37.16811687781813, 65.71109550292121 -37.01317413341608 M63.31440377247078 -37.72449965852215 C63.913978798023145 -37.54654893817174, 64.5135538235755 -37.36859821782134, 65.71109550292121 -37.01317413341608 M65.71109550292121 -37.01317413341608 C66.26508925939719 -36.809299309970775, 66.81908301587315 -36.60542448652547, 68.0572881902956 -36.14975353649485 M65.71109550292121 -37.01317413341608 C66.49572115915703 -36.72442463892124, 67.28034681539285 -36.435675144426405, 68.0572881902956 -36.14975353649485 M68.0572881902956 -36.14975353649485 C68.95140319614825 -35.753955346383165, 69.84551820200092 -35.358157156271474, 70.34334082558476 -35.13778584819435 M68.0572881902956 -36.14975353649485 C68.64199876859566 -35.89091950830446, 69.2267093468957 -35.632085480114064, 70.34334082558476 -35.13778584819435 M70.34334082558476 -35.13778584819435 C71.0853386255613 -34.75068607121886, 71.82733642553785 -34.36358629424337, 72.55985952815357 -33.981429460812194 M70.34334082558476 -35.13778584819435 C70.89961098214205 -34.84758006382645, 71.45588113869935 -34.55737427945855, 72.55985952815357 -33.981429460812194 M72.55985952815357 -33.981429460812194 C73.1537986274696 -33.62138008843324, 73.74773772678563 -33.26133071605429, 74.6977361472114 -32.685436090781785 M72.55985952815357 -33.981429460812194 C73.27243984108961 -33.54945908752363, 73.98502015402566 -33.117488714235066, 74.6977361472114 -32.685436090781785 M74.6977361472114 -32.685436090781785 C75.3885181663619 -32.20357645769405, 76.0793001855124 -31.721716824606307, 76.74818568915742 -31.25513125285031 M74.6977361472114 -32.685436090781785 C75.36137842028437 -32.22250796969706, 76.02502069335733 -31.759579848612333, 76.74818568915742 -31.25513125285031 M76.74818568915742 -31.25513125285031 C77.43705396576989 -30.70577713380658, 78.12592224238236 -30.15642301476285, 78.70278241700373 -29.696392376396247 M76.74818568915742 -31.25513125285031 C77.22910641795353 -30.871609769473476, 77.71002714674964 -30.488088286096648, 78.70278241700373 -29.696392376396247 M78.70278241700373 -29.696392376396247 C79.35807107173011 -29.10127655816147, 80.01335972645649 -28.506160739926692, 80.55349447353598 -28.015624653811376 M78.70278241700373 -29.696392376396247 C79.26137922230177 -29.189089537486147, 79.8199760275998 -28.681786698576047, 80.55349447353598 -28.015624653811376 M80.55349447353598 -28.015624653811376 C81.03991936756125 -27.51335101450377, 81.52634426158652 -27.011077375196162, 82.2927168859373 -26.21973472019136 M80.55349447353598 -28.015624653811376 C81.18122086156404 -27.36744562087747, 81.80894724959212 -26.719266587943565, 82.2927168859373 -26.21973472019136 M82.2927168859373 -26.21973472019136 C82.89520612480085 -25.512016577613366, 83.49769536366439 -24.804298435035367, 83.91330281625316 -24.31610227249061 M82.2927168859373 -26.21973472019136 C82.77526787353806 -25.652902872226477, 83.2578188611388 -25.08607102426159, 83.91330281625316 -24.31610227249061 M83.91330281625316 -24.31610227249061 C84.42356155356443 -23.632402050020787, 84.93382029087569 -22.948701827550966, 85.40859292928127 -22.312549744764624 M83.91330281625316 -24.31610227249061 C84.31558521696068 -23.777080504223164, 84.71786761766822 -23.23805873595572, 85.40859292928127 -22.312549744764624 M85.40859292928127 -22.312549744764624 C85.70592768750925 -21.855763710564442, 86.0032624457372 -21.39897767636426, 86.7724427572085 -20.217310164110483 M85.40859292928127 -22.312549744764624 C85.71533246368027 -21.841315448829725, 86.02207199807928 -21.370081152894823, 86.7724427572085 -20.217310164110483 M86.7724427572085 -20.217310164110483 C87.1316227389275 -19.579549735651312, 87.49080272064651 -18.941789307192142, 87.99924794854701 -18.038993319392574 M86.7724427572085 -20.217310164110483 C87.20279580523581 -19.453174749366443, 87.63314885326312 -18.689039334622404, 87.99924794854701 -18.038993319392574 M87.99924794854701 -18.038993319392574 C88.36748779030198 -17.274335408917956, 88.73572763205695 -16.509677498443335, 89.08396729761668 -15.786550381773369 M87.99924794854701 -18.038993319392574 C88.38169638461626 -17.24483095880915, 88.7641448206855 -16.45066859822572, 89.08396729761668 -15.786550381773369 M89.08396729761668 -15.786550381773369 C89.33844373386145 -15.157988664281593, 89.59292017010623 -14.529426946789815, 90.02214345994065 -13.469237122431016 M89.08396729761668 -15.786550381773369 C89.41302209975183 -14.973778658657757, 89.74207690188697 -14.161006935542144, 90.02214345994065 -13.469237122431016 M90.02214345994065 -13.469237122431016 C90.22292231535906 -12.86452319967709, 90.42370117077746 -12.259809276923162, 90.80992126842976 -11.096575878610276 M90.02214345994065 -13.469237122431016 C90.30763361150434 -12.609386272599595, 90.59312376306805 -11.749535422768176, 90.80992126842976 -11.096575878610276 M90.80992126842976 -11.096575878610276 C90.98790576035806 -10.417843871920912, 91.16589025228636 -9.73911186523155, 91.44406357509112 -8.678316424296266 M90.80992126842976 -11.096575878610276 C91.02256041517147 -10.285690653695008, 91.23519956191316 -9.474805428779742, 91.44406357509112 -8.678316424296266 M91.44406357509112 -8.678316424296266 C91.5743659737734 -8.009241146484467, 91.70466837245569 -7.340165868672668, 91.92196455316355 -6.224395906301805 M91.44406357509112 -8.678316424296266 C91.63395998522071 -7.703238492901281, 91.8238563953503 -6.728160561506297, 91.92196455316355 -6.224395906301805 M91.92196455316355 -6.224395906301805 C91.99905765438771 -5.62647703696196, 92.07615075561188 -5.0285581676221165, 92.24166040501873 -3.744898010399596 M91.92196455316355 -6.224395906301805 C91.98702169773391 -5.719825540000366, 92.05207884230427 -5.215255173698927, 92.24166040501873 -3.744898010399596 M92.24166040501873 -3.744898010399596 C92.27395231570864 -3.2419254358431893, 92.30624422639855 -2.7389528612867826, 92.40183743182683 -1.2500115252945514 M92.24166040501873 -3.744898010399596 C92.2841540519644 -3.083025158966377, 92.32664769891007 -2.4211523075331582, 92.40183743182683 -1.2500115252945514 M92.40183743182683 -1.2500115252945514 C92.40183743182683 -0.33829623302728395, 92.40183743182683 0.5734190592399835, 92.40183743182683 1.250011525294542 M92.40183743182683 -1.2500115252945514 C92.40183743182683 -0.5488844662656135, 92.40183743182683 0.1522425927633244, 92.40183743182683 1.250011525294542 M92.40183743182683 1.250011525294542 C92.3691319965959 1.759425078368436, 92.33642656136497 2.26883863144233, 92.24166040501873 3.7448980103995693 M92.40183743182683 1.250011525294542 C92.36158704232294 1.8769438313473268, 92.32133665281904 2.5038761374001117, 92.24166040501873 3.7448980103995693 M92.24166040501873 3.7448980103995693 C92.11709422653055 4.711008692379671, 91.99252804804237 5.677119374359772, 91.92196455316355 6.224395906301777 M92.24166040501873 3.7448980103995693 C92.1358699302459 4.565388042045471, 92.03007945547307 5.385878073691371, 91.92196455316355 6.224395906301777 M91.92196455316355 6.224395906301777 C91.73364406471048 7.191381812958984, 91.5453235762574 8.15836771961619, 91.44406357509112 8.678316424296257 M91.92196455316355 6.224395906301777 C91.82185738356245 6.738425064545646, 91.72175021396134 7.252454222789513, 91.44406357509112 8.678316424296257 M91.44406357509112 8.678316424296257 C91.23398330905407 9.479443528058784, 91.02390304301703 10.280570631821309, 90.80992126842978 11.09657587861025 M91.44406357509112 8.678316424296257 C91.30479649273013 9.209402168074043, 91.16552941036913 9.740487911851826, 90.80992126842978 11.09657587861025 M90.80992126842978 11.09657587861025 C90.59516633067372 11.743383534578836, 90.38041139291767 12.390191190547421, 90.02214345994065 13.46923712243099 M90.80992126842978 11.09657587861025 C90.5063584207053 12.010858809784827, 90.20279557298082 12.925141740959402, 90.02214345994065 13.46923712243099 M90.02214345994065 13.46923712243099 C89.789455045428 14.043982005001697, 89.55676663091535 14.618726887572404, 89.08396729761668 15.786550381773358 M90.02214345994065 13.46923712243099 C89.70573098563227 14.250782051391726, 89.38931851132388 15.032326980352462, 89.08396729761668 15.786550381773358 M89.08396729761668 15.786550381773358 C88.74319545586806 16.49417040251374, 88.40242361411944 17.201790423254117, 87.99924794854701 18.038993319392567 M89.08396729761668 15.786550381773358 C88.67732095386968 16.63096021540192, 88.27067461012268 17.47537004903048, 87.99924794854701 18.038993319392567 M87.99924794854701 18.038993319392567 C87.74352303004412 18.493058807150394, 87.48779811154122 18.947124294908225, 86.7724427572085 20.217310164110472 M87.99924794854701 18.038993319392567 C87.74599543401928 18.48866880353445, 87.49274291949155 18.938344287676326, 86.7724427572085 20.217310164110472 M86.7724427572085 20.217310164110472 C86.27004526476598 20.98912762511844, 85.76764777232347 21.7609450861264, 85.40859292928128 22.312549744764603 M86.7724427572085 20.217310164110472 C86.47178862593913 20.679195646678703, 86.17113449466976 21.14108112924694, 85.40859292928128 22.312549744764603 M85.40859292928128 22.312549744764603 C84.84725701225327 23.064688734828074, 84.28592109522526 23.81682772489155, 83.91330281625316 24.316102272490603 M85.40859292928128 22.312549744764603 C84.95442883510103 22.92108825576601, 84.50026474092076 23.529626766767414, 83.91330281625316 24.316102272490603 M83.91330281625316 24.316102272490603 C83.3972963298352 24.922232853038008, 82.88128984341724 25.528363433585408, 82.29271688593732 26.21973472019134 M83.91330281625316 24.316102272490603 C83.3600398516482 24.96599643227012, 82.80677688704323 25.61589059204964, 82.29271688593732 26.21973472019134 M82.29271688593732 26.21973472019134 C81.91721553967653 26.607470689439484, 81.54171419341573 26.995206658687632, 80.55349447353598 28.01562465381137 M82.29271688593732 26.21973472019134 C81.64074372169026 26.892950540268707, 80.98877055744319 27.566166360346074, 80.55349447353598 28.01562465381137 M80.55349447353598 28.01562465381137 C80.13494233140165 28.395742635014933, 79.71639018926733 28.7758606162185, 78.70278241700377 29.696392376396222 M80.55349447353598 28.01562465381137 C80.14241855868586 28.388952923205544, 79.73134264383576 28.762281192599723, 78.70278241700377 29.696392376396222 M78.70278241700377 29.696392376396222 C78.05794031447859 30.210636793191036, 77.4130982119534 30.724881209985853, 76.74818568915742 31.255131252850305 M78.70278241700377 29.696392376396222 C77.97657007837171 30.275527391133352, 77.25035773973963 30.854662405870485, 76.74818568915742 31.255131252850305 M76.74818568915742 31.255131252850305 C76.00728941524649 31.7719484206478, 75.26639314133557 32.288765588445294, 74.69773614721142 32.68543609078178 M76.74818568915742 31.255131252850305 C76.01837977242255 31.764212267575612, 75.28857385568766 32.27329328230092, 74.69773614721142 32.68543609078178 M74.69773614721142 32.68543609078178 C74.24645825315874 32.95900340215979, 73.79518035910606 33.23257071353779, 72.55985952815357 33.98142946081219 M74.69773614721142 32.68543609078178 C74.00255207720862 33.10686075937254, 73.30736800720581 33.5282854279633, 72.55985952815357 33.98142946081219 M72.55985952815357 33.98142946081219 C72.01226683987917 34.26710821553508, 71.46467415160478 34.552786970257976, 70.34334082558478 35.13778584819434 M72.55985952815357 33.98142946081219 C71.68682136028715 34.43689291378046, 70.81378319242074 34.892356366748736, 70.34334082558478 35.13778584819434 M70.34334082558478 35.13778584819434 C69.53257354020737 35.49668847487392, 68.72180625482996 35.85559110155349, 68.05728819029561 36.14975353649484 M70.34334082558478 35.13778584819434 C69.84629447898575 35.35781352147772, 69.34924813238672 35.57784119476111, 68.05728819029561 36.14975353649484 M68.05728819029561 36.14975353649484 C67.5823221193537 36.3245454411397, 67.10735604841179 36.49933734578455, 65.71109550292124 37.013174133416065 M68.05728819029561 36.14975353649484 C67.18039355731251 36.472458867357744, 66.30349892432943 36.795164198220654, 65.71109550292124 37.013174133416065 M65.71109550292124 37.013174133416065 C65.15151866117947 37.179253602766245, 64.59194181943771 37.34533307211642, 63.314403772470826 37.72449965852214 M65.71109550292124 37.013174133416065 C65.09607220854299 37.19570981886438, 64.48104891416473 37.3782455043127, 63.314403772470826 37.72449965852214 M63.314403772470826 37.72449965852214 C62.416012356514806 37.929551636662225, 61.517620940558785 38.134603614802316, 60.87706151935353 38.280807122651545 M63.314403772470826 37.72449965852214 C62.54739026458077 37.89956548646714, 61.78037675669072 38.074631314412144, 60.87706151935353 38.280807122651545 M60.87706151935353 38.280807122651545 C59.97202817832463 38.427125894590716, 59.066994837295724 38.57344466652989, 58.40908430569576 38.6798105391066 M60.87706151935353 38.280807122651545 C59.89178438854704 38.44009908822208, 58.906507257740536 38.5993910537926, 58.40908430569576 38.6798105391066 M58.40908430569576 38.6798105391066 C57.469965687106956 38.77040618278647, 56.53084706851815 38.86100182646636, 55.9206135792478 38.91987031726312 M58.40908430569576 38.6798105391066 C57.81690471815057 38.73693739171693, 57.22472513060537 38.79406424432726, 55.9206135792478 38.91987031726312 M55.9206135792478 38.91987031726312 C55.33266934984159 38.93872454433616, 54.744725120435376 38.957578771409196, 53.42187500000001 39 M55.9206135792478 38.91987031726312 C55.28428368760748 38.94027617834703, 54.647953795967155 38.960682039430935, 53.42187500000001 39 M53.42187500000001 39 C53.42187500000001 39, 53.421875 39, 53.421875 39 M53.42187500000001 39 C53.42187500000001 39, 53.421875 39, 53.421875 39 M53.421875 39 C17.95339032595072 39, -17.515094348098557 39, -53.42187499999999 39 M53.421875 39 C13.878445682327389 39, -25.664983635345223 39, -53.42187499999999 39 M-53.42187499999999 39 C-54.26488083572354 38.972966443659665, -55.10788667144708 38.94593288731933, -55.920613579247785 38.91987031726312 M-53.42187499999999 39 C-54.10208608750811 38.97818695437418, -54.782297175016225 38.956373908748354, -55.920613579247785 38.91987031726312 M-55.920613579247785 38.91987031726312 C-56.67001425135893 38.84757653571073, -57.41941492347007 38.77528275415833, -58.40908430569574 38.6798105391066 M-55.920613579247785 38.91987031726312 C-56.51156578733144 38.8628618684733, -57.1025179954151 38.80585341968348, -58.40908430569574 38.6798105391066 M-58.40908430569574 38.6798105391066 C-58.96834283738562 38.589393956817666, -59.52760136907549 38.498977374528735, -60.87706151935352 38.280807122651545 M-58.40908430569574 38.6798105391066 C-59.03372852140884 38.578822906498345, -59.65837273712194 38.47783527389009, -60.87706151935352 38.280807122651545 M-60.87706151935352 38.280807122651545 C-61.509657777315205 38.136421154848165, -62.14225403527689 37.992035187044785, -63.314403772470776 37.72449965852215 M-60.87706151935352 38.280807122651545 C-61.68404077960992 38.09661937252983, -62.49102003986633 37.912431622408114, -63.314403772470776 37.72449965852215 M-63.314403772470776 37.72449965852215 C-64.22048813467624 37.45557857595344, -65.1265724968817 37.186657493384736, -65.71109550292118 37.013174133416086 M-63.314403772470776 37.72449965852215 C-63.82292761888449 37.5735724502027, -64.33145146529822 37.422645241883245, -65.71109550292118 37.013174133416086 M-65.71109550292118 37.013174133416086 C-66.32423157256765 36.787534392018486, -66.93736764221413 36.56189465062089, -68.0572881902956 36.14975353649485 M-65.71109550292118 37.013174133416086 C-66.5537696335892 36.70306226373599, -67.3964437642572 36.39295039405589, -68.0572881902956 36.14975353649485 M-68.0572881902956 36.14975353649485 C-68.76890334230052 35.83474261801574, -69.48051849430544 35.51973169953663, -70.34334082558476 35.13778584819435 M-68.0572881902956 36.14975353649485 C-68.67582388198365 35.87594613399393, -69.29435957367171 35.60213873149301, -70.34334082558476 35.13778584819435 M-70.34334082558476 35.13778584819435 C-70.81904241615804 34.889612633093684, -71.2947440067313 34.64143941799301, -72.55985952815357 33.981429460812194 M-70.34334082558476 35.13778584819435 C-70.83793131848783 34.87975830484715, -71.33252181139089 34.621730761499954, -72.55985952815357 33.981429460812194 M-72.55985952815357 33.981429460812194 C-73.19124913693709 33.598677369510426, -73.82263874572062 33.21592527820865, -74.69773614721137 32.6854360907818 M-72.55985952815357 33.981429460812194 C-73.02002329664836 33.70247548012818, -73.48018706514317 33.42352149944416, -74.69773614721137 32.6854360907818 M-74.69773614721137 32.6854360907818 C-75.30588984347715 32.261214398816, -75.91404353974292 31.8369927068502, -76.74818568915742 31.255131252850312 M-74.69773614721137 32.6854360907818 C-75.29466793667318 32.26904231521393, -75.891599726135 31.852648539646058, -76.74818568915742 31.255131252850312 M-76.74818568915742 31.255131252850312 C-77.30183544660322 30.813610304526087, -77.85548520404902 30.372089356201865, -78.70278241700373 29.69639237639625 M-76.74818568915742 31.255131252850312 C-77.47763561231814 30.673414350607327, -78.20708553547884 30.091697448364343, -78.70278241700373 29.69639237639625 M-78.70278241700373 29.69639237639625 C-79.26362401991965 29.187050871683677, -79.82446562283556 28.6777093669711, -80.55349447353595 28.015624653811393 M-78.70278241700373 29.69639237639625 C-79.13664157371826 29.30237296955235, -79.5705007304328 28.908353562708456, -80.55349447353595 28.015624653811393 M-80.55349447353595 28.015624653811393 C-81.08938830356635 27.462270276603316, -81.62528213359674 26.908915899395243, -82.29271688593731 26.219734720191354 M-80.55349447353595 28.015624653811393 C-81.10661551117217 27.444481770370263, -81.65973654880838 26.873338886929133, -82.29271688593731 26.219734720191354 M-82.29271688593731 26.219734720191354 C-82.74325929933961 25.690501964819425, -83.19380171274193 25.161269209447497, -83.91330281625315 24.316102272490614 M-82.29271688593731 26.219734720191354 C-82.92876745815855 25.472593525757443, -83.56481803037978 24.72545233132353, -83.91330281625315 24.316102272490614 M-83.91330281625315 24.316102272490614 C-84.34027673379734 23.743996121105504, -84.76725065134153 23.171889969720393, -85.40859292928127 22.31254974476463 M-83.91330281625315 24.316102272490614 C-84.3228505072025 23.767345677180685, -84.73239819815184 23.21858908187076, -85.40859292928127 22.31254974476463 M-85.40859292928127 22.31254974476463 C-85.77438959375466 21.750587837975583, -86.14018625822804 21.188625931186532, -86.7724427572085 20.217310164110497 M-85.40859292928127 22.31254974476463 C-85.85034782771997 21.6338955929631, -86.29210272615867 20.955241441161565, -86.7724427572085 20.217310164110497 M-86.7724427572085 20.217310164110497 C-87.1087925944646 19.620086968948023, -87.4451424317207 19.022863773785545, -87.99924794854701 18.038993319392578 M-86.7724427572085 20.217310164110497 C-87.25651543315662 19.357790110290853, -87.74058810910476 18.49827005647121, -87.99924794854701 18.038993319392578 M-87.99924794854701 18.038993319392578 C-88.23975511230135 17.53957504782776, -88.48026227605568 17.040156776262947, -89.08396729761668 15.786550381773372 M-87.99924794854701 18.038993319392578 C-88.41915910201493 17.16703882455706, -88.83907025548285 16.295084329721547, -89.08396729761668 15.786550381773372 M-89.08396729761668 15.786550381773372 C-89.40114234855336 15.003121873797324, -89.71831739949005 14.219693365821275, -90.02214345994065 13.46923712243102 M-89.08396729761668 15.786550381773372 C-89.36940730567481 15.081508043262668, -89.65484731373294 14.376465704751961, -90.02214345994065 13.46923712243102 M-90.02214345994065 13.46923712243102 C-90.30221687482695 12.625700620432138, -90.58229028971324 11.782164118433254, -90.80992126842976 11.096575878610265 M-90.02214345994065 13.46923712243102 C-90.19108973975115 12.960397845575939, -90.36003601956166 12.451558568720856, -90.80992126842976 11.096575878610265 M-90.80992126842976 11.096575878610265 C-91.05007898309464 10.180750427581168, -91.29023669775951 9.264924976552072, -91.44406357509112 8.678316424296272 M-90.80992126842976 11.096575878610265 C-91.03559392999652 10.235988212906008, -91.26126659156327 9.37540054720175, -91.44406357509112 8.678316424296272 M-91.44406357509112 8.678316424296272 C-91.6119551668033 7.8162285847546995, -91.77984675851548 6.954140745213127, -91.92196455316355 6.224395906301808 M-91.44406357509112 8.678316424296272 C-91.58912943525857 7.9334338920168, -91.73419529542602 7.188551359737328, -91.92196455316355 6.224395906301808 M-91.92196455316355 6.224395906301808 C-92.02281827826715 5.442194330218899, -92.12367200337077 4.65999275413599, -92.24166040501873 3.744898010399618 M-91.92196455316355 6.224395906301808 C-92.02640086475067 5.414408496914464, -92.13083717633779 4.60442108752712, -92.24166040501873 3.744898010399618 M-92.24166040501873 3.744898010399618 C-92.2750253965613 3.2252113353876295, -92.30839038810387 2.7055246603756404, -92.40183743182683 1.2500115252945563 M-92.24166040501873 3.744898010399618 C-92.29208327839699 2.9595210569224437, -92.34250615177525 2.1741441034452693, -92.40183743182683 1.2500115252945563 M-92.40183743182683 1.2500115252945563 C-92.40183743182683 0.32433220294951737, -92.40183743182683 -0.6013471193955215, -92.40183743182683 -1.2500115252945374 M-92.40183743182683 1.2500115252945563 C-92.40183743182683 0.2835255793817334, -92.40183743182683 -0.6829603665310895, -92.40183743182683 -1.2500115252945374 M-92.40183743182683 -1.2500115252945374 C-92.36619547044788 -1.8051638434451398, -92.33055350906892 -2.360316161595742, -92.24166040501873 -3.7448980103995644 M-92.40183743182683 -1.2500115252945374 C-92.36739776004421 -1.7864372125116605, -92.33295808826158 -2.3228628997287837, -92.24166040501873 -3.7448980103995644 M-92.24166040501873 -3.7448980103995644 C-92.16309248893423 -4.354255252561112, -92.08452457284972 -4.963612494722659, -91.92196455316355 -6.22439590630179 M-92.24166040501873 -3.7448980103995644 C-92.12264308918228 -4.667972809399759, -92.00362577334582 -5.591047608399952, -91.92196455316355 -6.22439590630179 M-91.92196455316355 -6.22439590630179 C-91.77298483714817 -6.98937526116662, -91.6240051211328 -7.754354616031449, -91.44406357509112 -8.678316424296252 M-91.92196455316355 -6.22439590630179 C-91.80777972551941 -6.810710863282602, -91.69359489787526 -7.397025820263414, -91.44406357509112 -8.678316424296252 M-91.44406357509112 -8.678316424296252 C-91.2176100497227 -9.541881862104795, -90.99115652435427 -10.40544729991334, -90.80992126842978 -11.096575878610246 M-91.44406357509112 -8.678316424296252 C-91.27340990687337 -9.329092822978232, -91.1027562386556 -9.979869221660213, -90.80992126842978 -11.096575878610246 M-90.80992126842978 -11.096575878610246 C-90.55933012795053 -11.851316467457568, -90.3087389874713 -12.606057056304891, -90.02214345994066 -13.46923712243097 M-90.80992126842978 -11.096575878610246 C-90.63346414803377 -11.628036610618928, -90.45700702763776 -12.15949734262761, -90.02214345994066 -13.46923712243097 M-90.02214345994066 -13.46923712243097 C-89.74860103587034 -14.144892198467682, -89.4750586118 -14.820547274504396, -89.08396729761668 -15.786550381773353 M-90.02214345994066 -13.46923712243097 C-89.69020009371843 -14.289143654688278, -89.3582567274962 -15.109050186945586, -89.08396729761668 -15.786550381773353 M-89.08396729761668 -15.786550381773353 C-88.72742483347686 -16.52691843734631, -88.37088236933705 -17.26728649291927, -87.99924794854701 -18.038993319392564 M-89.08396729761668 -15.786550381773353 C-88.79651320185802 -16.383454962148562, -88.50905910609937 -16.980359542523775, -87.99924794854701 -18.038993319392564 M-87.99924794854701 -18.038993319392564 C-87.5891206701414 -18.767215832092017, -87.17899339173579 -19.49543834479147, -86.7724427572085 -20.217310164110486 M-87.99924794854701 -18.038993319392564 C-87.66549097501185 -18.63161262246259, -87.33173400147668 -19.224231925532617, -86.7724427572085 -20.217310164110486 M-86.7724427572085 -20.217310164110486 C-86.35810632801659 -20.853842184259047, -85.94376989882468 -21.490374204407605, -85.40859292928128 -22.312549744764617 M-86.7724427572085 -20.217310164110486 C-86.3680722595102 -20.838531837257545, -85.9637017618119 -21.459753510404607, -85.40859292928128 -22.312549744764617 M-85.40859292928128 -22.312549744764617 C-84.90292281096683 -22.99010163581051, -84.39725269265237 -23.6676535268564, -83.91330281625318 -24.316102272490603 M-85.40859292928128 -22.312549744764617 C-84.8886481666637 -23.00922835872986, -84.36870340404612 -23.705906972695104, -83.91330281625318 -24.316102272490603 M-83.91330281625318 -24.316102272490603 C-83.41573196242179 -24.900577309984588, -82.91816110859041 -25.48505234747857, -82.29271688593732 -26.21973472019134 M-83.91330281625318 -24.316102272490603 C-83.37660466111363 -24.946538464507675, -82.83990650597408 -25.576974656524747, -82.29271688593732 -26.21973472019134 M-82.29271688593732 -26.21973472019134 C-81.8994429770723 -26.62582231948288, -81.50616906820727 -27.031909918774414, -80.55349447353599 -28.015624653811354 M-82.29271688593732 -26.21973472019134 C-81.61313219724441 -26.921461706207356, -80.9335475085515 -27.623188692223376, -80.55349447353599 -28.015624653811354 M-80.55349447353599 -28.015624653811354 C-80.16529100639863 -28.368180771364614, -79.77708753926127 -28.720736888917873, -78.70278241700377 -29.696392376396215 M-80.55349447353599 -28.015624653811354 C-79.82679258266137 -28.67559608362529, -79.10009069178673 -29.33556751343923, -78.70278241700377 -29.696392376396215 M-78.70278241700377 -29.696392376396215 C-78.18957156178416 -30.10566437631944, -77.67636070656455 -30.51493637624266, -76.74818568915744 -31.255131252850298 M-78.70278241700377 -29.696392376396215 C-78.09697509660137 -30.179507593207294, -77.49116777619896 -30.66262281001837, -76.74818568915744 -31.255131252850298 M-76.74818568915744 -31.255131252850298 C-75.92843382463631 -31.826954667053958, -75.1086819601152 -32.39877808125762, -74.69773614721143 -32.68543609078177 M-76.74818568915744 -31.255131252850298 C-76.21503089990463 -31.627036953934212, -75.68187611065183 -31.998942655018126, -74.69773614721143 -32.68543609078177 M-74.69773614721143 -32.68543609078177 C-74.07694887237217 -33.06176098494029, -73.45616159753291 -33.43808587909882, -72.55985952815358 -33.98142946081218 M-74.69773614721143 -32.68543609078177 C-74.11460423665427 -33.038934081825, -73.53147232609713 -33.392432072868225, -72.55985952815358 -33.98142946081218 M-72.55985952815358 -33.98142946081218 C-71.83725113928446 -34.35841379443244, -71.11464275041536 -34.73539812805269, -70.34334082558478 -35.13778584819434 M-72.55985952815358 -33.98142946081218 C-71.94185779765476 -34.30384056776442, -71.32385606715593 -34.626251674716656, -70.34334082558478 -35.13778584819434 M-70.34334082558478 -35.13778584819434 C-69.70592284106587 -35.41995188160816, -69.06850485654697 -35.70211791502199, -68.05728819029561 -36.14975353649484 M-70.34334082558478 -35.13778584819434 C-69.45406669584169 -35.53144112605181, -68.5647925660986 -35.92509640390927, -68.05728819029561 -36.14975353649484 M-68.05728819029561 -36.14975353649484 C-67.50834291175993 -36.3517704733905, -66.95939763322424 -36.55378741028616, -65.71109550292124 -37.013174133416065 M-68.05728819029561 -36.14975353649484 C-67.323727557736 -36.41971063023693, -66.59016692517639 -36.68966772397902, -65.71109550292124 -37.013174133416065 M-65.71109550292124 -37.013174133416065 C-64.99743322828644 -37.224985350437954, -64.28377095365163 -37.43679656745984, -63.314403772470826 -37.724499658522134 M-65.71109550292124 -37.013174133416065 C-64.92877691455098 -37.24536218397029, -64.1464583261807 -37.47755023452452, -63.314403772470826 -37.724499658522134 M-63.314403772470826 -37.724499658522134 C-62.57556328575439 -37.8931351782304, -61.83672279903796 -38.06177069793867, -60.87706151935353 -38.280807122651545 M-63.314403772470826 -37.724499658522134 C-62.66487429396071 -37.87275052341611, -62.01534481545059 -38.02100138831008, -60.87706151935353 -38.280807122651545 M-60.87706151935353 -38.280807122651545 C-60.0623538527032 -38.41252274004326, -59.247646186052854 -38.54423835743497, -58.409084305695764 -38.6798105391066 M-60.87706151935353 -38.280807122651545 C-60.22155394059156 -38.386784504448585, -59.56604636182959 -38.492761886245624, -58.409084305695764 -38.6798105391066 M-58.409084305695764 -38.6798105391066 C-57.84178099125617 -38.73453760756853, -57.27447767681658 -38.789264676030456, -55.92061357924781 -38.91987031726312 M-58.409084305695764 -38.6798105391066 C-57.62093635974199 -38.75584222356617, -56.832788413788215 -38.83187390802575, -55.92061357924781 -38.91987031726312 M-55.92061357924781 -38.91987031726312 C-55.07425338562221 -38.94701144133251, -54.22789319199661 -38.97415256540191, -53.421875000000014 -39 M-55.92061357924781 -38.91987031726312 C-55.23278364981449 -38.941927684320305, -54.54495372038118 -38.96398505137749, -53.421875000000014 -39 M-53.421875000000014 -39 C-53.421875000000014 -39, -53.42187500000001 -39, -53.421875 -39 M-53.421875000000014 -39 C-53.42187500000001 -39, -53.42187500000001 -39, -53.421875 -39" stroke="#E8833A" stroke-width="2" fill="none" stroke-dasharray="0 0" style="fill:#FFE9D6 !important;stroke:#E8833A !important;stroke-width:2px !important"/></g><g class="label" style="color:#7A3E12 !important" transform="translate(-75.171875, -31.5)"><rect/><foreignObject width="150.34375" height="63"><div style="color: rgb(122, 62, 18) !important; display: table-cell; white-space: nowrap; line-height: 1.5; max-width: 200px; text-align: center;" xmlns="http://www.w3.org/1999/xhtml"><span style="color:#7A3E12 !important" class="nodeLabel "><p>A worker BOOKS a flight<br />(it CHANGES the world,<br />not just reads it)</p></span></div></foreignObject></g></g><g class="node default gate " id="my-svg-flowchart-rule-2" data-look="classic" transform="translate(410.40184020996094, 239.5)"><rect class="basic label-container" style="fill:#FFF3CC !important;stroke:#C9A227 !important;stroke-width:2px !important" x="-130" y="-67.5" width="260" height="135"/><g class="label" style="color:#6B5410 !important" transform="translate(-100, -52.5)"><rect/><foreignObject width="200" height="105"><div style="color: rgb(107, 84, 16) !important; display: table; white-space: break-spaces; line-height: 1.5; max-width: 200px; text-align: center; width: 200px;" xmlns="http://www.w3.org/1999/xhtml"><span style="color:#6B5410 !important" class="nodeLabel "><p>Kernel safety rule:<br />once the world changes, old answers<br />MIGHT be wrong, so the whole<br />whiteboard gets WIPED clean.</p></span></div></foreignObject></g></g><g class="node default deny " id="my-svg-flowchart-wipe-3" data-look="classic" transform="translate(410.40184020996094, 430.21324157714844)"><path d="M0,15.808823529411764 a107.5,15.808823529411764 0,0,0 215,0 a107.5,15.808823529411764 0,0,0 -215,0 l0,114.80882352941177 a107.5,15.808823529411764 0,0,0 215,0 l0,-114.80882352941177" class="basic label-container outer-path" style="fill:#FBDDDD !important;stroke:#C9453F !important;stroke-width:2px !important" label-offset-y="15.808823529411764" transform="translate(-107.5, -73.21323529411765)"/><g class="label" style="color:#6E1F1B !important" transform="translate(-100, -32)"><rect/><foreignObject width="200" height="84"><div style="color: rgb(110, 31, 27) !important; display: table; white-space: break-spaces; line-height: 1.5; max-width: 200px; text-align: center; width: 200px;" xmlns="http://www.w3.org/1999/xhtml"><span style="color:#6E1F1B !important" class="nodeLabel "><p>WHITEBOARD WIPED<br />everyone's saved answers gone.<br />Next reader pays full price again.</p></span></div></foreignObject></g></g><g class="node default world " id="my-svg-flowchart-cost-4" data-look="classic" transform="translate(410.40184020996094, 631.4264831542969)"><rect class="basic label-container" style="fill:#FCEEDB !important;stroke:#B5792B !important;stroke-width:2px !important" x="-130" y="-78" width="260" height="156"/><g class="label" style="color:#5E3D12 !important" transform="translate(-100, -63)"><rect/><foreignObject width="200" height="126"><div style="color: rgb(94, 61, 18) !important; display: table; white-space: break-spaces; line-height: 1.5; max-width: 200px; text-align: center; width: 200px;" xmlns="http://www.w3.org/1999/xhtml"><span style="color:#5E3D12 !important" class="nodeLabel "><p>In a big team, ONE worker's booking<br />wipes the board for EVERYONE.<br />The lonely worker who never shares<br />never pays this penalty.</p></span></div></foreignObject></g></g><g class="node default deny " id="my-svg-flowchart-cross-5" data-look="classic" transform="translate(410.40184020996094, 837.4264831542969)"><rect class="basic label-container" style="fill:#FBDDDD !important;stroke:#C9453F !important;stroke-width:2px !important" x="-130" y="-78" width="260" height="156"/><g class="label" style="color:#6E1F1B !important" transform="translate(-100, -63)"><rect/><foreignObject width="200" height="126"><div style="color: rgb(110, 31, 27) !important; display: table; white-space: break-spaces; line-height: 1.5; max-width: 200px; text-align: center; width: 200px;" xmlns="http://www.w3.org/1999/xhtml"><span style="color:#6E1F1B !important" class="nodeLabel "><p>We measured the tipping point:<br />if even 1 action in 100 is a booking,<br />the wiping happens so often that<br />sharing becomes a NET LOSS.</p></span></div></foreignObject></g></g><g class="node default kernel " id="my-svg-flowchart-verdict-6" data-look="classic" transform="translate(410.40184020996094, 1074.9264831542969)"><rect class="basic label-container" style="fill:#DCE9FB !important;stroke:#3B6FB5 !important;stroke-width:2px !important" x="-130" y="-109.5" width="260" height="219"/><g class="label" style="color:#1B3A66 !important" transform="translate(-100, -94.5)"><rect/><foreignObject width="200" height="189"><div style="color: rgb(27, 58, 102) !important; display: table; white-space: break-spaces; line-height: 1.5; max-width: 200px; text-align: center; width: 200px;" xmlns="http://www.w3.org/1999/xhtml"><span style="color:#1B3A66 !important" class="nodeLabel "><p>BOTTOM LINE (read this):<br />* read-only fleets (research, lookups, monitoring):<br />  sharing is a big, clean win that grows with team size.<br />* fleets that write a lot: sharing back-fires<br />  because the safety-wipe is too broad.</p></span></div></foreignObject></g></g><g class="node default pass " id="my-svg-flowchart-fix-7" data-look="classic" transform="translate(410.40184020996094, 1322.9264831542969)"><rect class="basic label-container" style="fill:#DBF3E1 !important;stroke:#3FA45F !important;stroke-width:2px !important" x="-130" y="-88.5" width="260" height="177"/><g class="label" style="color:#1C5230 !important" transform="translate(-100, -73.5)"><rect/><foreignObject width="200" height="147"><div style="color: rgb(28, 82, 48) !important; display: table; white-space: break-spaces; line-height: 1.5; max-width: 200px; text-align: center; width: 200px;" xmlns="http://www.w3.org/1999/xhtml"><span style="color:#1C5230 !important" class="nodeLabel "><p>The lead this hands us:<br />wipe ONLY the one answer that changed,<br />not the whole board (a finer eraser).<br />That would push the tipping point way out.</p></span></div></foreignObject></g></g></g></g></g><defs><filter id="my-svg-drop-shadow" height="130%" width="130%"><feDropShadow dx="4" dy="4" stdDeviation="0" flood-opacity="0.06" flood-color="#000000"/></filter></defs><defs><filter id="my-svg-drop-shadow-small" height="150%" width="150%"><feDropShadow dx="2" dy="2" stdDeviation="0" flood-opacity="0.06" flood-color="#000000"/></filter></defs><linearGradient id="my-svg-gradient" gradientUnits="objectBoundingBox" x1="0%" y1="0%" x2="100%" y2="0%"><stop offset="0%" stop-color="#3B6FB5" stop-opacity="1"/><stop offset="100%" stop-color="hsl(94.8387096774, 39.4871794872%, 82.3529411765%)" stop-opacity="1"/></linearGradient></svg>