<svg id="my-svg" width="607" height="960" xmlns="http://www.w3.org/2000/svg" xmlns:xlink="http://www.w3.org/1999/xlink" class="flowchart" style="max-width: 606.718px; background-color: white;" viewBox="0 0 606.718017578125 960" role="graphics-document document" aria-roledescription="flowchart-v2"><style>#my-svg{font-size:14px;fill:#1B3A66;}@keyframes edge-animation-frame{from{stroke-dashoffset:0;}}@keyframes dash{to{stroke-dashoffset:0;}}#my-svg .edge-animation-slow{stroke-dasharray:9,5!important;stroke-dashoffset:900;animation:dash 50s linear infinite;stroke-linecap:round;}#my-svg .edge-animation-fast{stroke-dasharray:9,5!important;stroke-dashoffset:900;animation:dash 20s linear infinite;stroke-linecap:round;}#my-svg .error-icon{fill:hsl(34.8387096774, 79.4871794872%, 97.3529411765%);}#my-svg .error-text{fill:rgb(1.3846153846, 5.8846153846, 12.1153846153);stroke:rgb(1.3846153846, 5.8846153846, 12.1153846153);}#my-svg .edge-thickness-normal{stroke-width:1px;}#my-svg .edge-thickness-thick{stroke-width:3.5px;}#my-svg .edge-pattern-solid{stroke-dasharray:0;}#my-svg .edge-thickness-invisible{stroke-width:0;fill:none;}#my-svg .edge-pattern-dashed{stroke-dasharray:3;}#my-svg .edge-pattern-dotted{stroke-dasharray:2;}#my-svg .marker{fill:#5B6B7B;stroke:#5B6B7B;}#my-svg .marker.cross{stroke:#5B6B7B;}#my-svg svg{font-size:14px;}#my-svg p{margin:0;}#my-svg .label{color:#1B3A66;}#my-svg .cluster-label text{fill:rgb(1.3846153846, 5.8846153846, 12.1153846153);}#my-svg .cluster-label span{color:rgb(1.3846153846, 5.8846153846, 12.1153846153);}#my-svg .cluster-label span p{background-color:transparent;}#my-svg .label text,#my-svg span{fill:#1B3A66;color:#1B3A66;}#my-svg .node rect,#my-svg .node circle,#my-svg .node ellipse,#my-svg .node polygon,#my-svg .node path{fill:#DCE9FB;stroke:#3B6FB5;stroke-width:1px;}#my-svg .rough-node .label text,#my-svg .node .label text,#my-svg .image-shape .label,#my-svg .icon-shape .label{text-anchor:middle;}#my-svg .node .katex path{fill:#000;stroke:#000;stroke-width:1px;}#my-svg .rough-node .label,#my-svg .node .label,#my-svg .image-shape .label,#my-svg .icon-shape .label{text-align:center;}#my-svg .node.clickable{cursor:pointer;}#my-svg .root .anchor path{fill:#5B6B7B!important;stroke-width:0;stroke:#5B6B7B;}#my-svg .arrowheadPath{fill:#0b0b0b;}#my-svg .edgePath .path{stroke:#5B6B7B;stroke-width:1px;}#my-svg .flowchart-link{stroke:#5B6B7B;fill:none;}#my-svg .edgeLabel{background-color:hsl(94.8387096774, 79.4871794872%, 92.3529411765%);text-align:center;}#my-svg .edgeLabel p{background-color:hsl(94.8387096774, 79.4871794872%, 92.3529411765%);}#my-svg .edgeLabel rect{opacity:0.5;background-color:hsl(94.8387096774, 79.4871794872%, 92.3529411765%);fill:hsl(94.8387096774, 79.4871794872%, 92.3529411765%);}#my-svg .labelBkg{background-color:rgba(233.0000000001, 251, 220.0000000001, 0.5);}#my-svg .cluster rect{fill:#F7F9FB;stroke:#AFC0CE;stroke-width:1px;}#my-svg .cluster text{fill:rgb(1.3846153846, 5.8846153846, 12.1153846153);}#my-svg .cluster span{color:rgb(1.3846153846, 5.8846153846, 12.1153846153);}#my-svg div.mermaidTooltip{position:absolute;text-align:center;max-width:200px;padding:2px;font-size:12px;background:hsl(34.8387096774, 79.4871794872%, 97.3529411765%);border:1px solid hsl(34.8387096774, 39.4871794872%, 87.3529411765%);border-radius:2px;pointer-events:none;z-index:100;}#my-svg .flowchartTitleText{text-anchor:middle;font-size:18px;fill:#1B3A66;}#my-svg rect.text{fill:none;stroke-width:0;}#my-svg .icon-shape,#my-svg .image-shape{background-color:hsl(94.8387096774, 79.4871794872%, 92.3529411765%);text-align:center;}#my-svg .icon-shape p,#my-svg .image-shape p{background-color:hsl(94.8387096774, 79.4871794872%, 92.3529411765%);padding:2px;}#my-svg .icon-shape .label rect,#my-svg .image-shape .label rect{opacity:0.5;background-color:hsl(94.8387096774, 79.4871794872%, 92.3529411765%);fill:hsl(94.8387096774, 79.4871794872%, 92.3529411765%);}#my-svg .label-icon{display:inline-block;height:1em;overflow:visible;vertical-align:-0.125em;}#my-svg .node .label-icon path{fill:currentColor;stroke:revert;stroke-width:revert;}#my-svg .node .neo-node{stroke:#3B6FB5;}#my-svg [data-look="neo"].node rect,#my-svg [data-look="neo"].cluster rect,#my-svg [data-look="neo"].node polygon{stroke:url(#my-svg-gradient);filter:drop-shadow( 1px 2px 2px rgba(185,185,185,1));}#my-svg [data-look="neo"].node path{stroke:url(#my-svg-gradient);stroke-width:1px;}#my-svg [data-look="neo"].node .outer-path{filter:drop-shadow( 1px 2px 2px rgba(185,185,185,1));}#my-svg [data-look="neo"].node .neo-line path{stroke:#3B6FB5;filter:none;}#my-svg [data-look="neo"].node circle{stroke:url(#my-svg-gradient);filter:drop-shadow( 1px 2px 2px rgba(185,185,185,1));}#my-svg [data-look="neo"].node circle .state-start{fill:#000000;}#my-svg [data-look="neo"].icon-shape .icon{fill:url(#my-svg-gradient);filter:drop-shadow( 1px 2px 2px rgba(185,185,185,1));}#my-svg [data-look="neo"].icon-shape .icon-neo path{stroke:url(#my-svg-gradient);filter:drop-shadow( 1px 2px 2px rgba(185,185,185,1));}#my-svg :root{--mermaid-font-family:"trebuchet ms",verdana,arial,sans-serif;}#my-svg .untrusted rect{fill:rgb(255, 233, 214)!important;stroke:rgb(232, 131, 58)!important;stroke-width:2px!important;color:rgb(122, 62, 18)!important;}#my-svg .untrusted polygon{fill:rgb(255, 233, 214)!important;stroke:rgb(232, 131, 58)!important;stroke-width:2px!important;color:rgb(122, 62, 18)!important;}#my-svg .untrusted ellipse{fill:rgb(255, 233, 214)!important;stroke:rgb(232, 131, 58)!important;stroke-width:2px!important;color:rgb(122, 62, 18)!important;}#my-svg .untrusted circle{fill:rgb(255, 233, 214)!important;stroke:rgb(232, 131, 58)!important;stroke-width:2px!important;color:rgb(122, 62, 18)!important;}#my-svg .untrusted path{fill:rgb(255, 233, 214)!important;stroke:rgb(232, 131, 58)!important;stroke-width:2px!important;color:rgb(122, 62, 18)!important;}#my-svg .untrusted tspan{fill:rgb(122, 62, 18)!important;}#my-svg .kernel rect{fill:rgb(220, 233, 251)!important;stroke:rgb(59, 111, 181)!important;stroke-width:2px!important;color:rgb(27, 58, 102)!important;}#my-svg .kernel polygon{fill:rgb(220, 233, 251)!important;stroke:rgb(59, 111, 181)!important;stroke-width:2px!important;color:rgb(27, 58, 102)!important;}#my-svg .kernel ellipse{fill:rgb(220, 233, 251)!important;stroke:rgb(59, 111, 181)!important;stroke-width:2px!important;color:rgb(27, 58, 102)!important;}#my-svg .kernel circle{fill:rgb(220, 233, 251)!important;stroke:rgb(59, 111, 181)!important;stroke-width:2px!important;color:rgb(27, 58, 102)!important;}#my-svg .kernel path{fill:rgb(220, 233, 251)!important;stroke:rgb(59, 111, 181)!important;stroke-width:2px!important;color:rgb(27, 58, 102)!important;}#my-svg .kernel tspan{fill:rgb(27, 58, 102)!important;}#my-svg .gate rect{fill:rgb(255, 243, 204)!important;stroke:rgb(201, 162, 39)!important;stroke-width:2px!important;color:rgb(107, 84, 16)!important;}#my-svg .gate polygon{fill:rgb(255, 243, 204)!important;stroke:rgb(201, 162, 39)!important;stroke-width:2px!important;color:rgb(107, 84, 16)!important;}#my-svg .gate ellipse{fill:rgb(255, 243, 204)!important;stroke:rgb(201, 162, 39)!important;stroke-width:2px!important;color:rgb(107, 84, 16)!important;}#my-svg .gate circle{fill:rgb(255, 243, 204)!important;stroke:rgb(201, 162, 39)!important;stroke-width:2px!important;color:rgb(107, 84, 16)!important;}#my-svg .gate path{fill:rgb(255, 243, 204)!important;stroke:rgb(201, 162, 39)!important;stroke-width:2px!important;color:rgb(107, 84, 16)!important;}#my-svg .gate tspan{fill:rgb(107, 84, 16)!important;}#my-svg .pass rect{fill:rgb(219, 243, 225)!important;stroke:rgb(63, 164, 95)!important;stroke-width:2px!important;color:rgb(28, 82, 48)!important;}#my-svg .pass polygon{fill:rgb(219, 243, 225)!important;stroke:rgb(63, 164, 95)!important;stroke-width:2px!important;color:rgb(28, 82, 48)!important;}#my-svg .pass ellipse{fill:rgb(219, 243, 225)!important;stroke:rgb(63, 164, 95)!important;stroke-width:2px!important;color:rgb(28, 82, 48)!important;}#my-svg .pass circle{fill:rgb(219, 243, 225)!important;stroke:rgb(63, 164, 95)!important;stroke-width:2px!important;color:rgb(28, 82, 48)!important;}#my-svg .pass path{fill:rgb(219, 243, 225)!important;stroke:rgb(63, 164, 95)!important;stroke-width:2px!important;color:rgb(28, 82, 48)!important;}#my-svg .pass tspan{fill:rgb(28, 82, 48)!important;}#my-svg .deny rect{fill:rgb(251, 221, 221)!important;stroke:rgb(201, 69, 63)!important;stroke-width:2px!important;color:rgb(110, 31, 27)!important;}#my-svg .deny polygon{fill:rgb(251, 221, 221)!important;stroke:rgb(201, 69, 63)!important;stroke-width:2px!important;color:rgb(110, 31, 27)!important;}#my-svg .deny ellipse{fill:rgb(251, 221, 221)!important;stroke:rgb(201, 69, 63)!important;stroke-width:2px!important;color:rgb(110, 31, 27)!important;}#my-svg .deny circle{fill:rgb(251, 221, 221)!important;stroke:rgb(201, 69, 63)!important;stroke-width:2px!important;color:rgb(110, 31, 27)!important;}#my-svg .deny path{fill:rgb(251, 221, 221)!important;stroke:rgb(201, 69, 63)!important;stroke-width:2px!important;color:rgb(110, 31, 27)!important;}#my-svg .deny tspan{fill:rgb(110, 31, 27)!important;}#my-svg .mem rect{fill:rgb(237, 231, 251)!important;stroke:rgb(123, 91, 192)!important;stroke-width:2px!important;color:rgb(58, 42, 102)!important;}#my-svg .mem polygon{fill:rgb(237, 231, 251)!important;stroke:rgb(123, 91, 192)!important;stroke-width:2px!important;color:rgb(58, 42, 102)!important;}#my-svg .mem ellipse{fill:rgb(237, 231, 251)!important;stroke:rgb(123, 91, 192)!important;stroke-width:2px!important;color:rgb(58, 42, 102)!important;}#my-svg .mem circle{fill:rgb(237, 231, 251)!important;stroke:rgb(123, 91, 192)!important;stroke-width:2px!important;color:rgb(58, 42, 102)!important;}#my-svg .mem path{fill:rgb(237, 231, 251)!important;stroke:rgb(123, 91, 192)!important;stroke-width:2px!important;color:rgb(58, 42, 102)!important;}#my-svg .mem tspan{fill:rgb(58, 42, 102)!important;}#my-svg .cheap rect{fill:rgb(232, 236, 239)!important;stroke:rgb(122, 138, 153)!important;stroke-width:1.5px!important;color:rgb(51, 66, 79)!important;}#my-svg .cheap polygon{fill:rgb(232, 236, 239)!important;stroke:rgb(122, 138, 153)!important;stroke-width:1.5px!important;color:rgb(51, 66, 79)!important;}#my-svg .cheap ellipse{fill:rgb(232, 236, 239)!important;stroke:rgb(122, 138, 153)!important;stroke-width:1.5px!important;color:rgb(51, 66, 79)!important;}#my-svg .cheap circle{fill:rgb(232, 236, 239)!important;stroke:rgb(122, 138, 153)!important;stroke-width:1.5px!important;color:rgb(51, 66, 79)!important;}#my-svg .cheap path{fill:rgb(232, 236, 239)!important;stroke:rgb(122, 138, 153)!important;stroke-width:1.5px!important;color:rgb(51, 66, 79)!important;}#my-svg .cheap tspan{fill:rgb(51, 66, 79)!important;}#my-svg .world rect{fill:rgb(252, 238, 219)!important;stroke:rgb(181, 121, 43)!important;stroke-width:2px!important;color:rgb(94, 61, 18)!important;}#my-svg .world polygon{fill:rgb(252, 238, 219)!important;stroke:rgb(181, 121, 43)!important;stroke-width:2px!important;color:rgb(94, 61, 18)!important;}#my-svg .world ellipse{fill:rgb(252, 238, 219)!important;stroke:rgb(181, 121, 43)!important;stroke-width:2px!important;color:rgb(94, 61, 18)!important;}#my-svg .world circle{fill:rgb(252, 238, 219)!important;stroke:rgb(181, 121, 43)!important;stroke-width:2px!important;color:rgb(94, 61, 18)!important;}#my-svg .world path{fill:rgb(252, 238, 219)!important;stroke:rgb(181, 121, 43)!important;stroke-width:2px!important;color:rgb(94, 61, 18)!important;}#my-svg .world tspan{fill:rgb(94, 61, 18)!important;}#my-svg .frontier rect{fill:rgb(231, 217, 245)!important;stroke:rgb(138, 83, 192)!important;stroke-width:2px!important;color:rgb(63, 36, 102)!important;}#my-svg .frontier polygon{fill:rgb(231, 217, 245)!important;stroke:rgb(138, 83, 192)!important;stroke-width:2px!important;color:rgb(63, 36, 102)!important;}#my-svg .frontier ellipse{fill:rgb(231, 217, 245)!important;stroke:rgb(138, 83, 192)!important;stroke-width:2px!important;color:rgb(63, 36, 102)!important;}#my-svg .frontier circle{fill:rgb(231, 217, 245)!important;stroke:rgb(138, 83, 192)!important;stroke-width:2px!important;color:rgb(63, 36, 102)!important;}#my-svg .frontier path{fill:rgb(231, 217, 245)!important;stroke:rgb(138, 83, 192)!important;stroke-width:2px!important;color:rgb(63, 36, 102)!important;}#my-svg .frontier tspan{fill:rgb(63, 36, 102)!important;}#my-svg .note rect{fill:rgb(247, 249, 251)!important;stroke:rgb(175, 192, 206)!important;stroke-width:1px!important;color:rgb(70, 88, 106)!important;}#my-svg .note polygon{fill:rgb(247, 249, 251)!important;stroke:rgb(175, 192, 206)!important;stroke-width:1px!important;color:rgb(70, 88, 106)!important;}#my-svg .note ellipse{fill:rgb(247, 249, 251)!important;stroke:rgb(175, 192, 206)!important;stroke-width:1px!important;color:rgb(70, 88, 106)!important;}#my-svg .note circle{fill:rgb(247, 249, 251)!important;stroke:rgb(175, 192, 206)!important;stroke-width:1px!important;color:rgb(70, 88, 106)!important;}#my-svg .note path{fill:rgb(247, 249, 251)!important;stroke:rgb(175, 192, 206)!important;stroke-width:1px!important;color:rgb(70, 88, 106)!important;}#my-svg .note tspan{fill:rgb(70, 88, 106)!important;}</style><g><marker id="my-svg_flowchart-v2-pointEnd" class="marker flowchart-v2" viewBox="0 0 10 10" refX="5" refY="5" markerUnits="userSpaceOnUse" markerWidth="8" markerHeight="8" orient="auto"><path d="M 0 0 L 10 5 L 0 10 z" class="arrowMarkerPath" style="stroke-width: 1; stroke-dasharray: 1, 0;"/></marker><marker id="my-svg_flowchart-v2-pointStart" class="marker flowchart-v2" viewBox="0 0 10 10" refX="4.5" refY="5" markerUnits="userSpaceOnUse" markerWidth="8" markerHeight="8" orient="auto"><path d="M 0 5 L 10 10 L 10 0 z" class="arrowMarkerPath" style="stroke-width: 1; stroke-dasharray: 1, 0;"/></marker><marker id="my-svg_flowchart-v2-pointEnd-margin" class="marker flowchart-v2" viewBox="0 0 11.5 14" refX="11.5" refY="7" markerUnits="userSpaceOnUse" markerWidth="10.5" markerHeight="14" orient="auto"><path d="M 0 0 L 11.5 7 L 0 14 z" class="arrowMarkerPath" style="stroke-width: 0; stroke-dasharray: 1, 0;"/></marker><marker id="my-svg_flowchart-v2-pointStart-margin" class="marker flowchart-v2" viewBox="0 0 11.5 14" refX="1" refY="7" markerUnits="userSpaceOnUse" markerWidth="11.5" markerHeight="14" orient="auto"><polygon points="0,7 11.5,14 11.5,0" class="arrowMarkerPath" style="stroke-width: 0; stroke-dasharray: 1, 0;"/></marker><marker id="my-svg_flowchart-v2-circleEnd" class="marker flowchart-v2" viewBox="0 0 10 10" refX="11" refY="5" markerUnits="userSpaceOnUse" markerWidth="11" markerHeight="11" orient="auto"><circle cx="5" cy="5" r="5" class="arrowMarkerPath" style="stroke-width: 1; stroke-dasharray: 1, 0;"/></marker><marker id="my-svg_flowchart-v2-circleStart" class="marker flowchart-v2" viewBox="0 0 10 10" refX="-1" refY="5" markerUnits="userSpaceOnUse" markerWidth="11" markerHeight="11" orient="auto"><circle cx="5" cy="5" r="5" class="arrowMarkerPath" style="stroke-width: 1; stroke-dasharray: 1, 0;"/></marker><marker id="my-svg_flowchart-v2-circleEnd-margin" class="marker flowchart-v2" viewBox="0 0 10 10" refY="5" refX="12.25" markerUnits="userSpaceOnUse" markerWidth="14" markerHeight="14" orient="auto"><circle cx="5" cy="5" r="5" class="arrowMarkerPath" style="stroke-width: 0; stroke-dasharray: 1, 0;"/></marker><marker id="my-svg_flowchart-v2-circleStart-margin" class="marker flowchart-v2" viewBox="0 0 10 10" refX="-2" refY="5" markerUnits="userSpaceOnUse" markerWidth="14" markerHeight="14" orient="auto"><circle cx="5" cy="5" r="5" class="arrowMarkerPath" style="stroke-width: 0; stroke-dasharray: 1, 0;"/></marker><marker id="my-svg_flowchart-v2-crossEnd" class="marker cross flowchart-v2" viewBox="0 0 11 11" refX="12" refY="5.2" markerUnits="userSpaceOnUse" markerWidth="11" markerHeight="11" orient="auto"><path d="M 1,1 l 9,9 M 10,1 l -9,9" class="arrowMarkerPath" style="stroke-width: 2; stroke-dasharray: 1, 0;"/></marker><marker id="my-svg_flowchart-v2-crossStart" class="marker cross flowchart-v2" viewBox="0 0 11 11" refX="-1" refY="5.2" markerUnits="userSpaceOnUse" markerWidth="11" markerHeight="11" orient="auto"><path d="M 1,1 l 9,9 M 10,1 l -9,9" class="arrowMarkerPath" style="stroke-width: 2; stroke-dasharray: 1, 0;"/></marker><marker id="my-svg_flowchart-v2-crossEnd-margin" class="marker cross flowchart-v2" viewBox="0 0 15 15" refX="17.7" refY="7.5" markerUnits="userSpaceOnUse" markerWidth="12" markerHeight="12" orient="auto"><path d="M 1,1 L 14,14 M 1,14 L 14,1" class="arrowMarkerPath" style="stroke-width: 2.5;"/></marker><marker id="my-svg_flowchart-v2-crossStart-margin" class="marker cross flowchart-v2" viewBox="0 0 15 15" refX="-3.5" refY="7.5" markerUnits="userSpaceOnUse" markerWidth="12" markerHeight="12" orient="auto"><path d="M 1,1 L 14,14 M 1,14 L 14,1" class="arrowMarkerPath" style="stroke-width: 2.5; stroke-dasharray: 1, 0;"/></marker><g class="root"><g class="clusters"><g class="cluster " id="my-svg-CHAIN" data-look="classic"><rect style="" x="20.11035919189453" y="254.99999809265137" width="541.107666015625" height="328"/><g class="cluster-label " transform="translate(53.76575469970703, 254.99999809265137)"><g><rect class="background" style="stroke: none"/><text y="-10.1" style=""><tspan class="text-outer-tspan row" x="0" y="-0.1em" dy="1.1em"><tspan font-style="normal" class="text-inner-tspan" font-weight="normal">the</tspan><tspan font-style="normal" class="text-inner-tspan" font-weight="normal"> ResultAdmitter</tspan><tspan font-style="normal" class="text-inner-tspan" font-weight="normal"> chain</tspan><tspan font-style="normal" class="text-inner-tspan" font-weight="normal"> —</tspan><tspan font-style="normal" class="text-inner-tspan" font-weight="normal"> most-restrictive</tspan><tspan font-style="normal" class="text-inner-tspan" font-weight="normal"> verdict</tspan><tspan font-style="normal" class="text-inner-tspan" font-weight="normal"> wins</tspan><tspan font-style="normal" class="text-inner-tspan" font-weight="normal"> (a</tspan><tspan font-style="normal" class="text-inner-tspan" font-weight="normal"> monotone</tspan><tspan font-style="normal" class="text-inner-tspan" font-weight="normal"> fold)</tspan></tspan></text></g></g></g></g><g class="edgePaths"><path d="M123.11,125.5L123.027,141.25C122.944,157,122.777,188.5,122.694,210.083C122.61,231.667,122.61,243.333,129.726,253.016C136.841,262.699,151.072,270.398,158.188,274.247L165.303,278.097" id="my-svg-L_res_ng_0" class=" edge-thickness-normal edge-pattern-solid edge-thickness-normal edge-pattern-solid flowchart-link" style=";" data-edge="true" data-et="edge" data-id="L_res_ng_0" data-points="W3sieCI6MTIzLjExMDM1OTE5MTg5NDUzLCJ5IjoxMjUuNX0seyJ4IjoxMjIuNjEwMzU5MTkxODk0NTMsInkiOjIxOS45OTk5OTkwNDYzMjU2OH0seyJ4IjoxMjIuNjEwMzU5MTkxODk0NTMsInkiOjI1NC45OTk5OTgwOTI2NTEzN30seyJ4IjoxNjguODIxMjY2OTE4NjQ3NTgsInkiOjI3OS45OTk5OTgwOTI2NTEzN31d" data-look="classic" marker-end="url(#my-svg_flowchart-v2-pointEnd)"/><path d="M359.012,394L365.213,398.167C371.414,402.333,383.816,410.667,390.017,418.333C396.218,426,396.218,433,396.218,436.5L396.218,440" id="my-svg-L_ng_mmu_0" class=" edge-thickness-normal edge-pattern-solid edge-thickness-normal edge-pattern-solid flowchart-link" style=";" data-edge="true" data-et="edge" data-id="L_ng_mmu_0" data-points="W3sieCI6MzU5LjAxMTk2MTU4ODA0NTQ0LCJ5IjozOTMuOTk5OTk4MDkyNjUxMzd9LHsieCI6Mzk2LjIxODAyNTIwNzUxOTUzLCJ5Ijo0MTguOTk5OTk4MDkyNjUxMzd9LHsieCI6Mzk2LjIxODAyNTIwNzUxOTUzLCJ5Ijo0NDMuOTk5OTk4MDkyNjUxMzd9XQ==" data-look="classic" marker-end="url(#my-svg_flowchart-v2-pointEnd)"/><path d="M189.352,394L183.151,398.167C176.95,402.333,164.548,410.667,158.347,428.5C152.146,446.333,152.146,473.667,152.146,501C152.146,528.333,152.146,555.667,152.146,575.167C152.146,594.667,152.146,606.333,163.315,617.704C174.485,629.074,196.823,640.149,207.992,645.686L219.162,651.223" id="my-svg-L_ng_sealed_0" class=" edge-thickness-normal edge-pattern-solid edge-thickness-normal edge-pattern-solid flowchart-link" style=";" data-edge="true" data-et="edge" data-id="L_ng_sealed_0" data-points="W3sieCI6MTg5LjM1MjMxMTQ4MzI0MzYyLCJ5IjozOTMuOTk5OTk4MDkyNjUxMzd9LHsieCI6MTUyLjE0NjI0Nzg2Mzc2OTUzLCJ5Ijo0MTguOTk5OTk4MDkyNjUxMzd9LHsieCI6MTUyLjE0NjI0Nzg2Mzc2OTUzLCJ5Ijo1MDAuOTk5OTk4MDkyNjUxMzd9LHsieCI6MTUyLjE0NjI0Nzg2Mzc2OTUzLCJ5Ijo1ODIuOTk5OTk4MDkyNjUxNH0seyJ4IjoxNTIuMTQ2MjQ3ODYzNzY5NTMsInkiOjYxNy45OTk5OTcxMzg5Nzd9LHsieCI6MjIyLjc0NTUyMTQ5MTIzODA3LCJ5Ijo2NTIuOTk5OTk2MTg1MzAyN31d" data-look="classic" marker-end="url(#my-svg_flowchart-v2-pointEnd)"/><path d="M396.218,558L396.218,562.167C396.218,566.333,396.218,574.667,396.218,584.667C396.218,594.667,396.218,606.333,385.049,617.704C373.88,629.074,351.541,640.149,340.372,645.686L329.203,651.223" id="my-svg-L_mmu_sealed_0" class=" edge-thickness-normal edge-pattern-solid edge-thickness-normal edge-pattern-solid flowchart-link" style=";" data-edge="true" data-et="edge" data-id="L_mmu_sealed_0" data-points="W3sieCI6Mzk2LjIxODAyNTIwNzUxOTUzLCJ5Ijo1NTcuOTk5OTk4MDkyNjUxNH0seyJ4IjozOTYuMjE4MDI1MjA3NTE5NTMsInkiOjU4Mi45OTk5OTgwOTI2NTE0fSx7IngiOjM5Ni4yMTgwMjUyMDc1MTk1MywieSI6NjE3Ljk5OTk5NzEzODk3N30seyJ4IjozMjUuNjE4NzUxNTgwMDUxLCJ5Ijo2NTIuOTk5OTk2MTg1MzAyN31d" data-look="classic" marker-end="url(#my-svg_flowchart-v2-pointEnd)"/><path d="M274.182,704L274.182,708.167C274.182,712.333,274.182,720.667,274.182,729C274.182,737.333,274.182,745.667,274.182,749.833L274.182,754" id="my-svg-L_sealed_note_0" class=" edge-thickness-normal edge-pattern-dotted edge-thickness-normal edge-pattern-solid flowchart-link" style=";" data-edge="true" data-et="edge" data-id="L_sealed_note_0" data-points="W3sieCI6Mjc0LjE4MjEzNjUzNTY0NDUzLCJ5Ijo3MDMuOTk5OTk2MTg1MzAyN30seyJ4IjoyNzQuMTgyMTM2NTM1NjQ0NTMsInkiOjcyOC45OTk5OTYxODUzMDI3fSx7IngiOjI3NC4xODIxMzY1MzU2NDQ1MywieSI6NzUzLjk5OTk5NjE4NTMwMjd9XQ==" data-look="classic"/><path d="M468.718,185L468.718,190.833C468.718,196.667,468.718,208.333,468.718,219.333C468.718,230.333,468.718,240.667,468.718,245.833L468.718,251" id="my-svg-L_slot_CHAIN_0" class=" edge-thickness-normal edge-pattern-dotted edge-thickness-normal edge-pattern-solid flowchart-link" style=";" data-edge="true" data-et="edge" data-id="L_slot_CHAIN_0" data-points="W3sieCI6NDY4LjcxODAyNTIwNzUxOTUzLCJ5IjoxODV9LHsieCI6NDY4LjcxODAyNTIwNzUxOTUzLCJ5IjoyMTkuOTk5OTk5MDQ2MzI1Njh9LHsieCI6NDY4LjcxODAyNTIwNzUxOTUzLCJ5IjoyNTQuOTk5OTk4MDkyNjUxMzd9LHsieCI6NDA0LjE4MjEzNjUzNTY0NDUzLCJ5IjoyODIuMjAyOTExMTc1Nzk4MjV9XQ==" data-look="classic" marker-end="url(#my-svg_flowchart-v2-pointEnd)"/></g><g class="edgeLabels"><g class="edgeLabel"><g class="label" data-id="L_res_ng_0" transform="translate(0, 0)"><text y="-10.1" text-anchor="middle"><tspan class="text-outer-tspan row" x="0" y="-0.1em" dy="1.1em" text-anchor="middle"/></text></g></g><g><rect class="background" style="stroke: none"/></g><g class="edgeLabel"><g class="label" data-id="L_ng_mmu_0" transform="translate(0, 0)"><text y="-10.1" text-anchor="middle"><tspan class="text-outer-tspan row" x="0" y="-0.1em" dy="1.1em" text-anchor="middle"/></text></g></g><g><rect class="background" style="stroke: none"/></g><g class="edgeLabel" transform="translate(152.14624786376953, 500.99999809265137)"><g class="label" data-id="L_ng_sealed_0" transform="translate(-0.09521484375, -9.000000476837158)"><g><rect class="background" style="" x="-78.9765625" y="-0.9999990463256836" width="158.1435546875" height="19.999999046325684"/><text y="-10.1" text-anchor="middle" style=""><tspan class="text-outer-tspan row" x="0" y="-0.1em" dy="1.1em" text-anchor="middle"><tspan font-style="normal" class="text-inner-tspan" font-weight="normal">quarantine</tspan><tspan font-style="normal" class="text-inner-tspan" font-weight="normal"> wins</tspan><tspan font-style="normal" class="text-inner-tspan" font-weight="normal"> the</tspan><tspan font-style="normal" class="text-inner-tspan" font-weight="normal"> fold</tspan></tspan></text></g></g></g><g class="edgeLabel" transform="translate(396.21802520751953, 617.999997138977)"><g class="label" data-id="L_mmu_sealed_0" transform="translate(-0.1748046875, -9.000000476837158)"><g><rect class="background" style="" x="-36.046875" y="-0.9999990463256836" width="72.443359375" height="19.999999046325684"/><text y="-10.1" text-anchor="middle" style=""><tspan class="text-outer-tspan row" x="0" y="-0.1em" dy="1.1em" text-anchor="middle"><tspan font-style="normal" class="text-inner-tspan" font-weight="normal">quarantine</tspan></tspan></text></g></g></g><g class="edgeLabel"><g class="label" data-id="L_sealed_note_0" transform="translate(0, 0)"><text y="-10.1" text-anchor="middle"><tspan class="text-outer-tspan row" x="0" y="-0.1em" dy="1.1em" text-anchor="middle"/></text></g></g><g><rect class="background" style="stroke: none"/></g><g class="edgeLabel" transform="translate(468.71802520751953, 219.99999904632568)"><g class="label" data-id="L_slot_CHAIN_0" transform="translate(-0.46484375, -9.000000476837158)"><g><rect class="background" style="" x="-35.140625" y="-0.9999990463256836" width="71.2109375" height="19.999999046325684"/><text y="-10.1" text-anchor="middle" style=""><tspan class="text-outer-tspan row" x="0" y="-0.1em" dy="1.1em" text-anchor="middle"><tspan font-style="normal" class="text-inner-tspan" font-weight="normal">add</tspan><tspan font-style="normal" class="text-inner-tspan" font-weight="normal"> a</tspan><tspan font-style="normal" class="text-inner-tspan" font-weight="normal"> rank</tspan></tspan></text></g></g></g></g><g class="nodes"><g class="node default untrusted " id="my-svg-flowchart-res-0" data-look="classic" transform="translate(122.61035919189453, 96.5)"><g class="basic label-container outer-path"><path d="M-86.125 -28.5 C-47.037981017014516 -28.5, -7.950962034029033 -28.5, 86.125 -28.5 C86.125 -28.5, 86.125 -28.5, 86.125 -28.5 C86.74981733995806 -28.479963324040718, 87.37463467991613 -28.45992664808144, 87.95100126945032 -28.441443693384585 C88.33246265932564 -28.404644571877757, 88.71392404920095 -28.367845450370925, 89.76949910800842 -28.266015393962515 C90.26698490225778 -28.185585748808236, 90.76447069650713 -28.105156103653954, 91.57302091798911 -27.974435974245367 C92.1384748831412 -27.845374796631365, 92.7039288482933 -27.716313619017363, 93.35415564142096 -27.56790359661234 C93.74232038162023 -27.452698339239497, 94.13048512181949 -27.33749308186665, 95.10558421367318 -27.048088789804055 C95.73730082199451 -26.815611238417493, 96.36901743031585 -26.58313368703093, 96.82010963906217 -26.41712758436162 C97.36545812936697 -26.175717984891868, 97.91080661967179 -25.93430838542212, 98.4906865648504 -25.677612735218947 C99.09876927964841 -25.360376372404392, 99.70685199444642 -25.043140009589838, 100.11045023211221 -24.8325830675166 C100.52787923661141 -24.57953515190407, 100.9453082411106 -24.326487236291545, 101.67274468450063 -23.88551098941746 C102.08681091523049 -23.59667631149855, 102.50087714596035 -23.30784163357963, 103.17115011899966 -22.840288223236765 C103.50282520138585 -22.575786171278406, 103.83450028377203 -22.311284119320046, 104.59950926627197 -21.701209813520336 C105.01987139860921 -21.319448047104196, 105.44023353094646 -20.93768628068805, 105.95195269219937 -20.472956477785235 C106.42652714162816 -19.982919395463096, 106.90110159105694 -19.492882313140957, 107.2229229166465 -19.160575372447536 C107.6554636353823 -18.652488431956332, 108.0880043541181 -18.144401491465125, 108.40719725033885 -17.769459352973907 C108.66021056379782 -17.430444562925942, 108.91322387725677 -17.091429772877976, 109.49990925601324 -16.305324813481842 C109.8312000297785 -15.7963732209495, 110.16249080354378 -15.287421628417158, 110.49656874565237 -14.774188196849966 C110.78485021770187 -14.26231525156159, 111.07313168975138 -13.750442306273216, 111.3930802316305 -13.182341271863805 C111.69172660111919 -12.562195695611903, 111.99037297060788 -11.942050119360001, 112.18575975595066 -11.536325278988231 C112.45463914722173 -10.872187984119304, 112.7235185384928 -10.208050689250376, 112.87135002841816 -9.842904051007281 C112.98950932066138 -9.487027088897264, 113.10766861290462 -9.131150126787247, 113.44703381154483 -8.109036218984432 C113.59732840183432 -7.5358978081231385, 113.7476229921238 -6.962759397261845, 113.91044549718197 -6.341846617754963 C114.01988443844287 -5.779900784308669, 114.12932337970376 -5.217954950862376, 114.25968082731183 -4.548597008451319 C114.31112900329376 -4.1495751151269795, 114.36257717927568 -3.7505532218026403, 114.49330471905215 -2.7366562383689352 C114.52188316324924 -2.2915239018941493, 114.55046160744635 -1.8463915654193634, 114.6103571617196 -0.9134699607921722 C114.6103571617196 -0.49466431274166933, 114.6103571617196 -0.07585866469116642, 114.6103571617196 0.9134699607921652 C114.57462476005028 1.470030959467359, 114.53889235838096 2.0265919581425527, 114.49330471905215 2.736656238368916 C114.44550501606811 3.107381295594081, 114.39770531308409 3.4781063528192453, 114.25968082731183 4.548597008451298 C114.13687453565421 5.1791813609941935, 114.0140682439966 5.8097657135370895, 113.91044549718197 6.341846617754957 C113.80248321251639 6.753553600334979, 113.6945209278508 7.165260582915002, 113.44703381154483 8.109036218984414 C113.3024364888277 8.544540316553721, 113.15783916611058 8.980044414123027, 112.87135002841818 9.842904051007261 C112.67097015255236 10.337846218477175, 112.47059027668655 10.832788385947088, 112.18575975595066 11.536325278988222 C112.01141933766647 11.898346887842704, 111.8370789193823 12.260368496697184, 111.3930802316305 13.182341271863798 C111.20618230904415 13.514197458882741, 111.0192843864578 13.846053645901685, 110.49656874565237 14.77418819684996 C110.20638084885535 15.219994732691191, 109.91619295205832 15.665801268532421, 109.49990925601324 16.305324813481825 C109.25811966611465 16.629300836461145, 109.01633007621606 16.953276859440468, 108.40719725033885 17.7694593529739 C108.0432202969736 18.197007393272084, 107.67924334360835 18.62455543357027, 107.2229229166465 19.160575372447518 C106.78806206373027 19.60960490582353, 106.35320121081403 20.058634439199544, 105.95195269219937 20.47295647778523 C105.44191890440052 20.93615566910961, 104.93188511660168 21.399354860433988, 104.599509266272 21.701209813520315 C104.19850147291429 22.02100285745754, 103.79749367955658 22.340795901394763, 103.17115011899966 22.84028822323676 C102.72976815935922 23.14817717116485, 102.28838619971879 23.456066119092938, 101.67274468450066 23.88551098941745 C101.31115051174616 24.10471150190445, 100.94955633899167 24.323912014391453, 100.11045023211223 24.832583067516598 C99.70870898191816 25.042171220415288, 99.3069677317241 25.25175937331398, 98.4906865648504 25.677612735218943 C98.03264589888772 25.880373750747026, 97.57460523292504 26.08313476627511, 96.82010963906217 26.417127584361616 C96.22648780067605 26.635585908267828, 95.63286596228996 26.854044232174036, 95.10558421367321 27.04808878980405 C94.59727091271144 27.19895350933854, 94.08895761174966 27.34981822887303, 93.35415564142099 27.567903596612332 C92.66821556401219 27.724464943103566, 91.98227548660337 27.8810262895948, 91.57302091798911 27.974435974245363 C91.11288056325945 28.048827898356308, 90.65274020852979 28.123219822467256, 89.76949910800843 28.266015393962512 C89.11742653052002 28.328920051280807, 88.4653539530316 28.391824708599106, 87.95100126945032 28.441443693384585 C87.41046976515449 28.458777486646603, 86.86993826085867 28.476111279908626, 86.125 28.5 C86.125 28.5, 86.125 28.5, 86.125 28.5 C30.34110435986338 28.5, -25.44279128027324 28.5, -86.125 28.5 C-86.60951539226355 28.484462534422107, -87.09403078452709 28.468925068844214, -87.9510012694503 28.441443693384585 C-88.6692561866832 28.372154505347048, -89.3875111039161 28.30286531730951, -89.76949910800843 28.266015393962512 C-90.3355107308804 28.174507024262265, -90.90152235375236 28.08299865456202, -91.57302091798911 27.974435974245363 C-92.08511045171147 27.857554879869742, -92.59719998543382 27.740673785494117, -93.35415564142095 27.56790359661234 C-94.0050415696071 27.374724069696647, -94.65592749779324 27.181544542780955, -95.10558421367317 27.048088789804062 C-95.50465415207215 26.901227363511165, -95.90372409047113 26.754365937218267, -96.82010963906217 26.41712758436162 C-97.35889480226682 26.17862337510493, -97.89767996547147 25.940119165848245, -98.4906865648504 25.67761273521895 C-99.03847980233915 25.391829354099382, -99.58627303982792 25.10604597297981, -100.11045023211221 24.832583067516605 C-100.65299134888056 24.503691454206134, -101.1955324656489 24.174799840895666, -101.67274468450061 23.88551098941747 C-102.04232808526575 23.62770560805127, -102.41191148603089 23.369900226685072, -103.17115011899965 22.840288223236765 C-103.45925667725986 22.61053090986175, -103.74736323552007 22.380773596486737, -104.59950926627197 21.701209813520336 C-105.00773075585225 21.330473857632263, -105.41595224543252 20.95973790174419, -105.95195269219934 20.47295647778525 C-106.21910299763597 20.197101853973944, -106.48625330307262 19.92124723016264, -107.2229229166465 19.16057537244753 C-107.57114839876905 18.751529906555106, -107.91937388089163 18.342484440662687, -108.40719725033884 17.76945935297391 C-108.7286146233909 17.338789354809233, -109.05003199644294 16.908119356644555, -109.49990925601324 16.305324813481846 C-109.89332601843407 15.700931019210751, -110.28674278085488 15.096537224939654, -110.49656874565235 14.77418819684998 C-110.77708712843098 14.276099402660092, -111.0576055112096 13.778010608470206, -111.3930802316305 13.182341271863809 C-111.61651050856128 12.718383521174967, -111.83994078549206 12.254425770486124, -112.18575975595066 11.536325278988233 C-112.35574982191432 11.116446529523632, -112.52573988787799 10.696567780059029, -112.87135002841816 9.842904051007284 C-113.06636191252213 9.255559327010364, -113.26137379662609 8.66821460301344, -113.44703381154483 8.109036218984425 C-113.61213436160989 7.479436266555322, -113.77723491167494 6.849836314126218, -113.91044549718197 6.3418466177549675 C-114.00165052113874 5.87352809592556, -114.09285554509552 5.405209574096153, -114.25968082731183 4.548597008451321 C-114.33505204279277 3.9640327449110884, -114.41042325827371 3.3794684813708553, -114.49330471905215 2.7366562383689517 C-114.52460642572107 2.249106890717628, -114.55590813238999 1.7615575430663044, -114.6103571617196 0.9134699607921758 C-114.6103571617196 0.41234800840417896, -114.6103571617196 -0.08877394398381788, -114.6103571617196 -0.9134699607921619 C-114.58657482606219 -1.283899035412127, -114.56279249040479 -1.6543281100320921, -114.49330471905215 -2.7366562383689126 C-114.43799744291155 -3.1656085504583604, -114.38269016677096 -3.594560862547808, -114.25968082731183 -4.548597008451308 C-114.14683232027801 -5.12805024152958, -114.03398381324418 -5.7075034746078535, -113.91044549718197 -6.341846617754954 C-113.72921179457593 -7.032969272975328, -113.54797809196991 -7.724091928195702, -113.44703381154483 -8.10903621898441 C-113.24481650133232 -8.718082538391513, -113.04259919111982 -9.327128857798616, -112.87135002841818 -9.842904051007247 C-112.72725350746099 -10.198825243688216, -112.5831569865038 -10.554746436369182, -112.18575975595066 -11.536325278988219 C-112.02062063908728 -11.879240188566067, -111.85548152222391 -12.222155098143915, -111.3930802316305 -13.182341271863795 C-111.15350757798082 -13.607726777780606, -110.91393492433112 -14.033112283697418, -110.49656874565237 -14.77418819684997 C-110.10326286015538 -15.378411654391423, -109.7099569746584 -15.982635111932877, -109.49990925601324 -16.305324813481835 C-109.09677308570261 -16.845490555237426, -108.69363691539199 -17.385656296993016, -108.40719725033885 -17.7694593529739 C-108.10010520209916 -18.130187146868803, -107.79301315385948 -18.490914940763705, -107.2229229166465 -19.160575372447518 C-106.72046885184359 -19.679400446602422, -106.21801478704069 -20.198225520757326, -105.95195269219937 -20.47295647778522 C-105.58150651809808 -20.809385891635348, -105.2110603439968 -21.145815305485474, -104.599509266272 -21.70120981352031 C-104.05985534483364 -22.131569455073436, -103.52020142339528 -22.561929096626564, -103.17115011899966 -22.840288223236758 C-102.75239522525095 -23.132393509508677, -102.33364033150224 -23.424498795780597, -101.67274468450066 -23.885510989417448 C-101.1708572603487 -24.189758095356254, -100.66896983619672 -24.49400520129506, -100.11045023211223 -24.832583067516595 C-99.61679636754072 -25.090121972463166, -99.12314250296919 -25.347660877409737, -98.49068656485042 -25.677612735218943 C-98.0470823730461 -25.873983151879912, -97.60347818124175 -26.07035356854088, -96.82010963906218 -26.417127584361612 C-96.41008914908578 -26.568018914860794, -96.00006865910936 -26.71891024535997, -95.10558421367321 -27.04808878980405 C-94.42694140326554 -27.24950641366424, -93.74829859285789 -27.450924037524427, -93.35415564142099 -27.56790359661233 C-92.86365283635374 -27.679857661038994, -92.37315003128647 -27.79181172546566, -91.57302091798913 -27.97443597424536 C-90.89114609349033 -28.084676207852084, -90.20927126899156 -28.19491644145881, -89.76949910800845 -28.266015393962512 C-89.24714636990021 -28.316406134386735, -88.72479363179197 -28.366796874810955, -87.95100126945032 -28.441443693384585 C-87.38848942041253 -28.459482353520333, -86.82597757137474 -28.477521013656084, -86.12500000000001 -28.5 C-86.12500000000001 -28.5, -86.125 -28.5, -86.125 -28.5" stroke="none" stroke-width="0" fill="#FFE9D6" style="fill:#FFE9D6 !important;stroke:#E8833A !important;stroke-width:2px !important"/><path d="M-86.125 -28.5 C-25.1944947451223 -28.5, 35.7360105097554 -28.5, 86.125 -28.5 M-86.125 -28.5 C-39.51060003178583 -28.5, 7.103799936428345 -28.5, 86.125 -28.5 M86.125 -28.5 C86.125 -28.5, 86.125 -28.5, 86.125 -28.5 M86.125 -28.5 C86.125 -28.5, 86.125 -28.5, 86.125 -28.5 M86.125 -28.5 C86.542516119316 -28.48661107069936, 86.96003223863201 -28.473222141398722, 87.95100126945032 -28.441443693384585 M86.125 -28.5 C86.67830294338304 -28.48225665154455, 87.23160588676609 -28.464513303089102, 87.95100126945032 -28.441443693384585 M87.95100126945032 -28.441443693384585 C88.46449895823133 -28.391907188919205, 88.97799664701235 -28.342370684453826, 89.76949910800842 -28.266015393962515 M87.95100126945032 -28.441443693384585 C88.50227700768238 -28.388262785923413, 89.05355274591444 -28.335081878462244, 89.76949910800842 -28.266015393962515 M89.76949910800842 -28.266015393962515 C90.28031891861892 -28.183430008449808, 90.7911387292294 -28.1008446229371, 91.57302091798911 -27.974435974245367 M89.76949910800842 -28.266015393962515 C90.46388894519757 -28.15375183015939, 91.15827878238672 -28.041488266356264, 91.57302091798911 -27.974435974245367 M91.57302091798911 -27.974435974245367 C92.27306419924491 -27.81465566350806, 92.97310748050072 -27.654875352770755, 93.35415564142096 -27.56790359661234 M91.57302091798911 -27.974435974245367 C92.02701354416004 -27.870815119900605, 92.48100617033097 -27.767194265555844, 93.35415564142096 -27.56790359661234 M93.35415564142096 -27.56790359661234 C93.87069793131651 -27.414596556357147, 94.38724022121207 -27.261289516101957, 95.10558421367318 -27.048088789804055 M93.35415564142096 -27.56790359661234 C93.98043586219788 -27.38202691449771, 94.6067160829748 -27.19615023238308, 95.10558421367318 -27.048088789804055 M95.10558421367318 -27.048088789804055 C95.59838791744643 -26.866732471388, 96.09119162121968 -26.685376152971948, 96.82010963906217 -26.41712758436162 M95.10558421367318 -27.048088789804055 C95.7131650325555 -26.82449343203984, 96.32074585143782 -26.60089807427563, 96.82010963906217 -26.41712758436162 M96.82010963906217 -26.41712758436162 C97.17668738577053 -26.25928119339686, 97.53326513247892 -26.101434802432102, 98.4906865648504 -25.677612735218947 M96.82010963906217 -26.41712758436162 C97.327392101331 -26.192568686314793, 97.83467456359983 -25.96800978826797, 98.4906865648504 -25.677612735218947 M98.4906865648504 -25.677612735218947 C99.02870205205218 -25.39693040016115, 99.56671753925394 -25.11624806510335, 100.11045023211221 -24.8325830675166 M98.4906865648504 -25.677612735218947 C98.96039787685052 -25.432564644612935, 99.43010918885065 -25.187516554006926, 100.11045023211221 -24.8325830675166 M100.11045023211221 -24.8325830675166 C100.6375749968531 -24.51303693740172, 101.16469976159398 -24.19349080728683, 101.67274468450063 -23.88551098941746 M100.11045023211221 -24.8325830675166 C100.4704370506389 -24.61435694260836, 100.83042386916559 -24.396130817700115, 101.67274468450063 -23.88551098941746 M101.67274468450063 -23.88551098941746 C102.11829022473914 -23.574717707902654, 102.56383576497767 -23.263924426387845, 103.17115011899966 -22.840288223236765 M101.67274468450063 -23.88551098941746 C102.1150757523163 -23.576959984712563, 102.55740682013197 -23.26840898000766, 103.17115011899966 -22.840288223236765 M103.17115011899966 -22.840288223236765 C103.59053403505885 -22.50584071045427, 104.00991795111804 -22.171393197671772, 104.59950926627197 -21.701209813520336 M103.17115011899966 -22.840288223236765 C103.73044065720647 -22.394268902363116, 104.28973119541328 -21.948249581489467, 104.59950926627197 -21.701209813520336 M104.59950926627197 -21.701209813520336 C105.04340184181379 -21.298078321167203, 105.48729441735563 -20.89494682881407, 105.95195269219937 -20.472956477785235 M104.59950926627197 -21.701209813520336 C105.03319015156693 -21.30735230806289, 105.46687103686189 -20.91349480260544, 105.95195269219937 -20.472956477785235 M105.95195269219937 -20.472956477785235 C106.32550331451303 -20.087234791169923, 106.69905393682669 -19.701513104554607, 107.2229229166465 -19.160575372447536 M105.95195269219937 -20.472956477785235 C106.24298747735376 -20.172439167713083, 106.53402226250817 -19.871921857640928, 107.2229229166465 -19.160575372447536 M107.2229229166465 -19.160575372447536 C107.54362271403768 -18.783863142096422, 107.86432251142887 -18.407150911745312, 108.40719725033885 -17.769459352973907 M107.2229229166465 -19.160575372447536 C107.66431828114017 -18.642087261205525, 108.10571364563383 -18.123599149963518, 108.40719725033885 -17.769459352973907 M108.40719725033885 -17.769459352973907 C108.84199764987548 -17.18686642872611, 109.2767980494121 -16.604273504478307, 109.49990925601324 -16.305324813481842 M108.40719725033885 -17.769459352973907 C108.79306838162711 -17.252427190630886, 109.17893951291536 -16.73539502828786, 109.49990925601324 -16.305324813481842 M109.49990925601324 -16.305324813481842 C109.85498084508127 -15.759839502601405, 110.21005243414932 -15.214354191720966, 110.49656874565237 -14.774188196849966 M109.49990925601324 -16.305324813481842 C109.87373154277114 -15.731033395682442, 110.24755382952904 -15.156741977883042, 110.49656874565237 -14.774188196849966 M110.49656874565237 -14.774188196849966 C110.78168007179934 -14.267944166623625, 111.0667913979463 -13.761700136397282, 111.3930802316305 -13.182341271863805 M110.49656874565237 -14.774188196849966 C110.67755417886185 -14.452830233424123, 110.85853961207134 -14.13147226999828, 111.3930802316305 -13.182341271863805 M111.3930802316305 -13.182341271863805 C111.66408502280059 -12.619594024425506, 111.93508981397068 -12.056846776987207, 112.18575975595066 -11.536325278988231 M111.3930802316305 -13.182341271863805 C111.62747627980978 -12.695612862547522, 111.86187232798908 -12.208884453231237, 112.18575975595066 -11.536325278988231 M112.18575975595066 -11.536325278988231 C112.40155428337819 -11.003308624138848, 112.61734881080572 -10.470291969289464, 112.87135002841816 -9.842904051007281 M112.18575975595066 -11.536325278988231 C112.45051226754097 -10.882381456718555, 112.71526477913129 -10.228437634448877, 112.87135002841816 -9.842904051007281 M112.87135002841816 -9.842904051007281 C113.04618908814241 -9.316316659938993, 113.22102814786666 -8.789729268870705, 113.44703381154483 -8.109036218984432 M112.87135002841816 -9.842904051007281 C113.00187022867148 -9.449798003414138, 113.13239042892478 -9.056691955820993, 113.44703381154483 -8.109036218984432 M113.44703381154483 -8.109036218984432 C113.61623983139813 -7.463780330930849, 113.78544585125145 -6.818524442877266, 113.91044549718197 -6.341846617754963 M113.44703381154483 -8.109036218984432 C113.62965691056726 -7.412615193060065, 113.81228000958971 -6.716194167135698, 113.91044549718197 -6.341846617754963 M113.91044549718197 -6.341846617754963 C114.0068587370527 -5.846785007964242, 114.10327197692342 -5.3517233981735215, 114.25968082731183 -4.548597008451319 M113.91044549718197 -6.341846617754963 C113.98925260899176 -5.937188754500618, 114.06805972080157 -5.532530891246274, 114.25968082731183 -4.548597008451319 M114.25968082731183 -4.548597008451319 C114.30734481862741 -4.178924504127319, 114.355008809943 -3.8092519998033185, 114.49330471905215 -2.7366562383689352 M114.25968082731183 -4.548597008451319 C114.3245474183754 -4.045504537519437, 114.38941400943898 -3.5424120665875565, 114.49330471905215 -2.7366562383689352 M114.49330471905215 -2.7366562383689352 C114.51861079457271 -2.342493685439594, 114.54391687009328 -1.9483311325102535, 114.6103571617196 -0.9134699607921722 M114.49330471905215 -2.7366562383689352 C114.51778462680295 -2.3553619153243885, 114.54226453455374 -1.9740675922798419, 114.6103571617196 -0.9134699607921722 M114.6103571617196 -0.9134699607921722 C114.6103571617196 -0.3589630888589599, 114.6103571617196 0.19554378307425246, 114.6103571617196 0.9134699607921652 M114.6103571617196 -0.9134699607921722 C114.6103571617196 -0.46452316473849686, 114.6103571617196 -0.015576368684821484, 114.6103571617196 0.9134699607921652 M114.6103571617196 0.9134699607921652 C114.566122943522 1.602453614438121, 114.5218887253244 2.291437268084077, 114.49330471905215 2.736656238368916 M114.6103571617196 0.9134699607921652 C114.56892325162447 1.558836555374159, 114.52748934152933 2.204203149956153, 114.49330471905215 2.736656238368916 M114.49330471905215 2.736656238368916 C114.40932172205034 3.38801177879642, 114.32533872504852 4.039367319223923, 114.25968082731183 4.548597008451298 M114.49330471905215 2.736656238368916 C114.44426525984403 3.1169966000504954, 114.39522580063593 3.497336961732074, 114.25968082731183 4.548597008451298 M114.25968082731183 4.548597008451298 C114.17985800954126 4.958470307144628, 114.1000351917707 5.368343605837959, 113.91044549718197 6.341846617754957 M114.25968082731183 4.548597008451298 C114.1325707630983 5.201280323466196, 114.00546069888476 5.853963638481094, 113.91044549718197 6.341846617754957 M113.91044549718197 6.341846617754957 C113.80796670869825 6.7326426528312915, 113.70548792021451 7.123438687907626, 113.44703381154483 8.109036218984414 M113.91044549718197 6.341846617754957 C113.78225498415831 6.8306926020339525, 113.65406447113466 7.319538586312948, 113.44703381154483 8.109036218984414 M113.44703381154483 8.109036218984414 C113.32200964816205 8.48558907919806, 113.19698548477929 8.862141939411707, 112.87135002841818 9.842904051007261 M113.44703381154483 8.109036218984414 C113.29798061851201 8.55796068799806, 113.14892742547919 9.006885157011707, 112.87135002841818 9.842904051007261 M112.87135002841818 9.842904051007261 C112.73118349449672 10.189118099728855, 112.59101696057525 10.535332148450447, 112.18575975595066 11.536325278988222 M112.87135002841818 9.842904051007261 C112.60387533510283 10.50357171476757, 112.33640064178748 11.164239378527881, 112.18575975595066 11.536325278988222 M112.18575975595066 11.536325278988222 C111.93384249577389 12.059436859911173, 111.6819252355971 12.582548440834124, 111.3930802316305 13.182341271863798 M112.18575975595066 11.536325278988222 C111.92069800222254 12.08673168201766, 111.6556362484944 12.637138085047098, 111.3930802316305 13.182341271863798 M111.3930802316305 13.182341271863798 C111.03923913963303 13.810621961001194, 110.68539804763554 14.43890265013859, 110.49656874565237 14.77418819684996 M111.3930802316305 13.182341271863798 C111.06596906180673 13.763160277483667, 110.73885789198295 14.343979283103538, 110.49656874565237 14.77418819684996 M110.49656874565237 14.77418819684996 C110.20079954572235 15.22856911309322, 109.90503034579233 15.68295002933648, 109.49990925601324 16.305324813481825 M110.49656874565237 14.77418819684996 C110.1122594695376 15.364590446452443, 109.72795019342284 15.954992696054923, 109.49990925601324 16.305324813481825 M109.49990925601324 16.305324813481825 C109.24245541905749 16.650289500475484, 108.98500158210173 16.99525418746914, 108.40719725033885 17.7694593529739 M109.49990925601324 16.305324813481825 C109.07546402093469 16.8740427607307, 108.65101878585614 17.442760707979573, 108.40719725033885 17.7694593529739 M108.40719725033885 17.7694593529739 C108.15934658485517 18.06059884775342, 107.9114959193715 18.351738342532933, 107.2229229166465 19.160575372447518 M108.40719725033885 17.7694593529739 C108.04825258057771 18.191096186605655, 107.68930791081655 18.612733020237407, 107.2229229166465 19.160575372447518 M107.2229229166465 19.160575372447518 C106.94437717604313 19.4481967186511, 106.66583143543977 19.735818064854683, 105.95195269219937 20.47295647778523 M107.2229229166465 19.160575372447518 C106.94685277588559 19.44564045856324, 106.67078263512468 19.730705544678962, 105.95195269219937 20.47295647778523 M105.95195269219937 20.47295647778523 C105.48463740110748 20.897359860669834, 105.0173221100156 21.32176324355444, 104.599509266272 21.701209813520315 M105.95195269219937 20.47295647778523 C105.61001675881805 20.783493645353122, 105.26808082543673 21.09403081292101, 104.599509266272 21.701209813520315 M104.599509266272 21.701209813520315 C104.0536250414375 22.13653795623652, 103.50774081660302 22.571866098952725, 103.17115011899966 22.84028822323676 M104.599509266272 21.701209813520315 C104.20950101295507 22.012231016985066, 103.81949275963815 22.323252220449817, 103.17115011899966 22.84028822323676 M103.17115011899966 22.84028822323676 C102.86621670921095 23.052996569550814, 102.56128329942223 23.265704915864863, 101.67274468450066 23.88551098941745 M103.17115011899966 22.84028822323676 C102.82023732927793 23.085069794576814, 102.46932453955618 23.329851365916863, 101.67274468450066 23.88551098941745 M101.67274468450066 23.88551098941745 C101.29917099284017 24.111973556664726, 100.9255973011797 24.338436123912, 100.11045023211223 24.832583067516598 M101.67274468450066 23.88551098941745 C101.06908952246009 24.251450296117937, 100.46543436041952 24.617389602818424, 100.11045023211223 24.832583067516598 M100.11045023211223 24.832583067516598 C99.47694579585905 25.16308192613092, 98.84344135960588 25.493580784745244, 98.4906865648504 25.677612735218943 M100.11045023211223 24.832583067516598 C99.73269151974742 25.029659545791315, 99.35493280738261 25.226736024066035, 98.4906865648504 25.677612735218943 M98.4906865648504 25.677612735218943 C98.0552450721549 25.8703697671223, 97.61980357945941 26.06312679902565, 96.82010963906217 26.417127584361616 M98.4906865648504 25.677612735218943 C97.93382912436647 25.92411700553212, 97.37697168388252 26.170621275845296, 96.82010963906217 26.417127584361616 M96.82010963906217 26.417127584361616 C96.29353687130876 26.61091123048018, 95.76696410355534 26.804694876598745, 95.10558421367321 27.04808878980405 M96.82010963906217 26.417127584361616 C96.39983089252824 26.571794048100248, 95.97955214599432 26.726460511838876, 95.10558421367321 27.04808878980405 M95.10558421367321 27.04808878980405 C94.59850781120366 27.198586404358664, 94.09143140873411 27.349084018913274, 93.35415564142099 27.567903596612332 M95.10558421367321 27.04808878980405 C94.48449904238774 27.232423608498987, 93.86341387110227 27.416758427193923, 93.35415564142099 27.567903596612332 M93.35415564142099 27.567903596612332 C92.97665031595214 27.654066723698126, 92.59914499048331 27.74022985078392, 91.57302091798911 27.974435974245363 M93.35415564142099 27.567903596612332 C92.70950316601316 27.715041317373625, 92.06485069060534 27.86217903813492, 91.57302091798911 27.974435974245363 M91.57302091798911 27.974435974245363 C91.15248108631833 28.04242559289479, 90.73194125464755 28.110415211544222, 89.76949910800843 28.266015393962512 M91.57302091798911 27.974435974245363 C90.91973771971968 28.080053735454698, 90.26645452145024 28.185671496664032, 89.76949910800843 28.266015393962512 M89.76949910800843 28.266015393962512 C89.32264824875085 28.309122558938306, 88.87579738949329 28.3522297239141, 87.95100126945032 28.441443693384585 M89.76949910800843 28.266015393962512 C89.12291251369788 28.3283908250815, 88.47632591938734 28.390766256200486, 87.95100126945032 28.441443693384585 M87.95100126945032 28.441443693384585 C87.49845708241419 28.45595590463901, 87.04591289537807 28.470468115893436, 86.125 28.5 M87.95100126945032 28.441443693384585 C87.27247006316598 28.46320286848925, 86.59393885688165 28.484962043593917, 86.125 28.5 M86.125 28.5 C86.125 28.5, 86.125 28.5, 86.125 28.5 M86.125 28.5 C86.125 28.5, 86.125 28.5, 86.125 28.5 M86.125 28.5 C31.617731478554127 28.5, -22.889537042891746 28.5, -86.125 28.5 M86.125 28.5 C45.832203882387915 28.5, 5.539407764775831 28.5, -86.125 28.5 M-86.125 28.5 C-86.73367686430193 28.48048091767948, -87.34235372860385 28.46096183535896, -87.9510012694503 28.441443693384585 M-86.125 28.5 C-86.56250640638771 28.485970021101707, -87.00001281277542 28.47194004220341, -87.9510012694503 28.441443693384585 M-87.9510012694503 28.441443693384585 C-88.36076480718927 28.401914297711663, -88.77052834492825 28.362384902038738, -89.76949910800843 28.266015393962512 M-87.9510012694503 28.441443693384585 C-88.40817342780105 28.39734084509845, -88.86534558615178 28.35323799681232, -89.76949910800843 28.266015393962512 M-89.76949910800843 28.266015393962512 C-90.39708591659688 28.164552025758322, -91.02467272518533 28.063088657554133, -91.57302091798911 27.974435974245363 M-89.76949910800843 28.266015393962512 C-90.22790692895093 28.191903572478274, -90.68631474989341 28.11779175099404, -91.57302091798911 27.974435974245363 M-91.57302091798911 27.974435974245363 C-92.05870378616343 27.86358202896148, -92.54438665433776 27.7527280836776, -93.35415564142095 27.56790359661234 M-91.57302091798911 27.974435974245363 C-92.15972512159611 27.840524568374796, -92.7464293252031 27.70661316250423, -93.35415564142095 27.56790359661234 M-93.35415564142095 27.56790359661234 C-94.00138139943725 27.37581038899043, -94.64860715745355 27.183717181368525, -95.10558421367317 27.048088789804062 M-93.35415564142095 27.56790359661234 C-93.9337315627607 27.395888505414792, -94.51330748410045 27.223873414217245, -95.10558421367317 27.048088789804062 M-95.10558421367317 27.048088789804062 C-95.72373150881675 26.82060487110027, -96.34187880396033 26.593120952396475, -96.82010963906217 26.41712758436162 M-95.10558421367317 27.048088789804062 C-95.51033272328802 26.89913759681159, -95.91508123290286 26.750186403819118, -96.82010963906217 26.41712758436162 M-96.82010963906217 26.41712758436162 C-97.44997679962702 26.13830407672502, -98.07984396019188 25.859480569088422, -98.4906865648504 25.67761273521895 M-96.82010963906217 26.41712758436162 C-97.28929757064401 26.209432005015824, -97.75848550222585 26.001736425670025, -98.4906865648504 25.67761273521895 M-98.4906865648504 25.67761273521895 C-99.09484584375306 25.36242322639792, -99.69900512265572 25.047233717576887, -100.11045023211221 24.832583067516605 M-98.4906865648504 25.67761273521895 C-98.83829370083572 25.496266315028407, -99.18590083682103 25.314919894837864, -100.11045023211221 24.832583067516605 M-100.11045023211221 24.832583067516605 C-100.59599821454914 24.538241027166674, -101.08154619698607 24.24389898681674, -101.67274468450061 23.88551098941747 M-100.11045023211221 24.832583067516605 C-100.66223954813523 24.4980851414695, -101.21402886415825 24.163587215422393, -101.67274468450061 23.88551098941747 M-101.67274468450061 23.88551098941747 C-102.26973552305373 23.469076023759698, -102.86672636160684 23.052641058101926, -103.17115011899965 22.840288223236765 M-101.67274468450061 23.88551098941747 C-102.04251051260741 23.627578354634885, -102.41227634071419 23.369645719852304, -103.17115011899965 22.840288223236765 M-103.17115011899965 22.840288223236765 C-103.48027460066443 22.593769675257036, -103.78939908232921 22.347251127277307, -104.59950926627197 21.701209813520336 M-103.17115011899965 22.840288223236765 C-103.64999389470908 22.45842305467652, -104.12883767041852 22.076557886116273, -104.59950926627197 21.701209813520336 M-104.59950926627197 21.701209813520336 C-104.97934418026406 21.356253794513822, -105.35917909425615 21.011297775507312, -105.95195269219934 20.47295647778525 M-104.59950926627197 21.701209813520336 C-104.98543069159126 21.350726185966725, -105.37135211691056 21.000242558413113, -105.95195269219934 20.47295647778525 M-105.95195269219934 20.47295647778525 C-106.33698974998536 20.075374103490844, -106.72202680777137 19.677791729196436, -107.2229229166465 19.16057537244753 M-105.95195269219934 20.47295647778525 C-106.21344109815338 20.202948230040317, -106.47492950410742 19.932939982295384, -107.2229229166465 19.16057537244753 M-107.2229229166465 19.16057537244753 C-107.64542405319396 18.664281496463147, -108.06792518974143 18.16798762047877, -108.40719725033884 17.76945935297391 M-107.2229229166465 19.16057537244753 C-107.69259630742704 18.608870282463666, -108.1622696982076 18.057165192479808, -108.40719725033884 17.76945935297391 M-108.40719725033884 17.76945935297391 C-108.6949216196513 17.383934910324513, -108.98264598896374 16.998410467675114, -109.49990925601324 16.305324813481846 M-108.40719725033884 17.76945935297391 C-108.82091941682471 17.21510934074759, -109.23464158331059 16.66075932852127, -109.49990925601324 16.305324813481846 M-109.49990925601324 16.305324813481846 C-109.83046023712329 15.797509741130055, -110.16101121823334 15.289694668778262, -110.49656874565235 14.77418819684998 M-109.49990925601324 16.305324813481846 C-109.82648129606439 15.803622463091802, -110.15305333611555 15.301920112701758, -110.49656874565235 14.77418819684998 M-110.49656874565235 14.77418819684998 C-110.7350950172001 14.350660648312868, -110.97362128874784 13.927133099775757, -111.3930802316305 13.182341271863809 M-110.49656874565235 14.77418819684998 C-110.72690330250246 14.365205867259565, -110.95723785935259 13.956223537669148, -111.3930802316305 13.182341271863809 M-111.3930802316305 13.182341271863809 C-111.56344862354358 12.828567660756686, -111.73381701545665 12.474794049649566, -112.18575975595066 11.536325278988233 M-111.3930802316305 13.182341271863809 C-111.68403595013365 12.578165496936956, -111.97499166863679 11.973989722010101, -112.18575975595066 11.536325278988233 M-112.18575975595066 11.536325278988233 C-112.45096011235576 10.881275271367532, -112.71616046876086 10.22622526374683, -112.87135002841816 9.842904051007284 M-112.18575975595066 11.536325278988233 C-112.40464928329752 10.995663914500385, -112.62353881064436 10.455002550012539, -112.87135002841816 9.842904051007284 M-112.87135002841816 9.842904051007284 C-113.02727006403951 9.373297746199764, -113.18319009966088 8.903691441392242, -113.44703381154483 8.109036218984425 M-112.87135002841816 9.842904051007284 C-112.99761073651732 9.462626915124543, -113.12387144461647 9.082349779241804, -113.44703381154483 8.109036218984425 M-113.44703381154483 8.109036218984425 C-113.59305082761735 7.552210052524801, -113.73906784368988 6.995383886065178, -113.91044549718197 6.3418466177549675 M-113.44703381154483 8.109036218984425 C-113.56181940946938 7.671308985705263, -113.67660500739393 7.233581752426101, -113.91044549718197 6.3418466177549675 M-113.91044549718197 6.3418466177549675 C-114.00142114249014 5.874705906806927, -114.09239678779832 5.407565195858886, -114.25968082731183 4.548597008451321 M-113.91044549718197 6.3418466177549675 C-114.02743103048255 5.741150629157738, -114.14441656378312 5.140454640560508, -114.25968082731183 4.548597008451321 M-114.25968082731183 4.548597008451321 C-114.33948451935989 3.929655331947986, -114.41928821140796 3.3107136554446503, -114.49330471905215 2.7366562383689517 M-114.25968082731183 4.548597008451321 C-114.30724447880839 4.179702719949376, -114.35480813030495 3.810808431447431, -114.49330471905215 2.7366562383689517 M-114.49330471905215 2.7366562383689517 C-114.5273740578582 2.205998786189473, -114.56144339666425 1.675341334009995, -114.6103571617196 0.9134699607921758 M-114.49330471905215 2.7366562383689517 C-114.53025666791218 2.1610998077975627, -114.56720861677223 1.5855433772261738, -114.6103571617196 0.9134699607921758 M-114.6103571617196 0.9134699607921758 C-114.6103571617196 0.32319912201657996, -114.6103571617196 -0.26707171675901586, -114.6103571617196 -0.9134699607921619 M-114.6103571617196 0.9134699607921758 C-114.6103571617196 0.5428720864023958, -114.6103571617196 0.17227421201261583, -114.6103571617196 -0.9134699607921619 M-114.6103571617196 -0.9134699607921619 C-114.57683441803714 -1.4356137527183295, -114.54331167435465 -1.9577575446444972, -114.49330471905215 -2.7366562383689126 M-114.6103571617196 -0.9134699607921619 C-114.58391594760009 -1.3253132136674104, -114.55747473348059 -1.7371564665426589, -114.49330471905215 -2.7366562383689126 M-114.49330471905215 -2.7366562383689126 C-114.43654953505369 -3.17683823788223, -114.37979435105522 -3.617020237395548, -114.25968082731183 -4.548597008451308 M-114.49330471905215 -2.7366562383689126 C-114.4008280353288 -3.4538871357404677, -114.30835135160545 -4.171118033112023, -114.25968082731183 -4.548597008451308 M-114.25968082731183 -4.548597008451308 C-114.16694534756348 -5.024774097308467, -114.07420986781514 -5.500951186165626, -113.91044549718197 -6.341846617754954 M-114.25968082731183 -4.548597008451308 C-114.1438455085893 -5.143386888288245, -114.02801018986675 -5.738176768125182, -113.91044549718197 -6.341846617754954 M-113.91044549718197 -6.341846617754954 C-113.73586172437527 -7.0076102085526495, -113.56127795156858 -7.673373799350345, -113.44703381154483 -8.10903621898441 M-113.91044549718197 -6.341846617754954 C-113.79157706009127 -6.795143486288281, -113.67270862300059 -7.248440354821608, -113.44703381154483 -8.10903621898441 M-113.44703381154483 -8.10903621898441 C-113.23120159318685 -8.75908847248463, -113.0153693748289 -9.409140725984848, -112.87135002841818 -9.842904051007247 M-113.44703381154483 -8.10903621898441 C-113.24099008017772 -8.729607109251752, -113.03494634881062 -9.350177999519094, -112.87135002841818 -9.842904051007247 M-112.87135002841818 -9.842904051007247 C-112.64588567474858 -10.399805363627888, -112.42042132107898 -10.95670667624853, -112.18575975595066 -11.536325278988219 M-112.87135002841818 -9.842904051007247 C-112.7264817278879 -10.200731554155094, -112.58161342735761 -10.558559057302944, -112.18575975595066 -11.536325278988219 M-112.18575975595066 -11.536325278988219 C-112.00600608812947 -11.909587616331274, -111.82625242030828 -12.28284995367433, -111.3930802316305 -13.182341271863795 M-112.18575975595066 -11.536325278988219 C-111.87288377702382 -12.186018943703306, -111.56000779809699 -12.835712608418394, -111.3930802316305 -13.182341271863795 M-111.3930802316305 -13.182341271863795 C-111.09826907782123 -13.70580832831864, -110.80345792401194 -14.229275384773482, -110.49656874565237 -14.77418819684997 M-111.3930802316305 -13.182341271863795 C-111.12777722002015 -13.653413633821028, -110.86247420840981 -14.124485995778262, -110.49656874565237 -14.77418819684997 M-110.49656874565237 -14.77418819684997 C-110.27700274258274 -15.111500539292154, -110.05743673951312 -15.448812881734337, -109.49990925601324 -16.305324813481835 M-110.49656874565237 -14.77418819684997 C-110.23420578458314 -15.177248159371892, -109.9718428235139 -15.580308121893816, -109.49990925601324 -16.305324813481835 M-109.49990925601324 -16.305324813481835 C-109.18652907431077 -16.725225707441275, -108.8731488926083 -17.14512660140071, -108.40719725033885 -17.7694593529739 M-109.49990925601324 -16.305324813481835 C-109.2575907908081 -16.630009481190406, -109.01527232560295 -16.954694148898977, -108.40719725033885 -17.7694593529739 M-108.40719725033885 -17.7694593529739 C-108.10416737102985 -18.12541549209886, -107.80113749172084 -18.481371631223823, -107.2229229166465 -19.160575372447518 M-108.40719725033885 -17.7694593529739 C-108.10886779457105 -18.119894107145683, -107.81053833880325 -18.47032886131747, -107.2229229166465 -19.160575372447518 M-107.2229229166465 -19.160575372447518 C-106.7629540639784 -19.63553097697245, -106.3029852113103 -20.11048658149738, -105.95195269219937 -20.47295647778522 M-107.2229229166465 -19.160575372447518 C-106.8422746353299 -19.55362597471201, -106.46162635401329 -19.9466765769765, -105.95195269219937 -20.47295647778522 M-105.95195269219937 -20.47295647778522 C-105.45674373715987 -20.92269214824115, -104.96153478212035 -21.372427818697076, -104.599509266272 -21.70120981352031 M-105.95195269219937 -20.47295647778522 C-105.4920534311808 -20.89062481837464, -105.03215417016224 -21.30829315896406, -104.599509266272 -21.70120981352031 M-104.599509266272 -21.70120981352031 C-104.24861124280676 -21.98104164944527, -103.89771321934151 -22.260873485370233, -103.17115011899966 -22.840288223236758 M-104.599509266272 -21.70120981352031 C-104.2267194056596 -21.998499807003885, -103.85392954504718 -22.295789800487462, -103.17115011899966 -22.840288223236758 M-103.17115011899966 -22.840288223236758 C-102.73315100308142 -23.14581744582519, -102.29515188716317 -23.451346668413624, -101.67274468450066 -23.885510989417448 M-103.17115011899966 -22.840288223236758 C-102.75909928083287 -23.127717050548622, -102.34704844266606 -23.415145877860482, -101.67274468450066 -23.885510989417448 M-101.67274468450066 -23.885510989417448 C-101.08828797917442 -24.23981207883505, -100.50383127384819 -24.594113168252655, -100.11045023211223 -24.832583067516595 M-101.67274468450066 -23.885510989417448 C-101.18436714304343 -24.181568325073822, -100.69598960158619 -24.477625660730194, -100.11045023211223 -24.832583067516595 M-100.11045023211223 -24.832583067516595 C-99.59106240877956 -25.103547362265466, -99.07167458544691 -25.37451165701434, -98.49068656485042 -25.677612735218943 M-100.11045023211223 -24.832583067516595 C-99.5341319697055 -25.133247935864723, -98.95781370729877 -25.433912804212852, -98.49068656485042 -25.677612735218943 M-98.49068656485042 -25.677612735218943 C-98.02492630996045 -25.883790983771664, -97.55916605507049 -26.089969232324382, -96.82010963906218 -26.417127584361612 M-98.49068656485042 -25.677612735218943 C-98.14160048536944 -25.832142787334547, -97.79251440588845 -25.986672839450154, -96.82010963906218 -26.417127584361612 M-96.82010963906218 -26.417127584361612 C-96.31419077700497 -26.603310402261364, -95.80827191494775 -26.789493220161113, -95.10558421367321 -27.04808878980405 M-96.82010963906218 -26.417127584361612 C-96.16658933024641 -26.65762909908133, -95.51306902143064 -26.898130613801044, -95.10558421367321 -27.04808878980405 M-95.10558421367321 -27.04808878980405 C-94.74967730354521 -27.153720092536545, -94.39377039341721 -27.259351395269043, -93.35415564142099 -27.56790359661233 M-95.10558421367321 -27.04808878980405 C-94.41879813729118 -27.25192329226056, -93.73201206090913 -27.45575779471707, -93.35415564142099 -27.56790359661233 M-93.35415564142099 -27.56790359661233 C-92.84026535532375 -27.68519570096651, -92.32637506922651 -27.802487805320695, -91.57302091798913 -27.97443597424536 M-93.35415564142099 -27.56790359661233 C-92.8087301625781 -27.692393402924342, -92.2633046837352 -27.81688320923636, -91.57302091798913 -27.97443597424536 M-91.57302091798913 -27.97443597424536 C-91.10352973001532 -28.050339668558422, -90.63403854204152 -28.126243362871488, -89.76949910800845 -28.266015393962512 M-91.57302091798913 -27.97443597424536 C-91.14902614338658 -28.042984161274514, -90.72503136878404 -28.11153234830367, -89.76949910800845 -28.266015393962512 M-89.76949910800845 -28.266015393962512 C-89.22109184575986 -28.318919582995402, -88.67268458351127 -28.371823772028296, -87.95100126945032 -28.441443693384585 M-89.76949910800845 -28.266015393962512 C-89.10217047807399 -28.33039178431219, -88.43484184813954 -28.394768174661866, -87.95100126945032 -28.441443693384585 M-87.95100126945032 -28.441443693384585 C-87.30965275982538 -28.462010491779115, -86.66830425020045 -28.48257729017364, -86.12500000000001 -28.5 M-87.95100126945032 -28.441443693384585 C-87.41872155110089 -28.45851286793243, -86.88644183275144 -28.475582042480276, -86.12500000000001 -28.5 M-86.12500000000001 -28.5 C-86.12500000000001 -28.5, -86.125 -28.5, -86.125 -28.5 M-86.12500000000001 -28.5 C-86.12500000000001 -28.5, -86.125 -28.5, -86.125 -28.5" stroke="#E8833A" stroke-width="2" fill="none" stroke-dasharray="0 0" style="fill:#FFE9D6 !important;stroke:#E8833A !important;stroke-width:2px !important"/></g><g class="label" style="color:#7A3E12 !important" transform="translate(-100, -21)"><rect/><foreignObject width="200" height="42"><div style="color: rgb(122, 62, 18) !important; display: table; white-space: break-spaces; line-height: 1.5; max-width: 200px; text-align: center; width: 200px;" xmlns="http://www.w3.org/1999/xhtml"><span style="color:#7A3E12 !important" class="nodeLabel "><p>a tool result (possibly obfuscated)</p></span></div></foreignObject></g></g><g class="node default kernel " id="my-svg-flowchart-ng-1" data-look="classic" transform="translate(274.18213653564453, 336.99999809265137)"><rect class="basic label-container" style="fill:#DCE9FB !important;stroke:#3B6FB5 !important;stroke-width:2px !important" x="-130" y="-57" width="260" height="114"/><g class="label" style="color:#1B3A66 !important" transform="translate(-100, -42)"><rect/><foreignObject width="200" height="84"><div style="color: rgb(27, 58, 102) !important; display: table; white-space: break-spaces; line-height: 1.5; max-width: 200px; text-align: center; width: 200px;" xmlns="http://www.w3.org/1999/xhtml"><span style="color:#1B3A66 !important" class="nodeLabel "><p>normgate (rank 5)<br />normalized-view / provenance<br />catches evasions the base markers miss</p></span></div></foreignObject></g></g><g class="node default kernel " id="my-svg-flowchart-mmu-2" data-look="classic" transform="translate(396.21802520751953, 500.99999809265137)"><rect class="basic label-container" style="fill:#DCE9FB !important;stroke:#3B6FB5 !important;stroke-width:2px !important" x="-130" y="-57" width="260" height="114"/><g class="label" style="color:#1B3A66 !important" transform="translate(-100, -42)"><rect/><foreignObject width="200" height="84"><div style="color: rgb(27, 58, 102) !important; display: table; white-space: break-spaces; line-height: 1.5; max-width: 200px; text-align: center; width: 200px;" xmlns="http://www.w3.org/1999/xhtml"><span style="color:#1B3A66 !important" class="nodeLabel "><p>ctxmmu (rank 10)<br />base markers + secret regex<br />(≈100% evadable ALONE: 24/24 obfuscated walked through)</p></span></div></foreignObject></g></g><g class="node default deny " id="my-svg-flowchart-sealed-7" data-look="classic" transform="translate(274.18213653564453, 678.4999961853027)"><rect class="basic label-container" style="fill:#FBDDDD !important;stroke:#C9453F !important;stroke-width:2px !important" x="-122.75" y="-25.5" width="245.5" height="51"/><g class="label" style="color:#6E1F1B !important" transform="translate(-92.75, -10.5)"><rect/><foreignObject width="185.5" height="21"><div style="color: rgb(110, 31, 27) !important; display: table-cell; white-space: nowrap; line-height: 1.5; max-width: 200px; text-align: center;" xmlns="http://www.w3.org/1999/xhtml"><span style="color:#6E1F1B !important" class="nodeLabel "><p>SEALED — held out of context</p></span></div></foreignObject></g></g><g class="node default cheap " id="my-svg-flowchart-slot-10" data-look="classic" transform="translate(468.71802520751953, 96.5)"><rect class="basic label-container" style="fill:#E8ECEF !important;stroke:#7A8A99 !important;stroke-width:1.5px !important" x="-130" y="-88.5" width="260" height="177"/><g class="label" style="color:#33424F !important" transform="translate(-100, -73.5)"><rect/><foreignObject width="200" height="147"><div style="color: rgb(51, 66, 79) !important; display: table; white-space: break-spaces; line-height: 1.5; max-width: 200px; text-align: center; width: 200px;" xmlns="http://www.w3.org/1999/xhtml"><span style="color:#33424F !important" class="nodeLabel "><p>roadmap drivers plug in as new ranks (no edit to ctxmmu):<br />NFKC/UTS#39 canonicalize · broken-token pre-scan ·<br />capability-IFC (CaMeL / FIDES) · source-taint stamp · learned detectors</p></span></div></foreignObject></g></g><g class="node default note " id="my-svg-flowchart-note-13" data-look="classic" transform="translate(274.18213653564453, 852.9999961853027)"><rect class="basic label-container" style="fill:#F7F9FB !important;stroke:#AFC0CE !important;stroke-width:1px !important" x="-130" y="-99" width="260" height="198"/><g class="label" style="color:#46586A !important" transform="translate(-100, -84)"><rect/><foreignObject width="200" height="168"><div style="color: rgb(70, 88, 106) !important; display: table; white-space: break-spaces; line-height: 1.5; max-width: 200px; text-align: center; width: 200px;" xmlns="http://www.w3.org/1999/xhtml"><span style="color:#46586A !important" class="nodeLabel "><p>⚡ catch-more = an independent plug-in driver; the fold is monotone.<br />(recall's re-screen folds the BASE gate today — folding the chain to inherit normgate is the pending one-line integration.)</p></span></div></foreignObject></g></g></g></g></g><defs><filter id="my-svg-drop-shadow" height="130%" width="130%"><feDropShadow dx="4" dy="4" stdDeviation="0" flood-opacity="0.06" flood-color="#000000"/></filter></defs><defs><filter id="my-svg-drop-shadow-small" height="150%" width="150%"><feDropShadow dx="2" dy="2" stdDeviation="0" flood-opacity="0.06" flood-color="#000000"/></filter></defs><linearGradient id="my-svg-gradient" gradientUnits="objectBoundingBox" x1="0%" y1="0%" x2="100%" y2="0%"><stop offset="0%" stop-color="#3B6FB5" stop-opacity="1"/><stop offset="100%" stop-color="hsl(94.8387096774, 39.4871794872%, 82.3529411765%)" stop-opacity="1"/></linearGradient></svg>