<svg xmlns="http://www.w3.org/2000/svg" width="720" height="400" viewBox="0 0 720 400" font-family="-apple-system,Segoe UI,Helvetica,Arial,sans-serif">
<rect width="720" height="400" fill="white"/>
<text x="26" y="32" font-size="18" font-weight="700" fill="#1f2933">fak 3B Q8 on the 4070 — prefill ≈ decode (prefill isn't batched yet)</text>
<text x="26" y="52" font-size="12.5" fill="#6b7280">fak's own in-kernel forward pass · qwen2.5-3b (qwen2) [lean] · Q8_0 · backend=cuda · 128 steps × 5 reps</text>
<line x1="56" y1="324.0" x2="696" y2="324.0" stroke="#e5e7eb" stroke-width="1"/>
<text x="48" y="328.0" font-size="11" text-anchor="end" fill="#6b7280">0</text>
<line x1="56" y1="264.5" x2="696" y2="264.5" stroke="#e5e7eb" stroke-width="1"/>
<text x="48" y="268.5" font-size="11" text-anchor="end" fill="#6b7280">8</text>
<line x1="56" y1="205.0" x2="696" y2="205.0" stroke="#e5e7eb" stroke-width="1"/>
<text x="48" y="209.0" font-size="11" text-anchor="end" fill="#6b7280">16</text>
<line x1="56" y1="145.5" x2="696" y2="145.5" stroke="#e5e7eb" stroke-width="1"/>
<text x="48" y="149.5" font-size="11" text-anchor="end" fill="#6b7280">24</text>
<line x1="56" y1="86.0" x2="696" y2="86.0" stroke="#e5e7eb" stroke-width="1"/>
<text x="48" y="90.0" font-size="11" text-anchor="end" fill="#6b7280">32</text>
<text x="14" y="205.0" font-size="11" fill="#6b7280" transform="rotate(-90 14 205.0)" text-anchor="middle">tok/s</text>
<line x1="56" y1="137.0" x2="696" y2="137.0" stroke="#d64545" stroke-width="1.3" stroke-dasharray="5 4"/>
<rect x="99.2" y="135.5" width="73.6" height="188.5" rx="2.5" fill="#2f9e6f"/>
<text x="136.0" y="128.5" font-size="13" font-weight="700" text-anchor="middle" fill="#1f2933">25.3</text>
<text x="136.0" y="344.0" font-size="12" text-anchor="middle" fill="#1f2933">prefill</text>
<text x="136.0" y="359.0" font-size="12" text-anchor="middle" fill="#6b7280">P=16</text>
<rect x="259.2" y="132.7" width="73.6" height="191.3" rx="2.5" fill="#2f9e6f"/>
<text x="296.0" y="125.7" font-size="13" font-weight="700" text-anchor="middle" fill="#1f2933">25.7</text>
<text x="296.0" y="344.0" font-size="12" text-anchor="middle" fill="#1f2933">prefill</text>
<text x="296.0" y="359.0" font-size="12" text-anchor="middle" fill="#6b7280">P=64</text>
<rect x="419.2" y="137.2" width="73.6" height="186.8" rx="2.5" fill="#2f9e6f"/>
<text x="456.0" y="130.2" font-size="13" font-weight="700" text-anchor="middle" fill="#1f2933">25.1</text>
<text x="456.0" y="344.0" font-size="12" text-anchor="middle" fill="#1f2933">prefill</text>
<text x="456.0" y="359.0" font-size="12" text-anchor="middle" fill="#6b7280">P=256</text>
<rect x="579.2" y="137.0" width="73.6" height="187.0" rx="2.5" fill="#d64545"/>
<text x="616.0" y="130.0" font-size="13" font-weight="700" text-anchor="middle" fill="#1f2933">25.1</text>
<text x="616.0" y="344.0" font-size="12" text-anchor="middle" fill="#1f2933">decode</text>
<text x="616.0" y="359.0" font-size="12" text-anchor="middle" fill="#6b7280">128 steps</text>
<text x="26" y="388" font-size="10.5" fill="#6b7280">Device prefill loops single tokens (HAL not batched), so it runs at decode speed; llama.cpp batches prefill to thousands of tok/s. Source: qwen2.5-3b-q8-cuda-4070.json.</text>
</svg>